<?xml version="1.0" encoding="UTF-8" standalone="no"?>
<!-- Created with Inkscape (http://www.inkscape.org/) -->

<svg
   width="400"
   height="300"
   version="1.1"
   viewBox="0 0 105.83 79.375"
   id="svg32"
   sodipodi:docname="cubetilings1.svg"
   inkscape:version="1.3 (0e150ed, 2023-07-21)"
   xmlns:inkscape="http://www.inkscape.org/namespaces/inkscape"
   xmlns:sodipodi="http://sodipodi.sourceforge.net/DTD/sodipodi-0.dtd"
   xmlns="http://www.w3.org/2000/svg"
   xmlns:svg="http://www.w3.org/2000/svg">
  <sodipodi:namedview
     id="namedview32"
     pagecolor="#000000"
     bordercolor="#000000"
     borderopacity="0.25"
     inkscape:showpageshadow="2"
     inkscape:pageopacity="0.0"
     inkscape:pagecheckerboard="0"
     inkscape:deskcolor="#d1d1d1"
     inkscape:zoom="1.4466667"
     inkscape:cx="220.85253"
     inkscape:cy="96.774193"
     inkscape:window-width="942"
     inkscape:window-height="1024"
     inkscape:window-x="966"
     inkscape:window-y="44"
     inkscape:window-maximized="0"
     inkscape:current-layer="g13" />
  <defs
     id="defs1">
    <marker
       id="ArrowWideRounded_Fnone_S-abb2bf"
       overflow="visible"
       markerHeight="1"
       markerWidth="1"
       orient="auto-start-reverse"
       preserveAspectRatio="xMidYMid"
       viewBox="0 0 1 1">
      <path
         transform="rotate(180 .125 0)"
         d="m3-3-3 3 3 3"
         fill="none"
         stroke="#abb2bf"
         stroke-linecap="round"
         id="path1" />
    </marker>
  </defs>
  <text
     transform="scale(.26458)"
     fill="#000000"
     font-family="'Fira Code'"
     font-size="26.667px"
     style="shape-inside:url(#rect2);white-space:pre"
     xml:space="preserve"
     id="text1" />
  <g
     fill="none"
     stroke-linejoin="bevel"
     stroke-width=".39688"
     id="g32">
    <rect
       x="44.893"
       y="20.794"
       width="9.4058"
       height="9.4058"
       stroke="#abb2bf"
       id="rect1" />
    <path
       d="m54.299 30.2 4.7029-4.7029v-9.4058"
       stroke="#abb2bf"
       id="path2" />
    <g
       stroke="#61afef"
       id="g6">
      <rect
         x="44.893"
         y="16.091"
         width="9.4058"
         height="4.7029"
         id="rect2" />
      <rect
         x="12.904"
         y="20.823"
         width="9.4058"
         height="9.4058"
         id="rect3" />
      <path
         d="m12.904 20.823 4.7029-4.7029h9.4058l-4.7029 4.7029"
         id="path3" />
      <path
         d="m22.31 30.229 4.7029-4.7029v-9.4058"
         id="path4" />
      <path
         d="m44.893 16.091 7.0543-7.0544h9.4058l-7.0543 7.0544z"
         id="path5" />
      <path
         d="m54.299 20.794 7.0543-7.0544v-4.7029"
         id="path6" />
    </g>
    <g
       stroke="#abb2bf"
       id="g10">
      <rect
         x="76.783"
         y="20.894"
         width="9.4058"
         height="9.4058"
         id="rect6" />
      <path
         d="m86.189 30.3 4.7029-4.7029v-9.4058"
         id="path7" />
      <rect
         x="76.783"
         y="16.192"
         width="9.4058"
         height="4.7029"
         id="rect7" />
      <path
         d="m76.783 16.192 7.0543-7.0544h9.4058l-7.0543 7.0544z"
         id="path8" />
      <path
         d="m86.189 20.894 7.0543-7.0544"
         id="path9" />
      <path
         d="m93.244 9.1372v4.7029"
         id="path10" />
    </g>
    <g
       stroke="#61afef"
       id="g13"
       transform="translate(-1e-4,-7e-4)">
      <path
         d="m 95.595,16.192 2.3367,-2.3367 h -4.7029 l -2.3514,2.3514 z"
         id="path12" />
      <path
         d="m 97.932,13.855 v 9.4058 l -2.3367,2.3367"
         id="path13" />
      <path
         style="fill:none;stroke:#61afef;stroke-width:0.353748;stroke-linejoin:bevel"
         d="m 90.891999,25.5978 4.703299,-2.91e-4 -2.64e-4,-9.4055"
         id="path32" />
    </g>
    <g
       stroke="#abb2bf"
       id="g16">
      <rect
         x="66.573"
         y="58.67"
         width="9.4058"
         height="9.4058"
         id="rect13" />
      <path
         d="m75.979 68.076 4.7029-4.7029v-9.4058"
         id="path14" />
      <rect
         x="66.573"
         y="53.968"
         width="9.4058"
         height="4.7029"
         id="rect14" />
      <path
         d="m66.573 53.968 7.0543-7.0544h9.4058l-7.0543 7.0544z"
         id="path15" />
      <path
         d="m80.682 53.968 1e-5 9.4058 4.7029 3e-6 1e-5 -9.4058z"
         id="path16" />
    </g>
    <path
       d="m85.392 49.257 2.3367-2.3367h-4.7029l-2.3514 2.3514z"
       stroke="#61afef"
       id="path17" />
    <path
       d="m87.722 51.631-1e-5 9.4058-2.3367 2.3367"
       stroke="#abb2bf"
       id="path18" />
    <path
       d="m80.682 53.968-4.7029 4.7029"
       stroke="#abb2bf"
       id="path19" />
    <path
       d="m80.675 49.272 7e-3 4.6955h4.7029l2.3367-2.3367 7e-3 -4.7103-2.3367 2.3367-7e-3 4.7103"
       stroke="#61afef"
       id="path20" />
    <g
       stroke="#abb2bf"
       id="g23">
      <rect
         x="23.739"
         y="58.778"
         width="9.4058"
         height="9.4058"
         id="rect20" />
      <rect
         x="23.739"
         y="54.075"
         width="9.4058"
         height="4.7029"
         id="rect21" />
      <path
         d="m23.739 54.075 7.0543-7.0544h9.4058l-7.0543 7.0544z"
         id="path21" />
      <path
         d="m42.557 49.365 2.3367-2.3367h-4.7029l-2.3514 2.3514z"
         id="path22" />
      <path
         d="m44.887 51.739-1e-5 9.4058-2.3367 2.3367"
         id="path23" />
    </g>
    <path
       d="m33.144 54.075h4.7029l4.7102-4.7103-7e-3 14.116-4.7029 4.7029-4.7029 1e-5"
       stroke="#61afef"
       id="path24" />
    <path
       d="m37.847 54.075 2.6e-4 14.109"
       stroke="#61afef"
       id="path25" />
    <path
       d="m42.55 54.075 2.3367-2.3367 7e-3 -4.7103"
       stroke="#abb2bf"
       id="path26" />
    <path
       d="m33.145 68.184-2.64e-4 -14.109 4.6955-4.6955 4.7176-0.01474"
       stroke="#61afef"
       id="path27" />
    <g
       stroke="#abb2bf"
       id="g31">
      <path
         d="m32.487 22.31h5.6213"
         marker-end="url(#ArrowWideRounded_Fnone_S-abb2bf)"
         id="path28" />
      <path
         d="m81.851 35.046v5.6213"
         marker-end="url(#ArrowWideRounded_Fnone_S-abb2bf)"
         id="path29" />
      <path
         d="m64.246 22.015h5.6213"
         marker-end="url(#ArrowWideRounded_Fnone_S-abb2bf)"
         id="path30" />
      <path
         d="m59.245 57.646h-5.6213"
         marker-end="url(#ArrowWideRounded_Fnone_S-abb2bf)"
         id="path31" />
    </g>
  </g>
</svg>
