<?xml version="1.0" encoding="UTF-8" standalone="no"?>
<!-- Created with Inkscape (http://www.inkscape.org/) -->

<svg
   width="750"
   height="1000"
   viewBox="0 0 198.43749 264.58334"
   version="1.1"
   id="svg1"
   inkscape:version="1.1.2 (0a00cf5339, 2022-02-04)"
   sodipodi:docname="cubetilings7.svg"
   inkscape:export-filename="Downloads/squashfs-root/lm1.png"
   inkscape:export-xdpi="96"
   inkscape:export-ydpi="96"
   xml:space="preserve"
   xmlns:inkscape="http://www.inkscape.org/namespaces/inkscape"
   xmlns:sodipodi="http://sodipodi.sourceforge.net/DTD/sodipodi-0.dtd"
   xmlns="http://www.w3.org/2000/svg"
   xmlns:svg="http://www.w3.org/2000/svg"><sodipodi:namedview
     id="namedview1"
     pagecolor="#000000"
     bordercolor="#000000"
     borderopacity="0.25"
     inkscape:showpageshadow="2"
     inkscape:pageopacity="0.0"
     inkscape:pagecheckerboard="0"
     inkscape:deskcolor="#d1d1d1"
     inkscape:document-units="px"
     inkscape:zoom="5.6568542"
     inkscape:cx="406.5864"
     inkscape:cy="443.7979"
     inkscape:window-width="1920"
     inkscape:window-height="1048"
     inkscape:window-x="0"
     inkscape:window-y="32"
     inkscape:window-maximized="1"
     inkscape:current-layer="text51"
     inkscape:pageshadow="2"
     showgrid="false" /><defs
     id="defs1"><rect
       x="250.38081"
       y="114.18461"
       width="14.653385"
       height="35.815392"
       id="rect68" /><inkscape:perspective
       sodipodi:type="inkscape:persp3d"
       inkscape:vp_x="6.6458454 : 225.52355 : 1"
       inkscape:vp_y="-3.4304647e-14 : 186.74582 : 0"
       inkscape:vp_z="132.51356 : 167.97489 : 1"
       inkscape:persp3d-origin="41.99393 : 157.42733 : 1"
       id="perspective9" /><rect
       x="337.85541"
       y="428.05759"
       width="78.049393"
       height="32.389961"
       id="rect2" /><marker
       style="overflow:visible"
       id="ArrowWideRounded_Fnone_S-abb2bf-2"
       refX="0"
       refY="0"
       orient="auto-start-reverse"
       inkscape:stockid="Wide, rounded arrow"
       markerWidth="1"
       markerHeight="1"
       viewBox="0 0 1 1"
       inkscape:isstock="true"
       inkscape:collect="always"
       preserveAspectRatio="xMidYMid"><path
         style="fill:none;stroke:#abb2bf;stroke-width:1;stroke-linecap:round"
         d="M 3,-3 0,0 3,3"
         transform="rotate(180,0.125,0)"
         sodipodi:nodetypes="ccc"
         id="path1-5" /></marker><marker
       style="overflow:visible"
       id="ArrowWideRounded_Fnone_S-abb2bf-2-9"
       refX="0"
       refY="0"
       orient="auto-start-reverse"
       inkscape:stockid="Wide, rounded arrow"
       markerWidth="1"
       markerHeight="1"
       viewBox="0 0 1 1"
       inkscape:isstock="true"
       inkscape:collect="always"
       preserveAspectRatio="xMidYMid"><path
         style="fill:none;stroke:#abb2bf;stroke-width:1;stroke-linecap:round"
         d="M 3,-3 0,0 3,3"
         transform="rotate(180,0.125,0)"
         sodipodi:nodetypes="ccc"
         id="path1-5-4" /></marker><marker
       style="overflow:visible"
       id="ArrowWideRounded_Fnone_S-abb2bf-2-9-3"
       refX="0"
       refY="0"
       orient="auto-start-reverse"
       inkscape:stockid="Wide, rounded arrow"
       markerWidth="1"
       markerHeight="1"
       viewBox="0 0 1 1"
       inkscape:isstock="true"
       inkscape:collect="always"
       preserveAspectRatio="xMidYMid"><path
         style="fill:none;stroke:#abb2bf;stroke-width:1;stroke-linecap:round"
         d="M 3,-3 0,0 3,3"
         transform="rotate(180,0.125,0)"
         sodipodi:nodetypes="ccc"
         id="path1-5-4-6" /></marker><marker
       style="overflow:visible"
       id="ArrowWideRounded_Fnone_S-abb2bf-2-9-33"
       refX="0"
       refY="0"
       orient="auto-start-reverse"
       inkscape:stockid="Wide, rounded arrow"
       markerWidth="1"
       markerHeight="1"
       viewBox="0 0 1 1"
       inkscape:isstock="true"
       inkscape:collect="always"
       preserveAspectRatio="xMidYMid"><path
         style="fill:none;stroke:#abb2bf;stroke-width:1;stroke-linecap:round"
         d="M 3,-3 0,0 3,3"
         transform="rotate(180,0.125,0)"
         sodipodi:nodetypes="ccc"
         id="path1-5-4-61" /></marker><marker
       style="overflow:visible"
       id="ArrowWideRounded_Fnone_S-abb2bf-2-5"
       refX="0"
       refY="0"
       orient="auto-start-reverse"
       inkscape:stockid="Wide, rounded arrow"
       markerWidth="1"
       markerHeight="1"
       viewBox="0 0 1 1"
       inkscape:isstock="true"
       inkscape:collect="always"
       preserveAspectRatio="xMidYMid"><path
         style="fill:none;stroke:#abb2bf;stroke-width:1;stroke-linecap:round"
         d="M 3,-3 0,0 3,3"
         transform="rotate(180,0.125,0)"
         sodipodi:nodetypes="ccc"
         id="path1-5-5" /></marker><marker
       style="overflow:visible"
       id="ArrowWideRounded_Fnone_S-abb2bf-2-9-6"
       refX="0"
       refY="0"
       orient="auto-start-reverse"
       inkscape:stockid="Wide, rounded arrow"
       markerWidth="1"
       markerHeight="1"
       viewBox="0 0 1 1"
       inkscape:isstock="true"
       inkscape:collect="always"
       preserveAspectRatio="xMidYMid"><path
         style="fill:none;stroke:#abb2bf;stroke-width:1;stroke-linecap:round"
         d="M 3,-3 0,0 3,3"
         transform="rotate(180,0.125,0)"
         sodipodi:nodetypes="ccc"
         id="path1-5-4-62" /></marker></defs><g
     inkscape:label="Layer 1"
     inkscape:groupmode="layer"
     id="layer1"><text
       xml:space="preserve"
       transform="scale(0.26458333)"
       id="text2"
       style="font-style:normal;font-variant:normal;font-weight:normal;font-stretch:normal;font-size:26.6667px;font-family:'Fira Code';-inkscape-font-specification:'Fira Code';white-space:pre;shape-inside:url(#rect2);display:inline;fill:#000000;fill-opacity:1;stroke:none;stroke-width:0.759685;stroke-dasharray:none;stroke-dashoffset:0.683717" /><text
       xml:space="preserve"
       transform="scale(0.26458334)"
       id="text68"
       style="font-style:normal;font-variant:normal;font-weight:normal;font-stretch:normal;font-size:16px;font-family:'Fira Code';-inkscape-font-specification:'Fira Code';white-space:pre;shape-inside:url(#rect68);display:inline;fill:#abb2bf;fill-opacity:1;stroke:none;stroke-width:1.5;stroke-linejoin:bevel;stroke-dasharray:none;stroke-dashoffset:0;stroke-opacity:1" /><g
       id="g44"
       style="stroke-width:0.529167;stroke-dasharray:none"
       transform="translate(-0.27493311,0.07752454)"><path
         style="fill:none;fill-opacity:1;stroke:#61afef;stroke-width:0.529167;stroke-linejoin:bevel;stroke-dasharray:none;stroke-dashoffset:0;stroke-opacity:1"
         d="M 30.637278,33.258616 H 11.825698"
         id="path123-6"
         sodipodi:nodetypes="cc" /><path
         style="fill:none;fill-opacity:1;stroke:#61afef;stroke-width:0.529167;stroke-linejoin:bevel;stroke-dasharray:none;stroke-dashoffset:0;stroke-opacity:1"
         d="M 11.825698,47.380256 V 19.136976"
         id="path125-6" /><path
         style="fill:none;fill-opacity:1;stroke:#61afef;stroke-width:0.529167;stroke-linejoin:bevel;stroke-dasharray:none;stroke-dashoffset:0;stroke-opacity:1"
         d="m 30.637278,19.136976 h -9.40579 v 28.24327"
         id="path84-3-7" /><path
         style="fill:none;stroke:#61afef;stroke-width:0.529167;stroke-linejoin:bevel;stroke-dasharray:none"
         d="m 30.637278,19.136986 v 28.24327 h -18.81158 v -28.24327 z"
         id="path2" /><path
         style="fill:none;fill-opacity:1;stroke:#61afef;stroke-width:0.529167;stroke-linejoin:bevel;stroke-dasharray:none;stroke-dashoffset:0;stroke-opacity:1"
         d="m 30.637278,47.380256 2.35145,-2.351453"
         id="path120-0-3" /><path
         style="fill:none;fill-opacity:1;stroke:#61afef;stroke-width:0.529167;stroke-linejoin:bevel;stroke-dasharray:none;stroke-dashoffset:0;stroke-opacity:1"
         d="m 11.825698,19.136986 2.35145,-2.351453"
         id="path120-0" /><path
         style="fill:none;fill-opacity:1;stroke:#61afef;stroke-width:0.529167;stroke-linejoin:bevel;stroke-dasharray:none;stroke-dashoffset:0;stroke-opacity:1"
         d="m 21.231488,19.136976 2.35145,-2.351453"
         id="path120-0-9" /><path
         style="fill:none;fill-opacity:1;stroke:#61afef;stroke-width:0.529167;stroke-linejoin:bevel;stroke-dasharray:none;stroke-dashoffset:0;stroke-opacity:1"
         d="m 30.637278,19.136976 2.35145,-2.351453"
         id="path120-0-8" /><path
         style="fill:none;fill-opacity:1;stroke:#61afef;stroke-width:0.529167;stroke-linejoin:bevel;stroke-dasharray:none;stroke-dashoffset:0;stroke-opacity:1"
         d="m 30.637278,33.258616 2.35145,-2.351453"
         id="path120-0-6" /><path
         style="fill:none;fill-opacity:1;stroke:#61afef;stroke-width:0.529167;stroke-linejoin:bevel;stroke-dasharray:none;stroke-dashoffset:0;stroke-opacity:1"
         d="m 32.988728,45.028803 4.7029,-4.702903"
         id="path58-4-44-5-1-2"
         sodipodi:nodetypes="cc" /><path
         style="fill:none;fill-opacity:1;stroke:#61afef;stroke-width:0.529167;stroke-linejoin:bevel;stroke-dasharray:none;stroke-dashoffset:0;stroke-opacity:1"
         d="m 37.691628,40.3259 4.7029,-4.702903"
         id="path58-4-44-5-1-4"
         sodipodi:nodetypes="cc" /><path
         style="fill:none;stroke:#61afef;stroke-width:0.529167;stroke-linejoin:bevel;stroke-dasharray:none;stroke-opacity:1"
         d="M 32.988728,45.028802 V 16.785523 l -18.81158,1.1e-5"
         id="path3" /><path
         style="fill:none;stroke:#61afef;stroke-width:0.529167;stroke-linejoin:bevel;stroke-dasharray:none;stroke-opacity:1"
         d="M 37.691628,40.3259 V 12.082621 l -18.81158,1.1e-5"
         id="path3-4" /><path
         style="fill:none;stroke:#61afef;stroke-width:0.529167;stroke-linejoin:bevel;stroke-dasharray:none;stroke-opacity:1"
         d="M 42.394528,35.622997 V 7.3797185 l -18.81158,1.1e-5"
         id="path3-3" /><path
         style="fill:none;stroke:#61afef;stroke-width:0.529167;stroke-linejoin:bevel;stroke-dasharray:none;stroke-opacity:1"
         d="m 14.177148,16.785534 9.4058,-9.4058045"
         id="path4" /><path
         style="fill:none;stroke:#61afef;stroke-width:0.529167;stroke-linejoin:bevel;stroke-dasharray:none;stroke-opacity:1"
         d="m 42.394528,7.3797185 -9.4058,9.4058045"
         id="path5" /></g><g
       id="g45"
       transform="translate(12.049239,-0.2134982)"
       style="stroke-width:0.529167;stroke-dasharray:none"><path
         style="fill:none;fill-opacity:1;stroke:#abb2bf;stroke-width:0.529167;stroke-linejoin:bevel;stroke-dasharray:none;stroke-dashoffset:0;stroke-opacity:1"
         d="M 75.366603,33.472127 H 56.555023"
         id="path123-6-5"
         sodipodi:nodetypes="cc" /><path
         style="fill:none;fill-opacity:1;stroke:#abb2bf;stroke-width:0.529167;stroke-linejoin:bevel;stroke-dasharray:none;stroke-dashoffset:0;stroke-opacity:1"
         d="M 56.555023,47.593767 V 19.350487"
         id="path125-6-1" /><path
         style="fill:none;fill-opacity:1;stroke:#abb2bf;stroke-width:0.529167;stroke-linejoin:bevel;stroke-dasharray:none;stroke-dashoffset:0;stroke-opacity:1"
         d="m 75.366603,19.350487 h -9.40579 v 28.24327"
         id="path84-3-7-4" /><path
         style="fill:none;stroke:#abb2bf;stroke-width:0.529167;stroke-linejoin:bevel;stroke-dasharray:none;stroke-opacity:1"
         d="m 75.366603,19.350497 v 28.24327 h -18.81158 v -28.24327 z"
         id="path2-8" /><path
         style="fill:none;fill-opacity:1;stroke:#abb2bf;stroke-width:0.529167;stroke-linejoin:bevel;stroke-dasharray:none;stroke-dashoffset:0;stroke-opacity:1"
         d="m 56.555023,19.350497 2.35145,-2.35145"
         id="path120-0-0" /><path
         style="fill:none;fill-opacity:1;stroke:#abb2bf;stroke-width:0.529167;stroke-linejoin:bevel;stroke-dasharray:none;stroke-dashoffset:0;stroke-opacity:1"
         d="m 65.960813,19.350487 2.35145,-2.35145"
         id="path120-0-9-1" /><path
         style="fill:none;stroke:#abb2bf;stroke-width:0.529167;stroke-linejoin:bevel;stroke-dasharray:none;stroke-opacity:1"
         d="m 58.906473,16.999047 9.4058,-9.4058003"
         id="path4-2" /><path
         style="fill:none;stroke:#61afef;stroke-width:0.529167;stroke-linejoin:bevel;stroke-dasharray:none;stroke-opacity:1"
         d="m 75.366603,33.472127 h 9.40579 v 14.12163 l -9.40579,1e-5 z"
         id="path6" /><path
         style="fill:none;stroke:#abb2bf;stroke-width:0.529167;stroke-linejoin:bevel;stroke-dasharray:none;stroke-opacity:1"
         d="m 58.906473,16.999047 h 18.81157"
         id="path7" /><path
         style="fill:none;stroke:#abb2bf;stroke-width:0.529167;stroke-linejoin:bevel;stroke-dasharray:none;stroke-opacity:1"
         d="M 82.420953,12.296137 H 63.609383"
         id="path8" /><path
         style="fill:none;stroke:#abb2bf;stroke-width:0.529167;stroke-linejoin:bevel;stroke-dasharray:none;stroke-opacity:1"
         d="M 87.123843,7.5932467 H 68.312273"
         id="path8-8" /><rect
         style="fill:none;stroke:#61afef;stroke-width:0.529167;stroke-linejoin:bevel;stroke-dasharray:none;stroke-opacity:1"
         id="rect8"
         width="9.4057894"
         height="14.121639"
         x="75.3666"
         y="19.350489" /><path
         style="fill:none;stroke:#61afef;stroke-width:0.529167;stroke-linejoin:bevel;stroke-dasharray:none;stroke-opacity:1"
         d="M 84.772393,19.350487 96.529643,7.5932167"
         id="path9" /><path
         style="fill:none;stroke:#61afef;stroke-width:0.529167;stroke-linejoin:bevel;stroke-dasharray:none;stroke-opacity:1"
         d="m 84.772393,47.593757 11.75725,-11.75727"
         id="path9-2" /><path
         style="fill:none;stroke:#61afef;stroke-width:0.529167;stroke-linejoin:bevel;stroke-dasharray:none;stroke-opacity:1"
         d="m 87.123853,7.5932167 h 9.40579 V 35.836487"
         id="path10"
         sodipodi:nodetypes="ccc" /><path
         style="fill:none;stroke:#61afef;stroke-width:0.529167;stroke-linejoin:bevel;stroke-dasharray:none;stroke-opacity:1"
         d="m 77.718053,16.999037 h 9.40579 v 28.24327"
         id="path11" /><path
         style="fill:none;stroke:#61afef;stroke-width:0.529167;stroke-linejoin:bevel;stroke-dasharray:none;stroke-opacity:1"
         d="m 84.772393,33.472127 2.35145,-2.35145"
         id="path12" /><path
         style="fill:none;stroke:#61afef;stroke-width:0.529167;stroke-linejoin:bevel;stroke-dasharray:none;stroke-opacity:1"
         d="M 75.366603,19.350487 87.123853,7.5932167"
         id="path14" /></g><g
       id="g46"
       transform="translate(20.8419,0.7506134)"
       style="stroke-width:0.529167;stroke-dasharray:none"><g
         id="g51"
         style="stroke-width:0.529167;stroke-dasharray:none"><path
           style="fill:none;fill-opacity:1;stroke:#abb2bf;stroke-width:0.529167;stroke-linejoin:bevel;stroke-dasharray:none;stroke-dashoffset:0;stroke-opacity:1"
           d="m 124.97571,18.386385 2.35145,-2.35145"
           id="path120-0-0-4" /><path
           style="fill:none;fill-opacity:1;stroke:#abb2bf;stroke-width:0.529167;stroke-linejoin:bevel;stroke-dasharray:none;stroke-dashoffset:0;stroke-opacity:1"
           d="m 134.3815,18.386375 2.35145,-2.35145"
           id="path120-0-9-1-6" /><path
           style="fill:none;stroke:#abb2bf;stroke-width:0.529167;stroke-linejoin:bevel;stroke-dasharray:none;stroke-opacity:1"
           d="m 127.32716,16.034935 9.4058,-9.4057999"
           id="path4-2-5" /><path
           style="fill:none;stroke:#abb2bf;stroke-width:0.529167;stroke-linejoin:bevel;stroke-dasharray:none;stroke-opacity:1"
           d="m 127.32716,16.034935 h 18.81157"
           id="path7-6" /><path
           style="fill:none;stroke:#abb2bf;stroke-width:0.529167;stroke-linejoin:bevel;stroke-dasharray:none;stroke-opacity:1"
           d="M 150.84164,11.332025 H 132.03007"
           id="path8-4" /><path
           style="fill:none;stroke:#abb2bf;stroke-width:0.529167;stroke-linejoin:bevel;stroke-dasharray:none;stroke-opacity:1"
           d="M 155.54453,6.6291351 H 136.73296"
           id="path8-8-0" /><path
           style="fill:none;stroke:#abb2bf;stroke-width:0.529167;stroke-linejoin:bevel;stroke-dasharray:none;stroke-opacity:1"
           d="M 153.19308,18.386375 164.95033,6.6291051"
           id="path9-5" /><path
           style="fill:none;stroke:#abb2bf;stroke-width:0.529167;stroke-linejoin:bevel;stroke-dasharray:none;stroke-opacity:1"
           d="m 153.19308,46.629649 11.75725,-11.75727"
           id="path9-2-8" /><path
           style="fill:none;stroke:#abb2bf;stroke-width:0.529167;stroke-linejoin:bevel;stroke-dasharray:none;stroke-opacity:1"
           d="m 155.54454,6.6291051 h 9.40579 V 34.872379"
           id="path10-4"
           sodipodi:nodetypes="ccc" /><path
           style="fill:none;stroke:#abb2bf;stroke-width:0.529167;stroke-linejoin:bevel;stroke-dasharray:none;stroke-opacity:1"
           d="m 146.13874,16.034925 h 9.40579 v 28.243274"
           id="path11-3" /><path
           style="fill:none;stroke:#abb2bf;stroke-width:0.529167;stroke-linejoin:bevel;stroke-dasharray:none;stroke-opacity:1"
           d="m 153.19308,32.508019 2.35145,-2.35145"
           id="path12-3" /><path
           style="fill:none;stroke:#abb2bf;stroke-width:0.529167;stroke-linejoin:bevel;stroke-dasharray:none;stroke-opacity:1"
           d="M 143.78729,18.386375 155.54454,6.6291051"
           id="path14-4" /><path
           style="fill:none;stroke:#61afef;stroke-width:0.529167;stroke-linejoin:bevel;stroke-dasharray:none;stroke-opacity:1"
           d="m 124.97571,18.386385 28.21737,-10e-6 v 28.243274"
           id="path15" /><path
           style="fill:none;stroke:#61afef;stroke-width:0.529167;stroke-linejoin:bevel;stroke-dasharray:none;stroke-opacity:1"
           d="m 124.97571,18.386385 -9.4058,9.405824"
           id="path18" /><path
           style="fill:none;stroke:#61afef;stroke-width:0.529167;stroke-linejoin:bevel;stroke-dasharray:none;stroke-opacity:1"
           d="m 153.19308,46.629649 -9.4058,9.40582"
           id="path18-5" /><rect
           style="fill:none;stroke:#61afef;stroke-width:0.529167;stroke-linejoin:bevel;stroke-dasharray:none;stroke-opacity:1"
           id="rect18"
           width="28.217371"
           height="28.243259"
           x="115.56992"
           y="27.792196" /><path
           style="fill:none;stroke:#61afef;stroke-width:0.529167;stroke-linejoin:bevel;stroke-dasharray:none;stroke-opacity:1"
           d="m 153.19308,18.386375 -9.40579,9.405834"
           id="path19" /><path
           style="fill:none;stroke:#61afef;stroke-width:0.529167;stroke-linejoin:bevel;stroke-dasharray:none;stroke-opacity:1"
           d="m 143.7873,18.386375 h 9.40578"
           id="path20" /><path
           style="fill:none;stroke:#61afef;stroke-width:0.529167;stroke-linejoin:bevel;stroke-dasharray:none;stroke-opacity:1"
           d="m 134.38151,27.792209 9.40579,-9.405834"
           id="path21" /><path
           style="fill:none;stroke:#61afef;stroke-width:0.529167;stroke-linejoin:bevel;stroke-dasharray:none;stroke-opacity:1"
           d="m 134.38151,27.792209 v 28.24326"
           id="path22" /><path
           style="fill:none;stroke:#61afef;stroke-width:0.529167;stroke-linejoin:bevel;stroke-dasharray:none;stroke-opacity:1"
           d="m 120.27281,23.089299 18.81159,-10e-6"
           id="path23" /></g></g><g
       id="g47"
       transform="translate(-57.062075,72.49906)"
       style="stroke-width:0.529167;stroke-dasharray:none"><path
         style="fill:none;fill-opacity:1;stroke:#abb2bf;stroke-width:0.529167;stroke-linejoin:bevel;stroke-dasharray:none;stroke-dashoffset:0;stroke-opacity:1"
         d="m 202.80219,20.92768 2.35145,-2.35145"
         id="path120-0-0-4-9" /><path
         style="fill:none;fill-opacity:1;stroke:#abb2bf;stroke-width:0.529167;stroke-linejoin:bevel;stroke-dasharray:none;stroke-dashoffset:0;stroke-opacity:1"
         d="m 212.20798,20.92767 2.35145,-2.35145"
         id="path120-0-9-1-6-4" /><path
         style="fill:none;stroke:#abb2bf;stroke-width:0.529167;stroke-linejoin:bevel;stroke-dasharray:none;stroke-opacity:1"
         d="m 205.15364,18.57623 9.4058,-9.4057995"
         id="path4-2-5-2" /><path
         style="fill:none;stroke:#abb2bf;stroke-width:0.529167;stroke-linejoin:bevel;stroke-dasharray:none;stroke-opacity:1"
         d="m 205.15364,18.57623 h 18.81157"
         id="path7-6-6" /><path
         style="fill:none;stroke:#abb2bf;stroke-width:0.529167;stroke-linejoin:bevel;stroke-dasharray:none;stroke-opacity:1"
         d="M 228.66812,13.873321 H 209.85655"
         id="path8-4-2" /><path
         style="fill:none;stroke:#abb2bf;stroke-width:0.529167;stroke-linejoin:bevel;stroke-dasharray:none;stroke-opacity:1"
         d="M 233.37101,9.1704305 H 214.55944"
         id="path8-8-0-9" /><path
         style="fill:none;stroke:#abb2bf;stroke-width:0.529167;stroke-linejoin:bevel;stroke-dasharray:none;stroke-opacity:1"
         d="M 231.01956,20.92767 242.77681,9.1704005"
         id="path9-5-2" /><path
         style="fill:none;stroke:#abb2bf;stroke-width:0.529167;stroke-linejoin:bevel;stroke-dasharray:none;stroke-opacity:1"
         d="M 231.01956,49.17094 242.77681,37.41367"
         id="path9-2-8-8" /><path
         style="fill:none;stroke:#abb2bf;stroke-width:0.529167;stroke-linejoin:bevel;stroke-dasharray:none;stroke-opacity:1"
         d="m 233.37102,9.1704005 h 9.40579 V 37.41367"
         id="path10-4-0"
         sodipodi:nodetypes="ccc" /><path
         style="fill:none;stroke:#abb2bf;stroke-width:0.529167;stroke-linejoin:bevel;stroke-dasharray:none;stroke-opacity:1"
         d="m 223.96522,18.57622 h 9.40579 v 28.24327"
         id="path11-3-9" /><path
         style="fill:none;stroke:#abb2bf;stroke-width:0.529167;stroke-linejoin:bevel;stroke-dasharray:none;stroke-opacity:1"
         d="m 231.01956,35.04931 2.35145,-2.35145"
         id="path12-3-3" /><path
         style="fill:none;stroke:#abb2bf;stroke-width:0.529167;stroke-linejoin:bevel;stroke-dasharray:none;stroke-opacity:1"
         d="M 221.61377,20.92767 233.37102,9.1704005"
         id="path14-4-0" /><path
         style="fill:none;stroke:#abb2bf;stroke-width:0.529167;stroke-linejoin:bevel;stroke-dasharray:none;stroke-opacity:1"
         d="m 202.80219,20.92768 28.21737,-10e-6 v 28.24327"
         id="path15-3" /><path
         style="fill:none;stroke:#abb2bf;stroke-width:0.529167;stroke-linejoin:bevel;stroke-dasharray:none;stroke-opacity:1"
         d="m 202.80219,20.92768 -9.4058,9.40582"
         id="path18-8" /><path
         style="fill:none;stroke:#abb2bf;stroke-width:0.529167;stroke-linejoin:bevel;stroke-dasharray:none;stroke-opacity:1"
         d="m 231.01956,49.17094 -9.4058,9.40582"
         id="path18-5-3" /><path
         style="fill:none;stroke:#abb2bf;stroke-width:0.529167;stroke-linejoin:bevel;stroke-dasharray:none;stroke-opacity:1"
         d="m 231.01956,20.92767 -9.40579,9.40583"
         id="path19-7" /><path
         style="fill:none;stroke:#abb2bf;stroke-width:0.529167;stroke-linejoin:bevel;stroke-dasharray:none;stroke-opacity:1"
         d="m 221.61378,20.92767 h 9.40578"
         id="path20-7" /><path
         style="fill:none;stroke:#abb2bf;stroke-width:0.529167;stroke-linejoin:bevel;stroke-dasharray:none;stroke-opacity:1"
         d="m 212.20799,30.3335 9.40579,-9.40583"
         id="path21-7" /><path
         style="fill:none;stroke:#abb2bf;stroke-width:0.529167;stroke-linejoin:bevel;stroke-dasharray:none;stroke-opacity:1"
         d="m 198.09929,25.63059 18.81159,-1e-5"
         id="path23-0" /><rect
         style="fill:none;stroke:#61afef;stroke-width:0.529167;stroke-linejoin:bevel;stroke-dasharray:none;stroke-opacity:1"
         id="rect24"
         width="28.217369"
         height="28.243259"
         x="172.23335"
         y="51.496593" /><path
         style="fill:none;stroke:#61afef;stroke-width:0.529167;stroke-linejoin:bevel;stroke-dasharray:none;stroke-opacity:1"
         d="m 193.39639,30.3335 h 28.21738 l -10e-6,28.24326"
         id="path24" /><path
         style="fill:none;stroke:#61afef;stroke-width:0.529167;stroke-linejoin:bevel;stroke-dasharray:none;stroke-opacity:1"
         d="M 200.45073,51.4966 221.61377,30.3335"
         id="path25" /><path
         style="fill:none;stroke:#61afef;stroke-width:0.529167;stroke-linejoin:bevel;stroke-dasharray:none;stroke-opacity:1"
         d="M 193.39639,30.3335 172.23336,51.4966"
         id="path26" /><path
         style="fill:none;stroke:#61afef;stroke-width:0.529167;stroke-linejoin:bevel;stroke-dasharray:none;stroke-opacity:1"
         d="m 200.45073,79.73986 21.16303,-21.1631"
         id="path27" /><path
         style="fill:none;stroke:#61afef;stroke-width:0.529167;stroke-linejoin:bevel;stroke-dasharray:none;stroke-opacity:1"
         d="m 172.23336,65.61823 h 28.21737 l 21.16303,-21.1631"
         id="path28" /></g><g
       id="g49"
       transform="matrix(0.49983044,0,0,0.49969545,-0.42258191,65.356016)"
       style="stroke-width:1.05884;stroke-dasharray:none"><path
         style="fill:none;fill-opacity:1;stroke:#abb2bf;stroke-width:1.05884;stroke-linejoin:bevel;stroke-dasharray:none;stroke-dashoffset:0;stroke-opacity:1"
         d="m 49.323805,86.799128 2.35145,-2.35145"
         id="path120-0-0-4-9-8" /><path
         style="fill:none;fill-opacity:1;stroke:#abb2bf;stroke-width:1.05884;stroke-linejoin:bevel;stroke-dasharray:none;stroke-dashoffset:0;stroke-opacity:1"
         d="m 58.729595,86.799118 2.35145,-2.35145"
         id="path120-0-9-1-6-4-1" /><path
         style="fill:none;stroke:#abb2bf;stroke-width:1.05884;stroke-linejoin:bevel;stroke-dasharray:none;stroke-opacity:1"
         d="m 51.675255,84.447678 9.4058,-9.4058"
         id="path4-2-5-2-4" /><path
         style="fill:none;stroke:#abb2bf;stroke-width:1.05884;stroke-linejoin:bevel;stroke-dasharray:none;stroke-opacity:1"
         d="m 51.675255,84.447678 h 18.81157"
         id="path7-6-6-8" /><path
         style="fill:none;stroke:#abb2bf;stroke-width:1.05884;stroke-linejoin:bevel;stroke-dasharray:none;stroke-opacity:1"
         d="M 75.189735,79.744768 H 56.378165"
         id="path8-4-2-8" /><path
         style="fill:none;stroke:#abb2bf;stroke-width:1.05884;stroke-linejoin:bevel;stroke-dasharray:none;stroke-opacity:1"
         d="M 79.892625,75.041878 H 61.081055"
         id="path8-8-0-9-6" /><path
         style="fill:none;stroke:#abb2bf;stroke-width:1.05884;stroke-linejoin:bevel;stroke-dasharray:none;stroke-opacity:1"
         d="m 68.135385,86.799118 11.75725,-11.75727"
         id="path14-4-0-6" /><path
         style="fill:none;stroke:#abb2bf;stroke-width:1.05884;stroke-linejoin:bevel;stroke-dasharray:none;stroke-opacity:1"
         d="m 49.323805,86.799128 -9.405797,9.40582"
         id="path18-8-8" /><path
         style="fill:none;stroke:#abb2bf;stroke-width:1.05884;stroke-linejoin:bevel;stroke-dasharray:none;stroke-opacity:1"
         d="m 68.135395,86.799118 h 9.40578"
         id="path20-7-8" /><path
         style="fill:none;stroke:#abb2bf;stroke-width:1.05884;stroke-linejoin:bevel;stroke-dasharray:none;stroke-opacity:1"
         d="m 58.729605,96.204948 9.40579,-9.40583"
         id="path21-7-8" /><path
         style="fill:none;stroke:#abb2bf;stroke-width:1.05884;stroke-linejoin:bevel;stroke-dasharray:none;stroke-opacity:1"
         d="m 44.620905,91.502038 18.81159,-1e-5"
         id="path23-0-4" /><path
         style="fill:none;stroke:#abb2bf;stroke-width:1.05884;stroke-linejoin:bevel;stroke-dasharray:none;stroke-opacity:1"
         d="M 39.918009,96.204948 18.754978,117.36805"
         id="path26-3" /><path
         style="fill:none;stroke:#abb2bf;stroke-width:1.05884;stroke-linejoin:bevel;stroke-dasharray:none;stroke-opacity:1"
         d="M 18.754979,131.48968 H 46.972348"
         id="path29" /><path
         style="fill:none;stroke:#abb2bf;stroke-width:1.05884;stroke-linejoin:bevel;stroke-dasharray:none;stroke-opacity:1"
         d="M 46.972348,117.36806 H 18.754979 v 28.24325 h 28.217366"
         id="path30" /><path
         style="fill:none;stroke:#abb2bf;stroke-width:1.05884;stroke-linejoin:bevel;stroke-dasharray:none;stroke-opacity:1"
         d="M 39.918009,96.204948 H 68.135384"
         id="path31" /><path
         style="fill:none;stroke:#abb2bf;stroke-width:1.05884;stroke-linejoin:bevel;stroke-dasharray:none;stroke-opacity:1"
         d="M 70.486826,84.447678 H 79.89261"
         id="path32" /><path
         style="fill:none;stroke:#abb2bf;stroke-width:1.05884;stroke-linejoin:bevel;stroke-dasharray:none;stroke-opacity:1"
         d="m 79.892626,75.041878 h 9.405768"
         id="path33" /><path
         style="fill:none;stroke:#abb2bf;stroke-width:1.05884;stroke-linejoin:bevel;stroke-dasharray:none;stroke-opacity:1"
         d="M 68.135384,86.799118 H 49.323816"
         id="path34" /><path
         style="fill:none;stroke:#61afef;stroke-width:1.05884;stroke-linejoin:bevel;stroke-dasharray:none;stroke-opacity:1"
         d="M 46.972345,145.61131 H 103.40707"
         id="path36" /><path
         style="fill:none;stroke:#61afef;stroke-width:1.05884;stroke-linejoin:bevel;stroke-dasharray:none;stroke-opacity:1"
         d="m 46.972348,117.36806 -3e-6,28.24325"
         id="path37" /><path
         style="fill:none;stroke:#61afef;stroke-width:1.05884;stroke-linejoin:bevel;stroke-dasharray:none;stroke-opacity:1"
         d="M 46.972348,117.36806 H 103.40708"
         id="path36-8" /><path
         style="fill:none;stroke:#61afef;stroke-width:1.05884;stroke-linejoin:bevel;stroke-dasharray:none;stroke-opacity:1"
         d="M 46.972348,117.36806 89.298394,75.041878"
         id="path38" /><path
         style="fill:none;stroke:#61afef;stroke-width:1.05884;stroke-linejoin:bevel;stroke-dasharray:none;stroke-opacity:1"
         d="M 89.298394,75.041878 H 145.73312"
         id="path36-8-3" /><path
         style="fill:none;stroke:#61afef;stroke-width:1.05884;stroke-linejoin:bevel;stroke-dasharray:none;stroke-opacity:1"
         d="M 103.40708,117.36806 145.73312,75.041878"
         id="path38-0" /><path
         style="fill:none;stroke:#61afef;stroke-width:1.05884;stroke-linejoin:bevel;stroke-dasharray:none;stroke-opacity:1"
         d="m 103.40707,145.61131 42.32605,-42.32618"
         id="path38-3" /><path
         style="fill:none;stroke:#61afef;stroke-width:1.05884;stroke-linejoin:bevel;stroke-dasharray:none;stroke-opacity:1"
         d="m 103.40708,117.36806 -10e-6,28.24325"
         id="path39" /><path
         style="fill:none;stroke:#61afef;stroke-width:1.05884;stroke-linejoin:bevel;stroke-dasharray:none;stroke-opacity:1"
         d="M 145.73312,75.041878 V 103.28513"
         id="path40" /></g><path
       style="fill:none;fill-opacity:1;stroke:#abb2bf;stroke-width:0.729099;stroke-linejoin:bevel;stroke-dasharray:none;stroke-dashoffset:0;stroke-opacity:1;marker-end:url(#ArrowWideRounded_Fnone_S-abb2bf-2)"
       d="M 160.05859,66.004802 V 74.43663"
       id="path55-3-7"
       sodipodi:nodetypes="cc" /><g
       id="g48"
       transform="matrix(0.4998306,0,0,0.49983155,-55.540928,112.97485)"
       style="stroke-width:1.05869;stroke-dasharray:none"><path
         style="fill:none;stroke:#abb2bf;stroke-width:1.05869;stroke-linejoin:bevel;stroke-dasharray:none;stroke-opacity:1"
         d="m 129.02896,233.89551 h 28.21737"
         id="path29-5" /><path
         style="fill:none;stroke:#abb2bf;stroke-width:1.05869;stroke-linejoin:bevel;stroke-dasharray:none;stroke-opacity:1"
         d="m 157.24633,219.77389 h -28.21737 v 28.24325 h 28.21736"
         id="path30-1" /><path
         style="fill:none;stroke:#abb2bf;stroke-width:1.05869;stroke-linejoin:bevel;stroke-dasharray:none;stroke-opacity:1"
         d="m 157.24632,248.01714 h 56.43473"
         id="path36-9" /><path
         style="fill:none;stroke:#abb2bf;stroke-width:1.05869;stroke-linejoin:bevel;stroke-dasharray:none;stroke-opacity:1"
         d="m 157.24633,219.77389 -1e-5,28.24325"
         id="path37-9" /><path
         style="fill:none;stroke:#abb2bf;stroke-width:1.05869;stroke-linejoin:bevel;stroke-dasharray:none;stroke-opacity:1"
         d="m 157.24633,219.77389 h 56.43473"
         id="path36-8-33" /><path
         style="fill:none;stroke:#61afef;stroke-width:1.05869;stroke-linejoin:bevel;stroke-dasharray:none;stroke-opacity:1"
         d="m 157.24633,219.77389 42.32604,-42.32618"
         id="path38-6" /><path
         style="fill:none;stroke:#abb2bf;stroke-width:1.05869;stroke-linejoin:bevel;stroke-dasharray:none;stroke-opacity:1"
         d="M 199.57237,177.44771 H 256.0071"
         id="path36-8-3-8" /><path
         style="fill:none;stroke:#abb2bf;stroke-width:1.05869;stroke-linejoin:bevel;stroke-dasharray:none;stroke-opacity:1"
         d="M 213.68106,219.77389 256.0071,177.44771"
         id="path38-0-5" /><path
         style="fill:none;stroke:#abb2bf;stroke-width:1.05869;stroke-linejoin:bevel;stroke-dasharray:none;stroke-opacity:1"
         d="M 213.68105,248.01714 256.0071,205.69096"
         id="path38-3-1" /><path
         style="fill:none;stroke:#abb2bf;stroke-width:1.05869;stroke-linejoin:bevel;stroke-dasharray:none;stroke-opacity:1"
         d="m 213.68106,219.77389 -1e-5,28.24325"
         id="path39-7" /><path
         style="fill:none;stroke:#abb2bf;stroke-width:1.05869;stroke-linejoin:bevel;stroke-dasharray:none;stroke-opacity:1"
         d="m 256.0071,177.44771 v 28.24325"
         id="path40-4" /><rect
         style="fill:none;stroke:#61afef;stroke-width:1.05869;stroke-linejoin:bevel;stroke-dasharray:none;stroke-opacity:1"
         id="rect40"
         width="56.434719"
         height="28.24325"
         x="163.33917"
         y="-157.2722"
         transform="rotate(90)" /><path
         style="fill:none;stroke:#61afef;stroke-width:1.05869;stroke-linejoin:bevel;stroke-dasharray:none;stroke-opacity:1"
         d="m 129.02895,163.33917 42.30017,-42.32618 h 28.24325 l -42.30017,42.32618"
         id="path41" /><path
         style="fill:none;stroke:#61afef;stroke-width:1.05869;stroke-linejoin:bevel;stroke-dasharray:none;stroke-opacity:1"
         d="m 199.57237,121.01299 v 56.43472"
         id="path42" /></g><g
       id="g50"
       transform="matrix(0.49983074,0,0,0.49983155,-46.390946,149.45848)"
       style="stroke-width:1.05869;stroke-dasharray:none"><path
         style="fill:none;stroke:#abb2bf;stroke-width:1.05869;stroke-linejoin:bevel;stroke-dasharray:none;stroke-opacity:1"
         d="m 313.82054,160.90366 h 28.21737"
         id="path29-5-1" /><path
         style="fill:none;stroke:#abb2bf;stroke-width:1.05869;stroke-linejoin:bevel;stroke-dasharray:none;stroke-opacity:1"
         d="m 342.03791,146.78204 h -28.21737 v 28.24325 h 28.21736"
         id="path30-1-6" /><path
         style="fill:none;stroke:#abb2bf;stroke-width:1.05869;stroke-linejoin:bevel;stroke-dasharray:none;stroke-opacity:1"
         d="m 342.0379,175.02529 h 56.43473"
         id="path36-9-7" /><path
         style="fill:none;stroke:#abb2bf;stroke-width:1.05869;stroke-linejoin:bevel;stroke-dasharray:none;stroke-opacity:1"
         d="m 342.03791,146.78204 -1e-5,28.24325"
         id="path37-9-0" /><path
         style="fill:none;stroke:#abb2bf;stroke-width:1.05869;stroke-linejoin:bevel;stroke-dasharray:none;stroke-opacity:1"
         d="m 342.03791,146.78204 h 56.43473"
         id="path36-8-33-0" /><path
         style="fill:none;stroke:#abb2bf;stroke-width:1.05869;stroke-linejoin:bevel;stroke-dasharray:none;stroke-opacity:1"
         d="m 398.47263,175.02529 42.32605,-42.32618"
         id="path38-3-1-8" /><path
         style="fill:none;stroke:#abb2bf;stroke-width:1.05869;stroke-linejoin:bevel;stroke-dasharray:none;stroke-opacity:1"
         d="m 398.47264,146.78204 -1e-5,28.24325"
         id="path39-7-2" /><path
         style="fill:none;stroke:#abb2bf;stroke-width:1.05869;stroke-linejoin:bevel;stroke-dasharray:none;stroke-opacity:1"
         d="m 440.79868,104.45586 v 28.24325"
         id="path40-4-9" /><rect
         style="fill:none;stroke:#abb2bf;stroke-width:1.05869;stroke-linejoin:bevel;stroke-dasharray:none;stroke-opacity:1"
         id="rect40-3"
         width="56.434719"
         height="28.24325"
         x="90.347328"
         y="-342.06375"
         transform="rotate(90)" /><path
         style="fill:none;stroke:#abb2bf;stroke-width:1.05869;stroke-linejoin:bevel;stroke-dasharray:none;stroke-opacity:1"
         d="m 313.82053,90.347322 42.30017,-42.32618 h 28.24325 l -42.30017,42.32618"
         id="path41-6" /><rect
         style="fill:none;stroke:#61afef;stroke-width:1.05869;stroke-linejoin:bevel;stroke-dasharray:none;stroke-opacity:1"
         id="rect42"
         width="28.217415"
         height="56.434711"
         x="342.06378"
         y="90.347321" /><rect
         style="fill:none;stroke:#61afef;stroke-width:1.05869;stroke-linejoin:bevel;stroke-dasharray:none;stroke-opacity:1"
         id="rect40-3-7"
         width="56.434719"
         height="28.24325"
         x="90.347321"
         y="-398.52444"
         transform="rotate(90)" /><path
         style="fill:none;stroke:#61afef;stroke-width:1.05869;stroke-linejoin:bevel;stroke-dasharray:none;stroke-opacity:1"
         d="M 398.52444,90.347321 440.8505,48.021141"
         id="path43" /><path
         style="fill:none;stroke:#61afef;stroke-width:1.05869;stroke-linejoin:bevel;stroke-dasharray:none;stroke-opacity:1"
         d="M 398.52444,146.78204 440.8505,104.45586"
         id="path43-5" /><path
         style="fill:none;stroke:#61afef;stroke-width:1.05869;stroke-linejoin:bevel;stroke-dasharray:none;stroke-opacity:1"
         d="M 440.85049,104.45586 V 48.021141 h -56.48653 l -42.30021,42.326187"
         id="path44" /></g><path
       style="fill:none;fill-opacity:1;stroke:#abb2bf;stroke-width:0.729099;stroke-linejoin:bevel;stroke-dasharray:none;stroke-dashoffset:0;stroke-opacity:1;marker-end:url(#ArrowWideRounded_Fnone_S-abb2bf-2-9)"
       d="m 86.877894,208.72725 h 8.431828"
       id="path55-3-7-5"
       sodipodi:nodetypes="cc" /><path
       style="fill:none;fill-opacity:1;stroke:#abb2bf;stroke-width:0.729099;stroke-linejoin:bevel;stroke-dasharray:none;stroke-dashoffset:0;stroke-opacity:1;marker-end:url(#ArrowWideRounded_Fnone_S-abb2bf-2-9-3)"
       d="M 50.333402,28.330062 H 58.76523"
       id="path55-3-7-5-2"
       sodipodi:nodetypes="cc" /><path
       style="fill:none;fill-opacity:1;stroke:#abb2bf;stroke-width:0.729099;stroke-linejoin:bevel;stroke-dasharray:none;stroke-dashoffset:0;stroke-opacity:1;marker-end:url(#ArrowWideRounded_Fnone_S-abb2bf-2-9-33)"
       d="m 118.74016,28.278226 h 8.43182"
       id="path55-3-7-5-8"
       sodipodi:nodetypes="cc" /><path
       style="fill:none;fill-opacity:1;stroke:#abb2bf;stroke-width:0.729099;stroke-linejoin:bevel;stroke-dasharray:none;stroke-dashoffset:0;stroke-opacity:1;marker-end:url(#ArrowWideRounded_Fnone_S-abb2bf-2-5)"
       d="m 31.081711,151.3046 v 8.43183"
       id="path55-3-7-2"
       sodipodi:nodetypes="cc" /><path
       style="fill:none;fill-opacity:1;stroke:#abb2bf;stroke-width:0.729099;stroke-linejoin:bevel;stroke-dasharray:none;stroke-dashoffset:0;stroke-opacity:1;marker-end:url(#ArrowWideRounded_Fnone_S-abb2bf-2-9-6)"
       d="M 98.151815,116.26325 H 89.719987"
       id="path55-3-7-5-6"
       sodipodi:nodetypes="cc" /><g
       aria-label="zoom *= 0.5"
       id="text51"
       style="font-weight:bold;font-size:6.35px;font-family:'Fira Code';-inkscape-font-specification:'Fira Code Bold';fill:none;stroke:#61afef;stroke-width:0.529167;stroke-linejoin:bevel"><path
         d="m 79.725625,108.84206 h 1.73241 l -0.09769,0.77828 h -2.849359 v -0.72618 l 1.716128,-1.9571 h -1.572846 v -0.77503 h 2.771205 v 0.72292 z"
         style="fill:#abb2bf;stroke:none"
         id="path1029" /><path
         d="m 83.90359,106.04806 q 0.534051,0 0.908538,0.22795 0.374487,0.22794 0.573129,0.64151 0.198641,0.41031 0.198641,0.9639 0,0.8662 -0.442872,1.35792 -0.442872,0.49172 -1.237436,0.49172 -0.794564,0 -1.237436,-0.48521 -0.442872,-0.4852 -0.442872,-1.35792 0,-0.55034 0.198641,-0.9639 0.201898,-0.41356 0.576385,-0.64477 0.377743,-0.2312 0.905282,-0.2312 z m 0,0.75874 q -0.315872,0 -0.468923,0.26051 -0.149795,0.25726 -0.149795,0.82062 0,0.57313 0.149795,0.83038 0.153051,0.25726 0.468923,0.25726 0.315872,0 0.465667,-0.25726 0.153051,-0.25725 0.153051,-0.83689 0,-0.56011 -0.153051,-0.81736 -0.149795,-0.25726 -0.465667,-0.25726 z"
         style="fill:#abb2bf;stroke:none"
         id="path1031" /><path
         d="m 87.811273,106.04806 q 0.534051,0 0.908538,0.22795 0.374487,0.22794 0.573128,0.64151 0.198641,0.41031 0.198641,0.9639 0,0.8662 -0.442871,1.35792 -0.442872,0.49172 -1.237436,0.49172 -0.794564,0 -1.237436,-0.48521 -0.442872,-0.4852 -0.442872,-1.35792 0,-0.55034 0.198641,-0.9639 0.201898,-0.41356 0.576385,-0.64477 0.377743,-0.2312 0.905282,-0.2312 z m 0,0.75874 q -0.315872,0 -0.468923,0.26051 -0.149795,0.25726 -0.149795,0.82062 0,0.57313 0.149795,0.83038 0.153051,0.25726 0.468923,0.25726 0.315872,0 0.465666,-0.25726 0.153052,-0.25725 0.153052,-0.83689 0,-0.56011 -0.153052,-0.81736 -0.149794,-0.25726 -0.465666,-0.25726 z"
         style="fill:#abb2bf;stroke:none"
         id="path1033" /><path
         d="m 92.777289,106.04806 q 0.367975,0 0.543821,0.24097 0.179103,0.23772 0.179103,0.77177 v 2.55954 h -0.882488 v -2.44231 q 0,-0.18236 -0.03582,-0.25726 -0.03256,-0.0749 -0.136769,-0.0749 -0.08141,0 -0.169334,0.0488 -0.08467,0.0456 -0.188872,0.17585 v 2.54977 h -0.722923 v -2.44231 q 0,-0.18236 -0.03582,-0.25726 -0.03256,-0.0749 -0.136769,-0.0749 -0.08141,0 -0.169334,0.0488 -0.08467,0.0456 -0.188871,0.17585 v 2.54977 H 89.9377 v -3.45831 h 0.755487 l 0.06839,0.33541 q 0.16282,-0.22143 0.328897,-0.33541 0.166077,-0.11397 0.394026,-0.11397 0.195384,0 0.332153,0.10095 0.140026,0.0977 0.198641,0.30935 0.156308,-0.18235 0.34518,-0.29633 0.188872,-0.11397 0.41682,-0.11397 z"
         style="fill:#abb2bf;stroke:none"
         id="path1035" /><path
         d="m 99.045859,105.76149 h 0.976921 l -0.140023,1.22767 1.123463,-0.51451 0.30284,0.92807 -1.21464,0.24423 0.83364,0.91506 -0.78479,0.56661 -0.608949,-1.0681 -0.608949,1.0681 -0.784795,-0.56661 0.833641,-0.91506 -1.214641,-0.24423 0.302847,-0.92807 1.123461,0.51451 z"
         style="fill:#abb2bf;stroke:none"
         id="path1037" /><path
         d="m 104.92042,106.50721 v 0.80433 h -2.95682 v -0.80433 z m 0,1.37095 v 0.79782 h -2.95682 v -0.79782 z"
         style="fill:#abb2bf;stroke:none"
         id="path1039" /><path
         d="m 111.25737,104.99298 q 0.80759,0 1.2179,0.62523 0.41356,0.62197 0.41356,1.73567 0,1.11695 -0.41356,1.74869 -0.41031,0.62849 -1.2179,0.62849 -0.8141,0 -1.22441,-0.62849 -0.40705,-0.63174 -0.40705,-1.74869 0,-1.1137 0.40705,-1.73567 0.41031,-0.62523 1.22441,-0.62523 z m 0,0.74572 q -0.34518,0 -0.50474,0.37123 -0.15957,0.36797 -0.15957,1.24395 0,0.28656 0.01,0.51125 0.01,0.22144 0.0293,0.39403 l 1.10067,-2.30228 q -0.0782,-0.12375 -0.19539,-0.16934 -0.11397,-0.0488 -0.28005,-0.0488 z m 0.6578,1.61518 q 0,-0.37449 -0.0163,-0.63175 l -1.03879,2.14598 q 0.0716,0.0684 0.16933,0.0944 0.10095,0.026 0.22795,0.026 0.23121,0 0.37449,-0.1563 0.14654,-0.15631 0.21492,-0.51452 0.0684,-0.36146 0.0684,-0.96389 z"
         style="fill:#abb2bf;stroke:none"
         id="path1041" /><path
         d="m 114.43887,109.00488 q 0,-0.19864 0.0977,-0.36146 0.0977,-0.16608 0.26377,-0.26377 0.16607,-0.10095 0.36471,-0.10095 0.2019,0 0.36472,0.10095 0.16608,0.0977 0.26377,0.26377 0.0977,0.16282 0.0977,0.36146 0,0.19538 -0.0977,0.36146 -0.0977,0.16608 -0.26377,0.26377 -0.16282,0.10095 -0.36472,0.10095 -0.19864,0 -0.36471,-0.10095 -0.16608,-0.0977 -0.26377,-0.26377 -0.0977,-0.16608 -0.0977,-0.36146 z"
         style="fill:#abb2bf;stroke:none"
         id="path1043" /><path
         d="m 120.47299,105.10695 -0.11397,0.73595 h -1.651 v 0.97367 q 0.16607,-0.0781 0.34192,-0.11072 0.17585,-0.0326 0.32564,-0.0326 0.34844,0 0.635,0.17584 0.28982,0.17585 0.45915,0.50475 0.17259,0.32889 0.17259,0.78479 0,0.4559 -0.22469,0.81736 -0.22143,0.36146 -0.61872,0.56987 -0.39728,0.20516 -0.92807,0.20516 -0.49172,0 -0.86946,-0.18236 -0.37775,-0.18562 -0.62849,-0.49172 l 0.59267,-0.54056 q 0.16282,0.20841 0.37448,0.31912 0.21493,0.10747 0.44939,0.10747 0.3582,0 0.57313,-0.21818 0.21817,-0.21818 0.21817,-0.56988 0,-0.41682 -0.16933,-0.59266 -0.16608,-0.17911 -0.43961,-0.17911 -0.12375,0 -0.26377,0.0326 -0.14003,0.0326 -0.28982,0.11723 h -0.69362 v -2.42603 z"
         style="fill:#abb2bf;stroke:none"
         id="path1045" /></g><text
       xml:space="preserve"
       style="font-style:normal;font-variant:normal;font-weight:bold;font-stretch:normal;font-size:6.35px;font-family:'Fira Code';-inkscape-font-specification:'Fira Code Bold';fill:#abb2bf;fill-opacity:1;stroke:none;stroke-width:0.529167;stroke-linejoin:bevel;stroke-dasharray:none;stroke-opacity:1"
       x="355.35269"
       y="35.62299"
       id="text52"><tspan
         sodipodi:role="line"
         id="tspan52"
         style="stroke-width:0.529167"
         x="355.35269"
         y="35.62299">b</tspan></text><path
       style="fill:none;fill-opacity:1;stroke:#61afef;stroke-width:0.52916666;stroke-linejoin:bevel;stroke-dasharray:none;stroke-opacity:1"
       d="m 138.68697,194.61692 21.15586,-21.15596"
       id="path52" /></g></svg>
