<?xml version="1.0" encoding="UTF-8" standalone="no"?>
<!-- Created with Inkscape (http://www.inkscape.org/) -->

<svg
   width="400"
   height="320"
   viewBox="0 0 105.83333 84.666672"
   version="1.1"
   id="svg5"
   inkscape:version="1.1.2 (0a00cf5339, 2022-02-04)"
   sodipodi:docname="lm12.svg"
   xmlns:inkscape="http://www.inkscape.org/namespaces/inkscape"
   xmlns:sodipodi="http://sodipodi.sourceforge.net/DTD/sodipodi-0.dtd"
   xmlns="http://www.w3.org/2000/svg"
   xmlns:svg="http://www.w3.org/2000/svg">
  <sodipodi:namedview
     id="namedview7"
     pagecolor="#000000"
     bordercolor="#000000"
     borderopacity="0.25"
     inkscape:pageshadow="2"
     inkscape:pageopacity="0"
     inkscape:pagecheckerboard="0"
     inkscape:document-units="px"
     showgrid="false"
     units="px"
     width="400px"
     showguides="false"
     inkscape:zoom="1.0570195"
     inkscape:cx="78.522676"
     inkscape:cy="163.19472"
     inkscape:window-width="1920"
     inkscape:window-height="1048"
     inkscape:window-x="0"
     inkscape:window-y="32"
     inkscape:window-maximized="1"
     inkscape:current-layer="text74384"
     inkscape:snap-bbox="true" />
  <defs
     id="defs2">
    <marker
       style="overflow:visible"
       id="Arrow2Mend"
       refX="0"
       refY="0"
       orient="auto"
       inkscape:stockid="Arrow2Mend"
       inkscape:isstock="true">
      <path
         transform="scale(-0.6)"
         d="M 8.7185878,4.0337352 -2.2072895,0.01601326 8.7185884,-4.0017078 c -1.7454984,2.3720609 -1.7354408,5.6174519 -6e-7,8.035443 z"
         style="fill:context-stroke;fill-rule:evenodd;stroke:context-stroke;stroke-width:0.625;stroke-linejoin:round"
         id="path7374" />
    </marker>
    <marker
       style="overflow:visible"
       id="Arrow1Lend"
       refX="0"
       refY="0"
       orient="auto"
       inkscape:stockid="Arrow1Lend"
       inkscape:isstock="true">
      <path
         transform="matrix(-0.8,0,0,-0.8,-10,0)"
         style="fill:context-stroke;fill-rule:evenodd;stroke:context-stroke;stroke-width:1pt"
         d="M 0,0 5,-5 -12.5,0 5,5 Z"
         id="path7350" />
    </marker>
    <marker
       style="overflow:visible"
       id="Arrow1Mend"
       refX="0"
       refY="0"
       orient="auto"
       inkscape:stockid="Arrow1Mend"
       inkscape:isstock="true">
      <path
         transform="matrix(-0.4,0,0,-0.4,-4,0)"
         style="fill:context-stroke;fill-rule:evenodd;stroke:context-stroke;stroke-width:1pt"
         d="M 0,0 5,-5 -12.5,0 5,5 Z"
         id="path7356" />
    </marker>
    <marker
       style="overflow:visible"
       id="TriangleOutL"
       refX="0"
       refY="0"
       orient="auto"
       inkscape:stockid="TriangleOutL"
       inkscape:isstock="true">
      <path
         transform="scale(0.8)"
         style="fill:context-stroke;fill-rule:evenodd;stroke:context-stroke;stroke-width:1pt"
         d="M 5.77,0 -2.88,5 V -5 Z"
         id="path7489" />
    </marker>
    <marker
       style="overflow:visible"
       id="TriangleOutM"
       refX="0"
       refY="0"
       orient="auto"
       inkscape:stockid="TriangleOutM"
       inkscape:isstock="true">
      <path
         transform="scale(0.4)"
         style="fill:context-stroke;fill-rule:evenodd;stroke:context-stroke;stroke-width:1pt"
         d="M 5.77,0 -2.88,5 V -5 Z"
         id="path7492" />
    </marker>
    <marker
       style="overflow:visible"
       id="TriangleInM"
       refX="0"
       refY="0"
       orient="auto"
       inkscape:stockid="TriangleInM"
       inkscape:isstock="true">
      <path
         transform="scale(-0.4)"
         style="fill:context-stroke;fill-rule:evenodd;stroke:context-stroke;stroke-width:1pt"
         d="M 5.77,0 -2.88,5 V -5 Z"
         id="path7483" />
    </marker>
    <marker
       style="overflow:visible"
       id="TriangleInL"
       refX="0"
       refY="0"
       orient="auto"
       inkscape:stockid="TriangleInL"
       inkscape:isstock="true">
      <path
         transform="scale(-0.8)"
         style="fill:context-stroke;fill-rule:evenodd;stroke:context-stroke;stroke-width:1pt"
         d="M 5.77,0 -2.88,5 V -5 Z"
         id="path7480" />
    </marker>
    <marker
       style="overflow:visible"
       id="Arrow1Mend-9"
       refX="0"
       refY="0"
       orient="auto"
       inkscape:stockid="Arrow1Mend"
       inkscape:isstock="true">
      <path
         transform="matrix(-0.4,0,0,-0.4,-4,0)"
         style="fill:context-stroke;fill-rule:evenodd;stroke:context-stroke;stroke-width:1pt"
         d="M 0,0 5,-5 -12.5,0 5,5 Z"
         id="path7356-3" />
    </marker>
    <marker
       style="overflow:visible"
       id="Arrow1Mend_Fnone_S-abb2bf"
       refX="0"
       refY="0"
       orient="auto"
       inkscape:stockid="Arrow1Mend"
       inkscape:isstock="true">
      <path
         transform="matrix(-0.4,0,0,-0.4,-4,0)"
         style="fill:#abb2bf;fill-rule:evenodd;stroke:#abb2bf;stroke-width:1pt"
         d="M 0,0 5,-5 -12.5,0 5,5 Z"
         id="path30204" />
    </marker>
  </defs>
  <g
     inkscape:label="Layer 1"
     inkscape:groupmode="layer"
     id="layer1">
    <rect
       style="fill:none;stroke:#ffffff;stroke-width:1;stroke-linejoin:bevel;stroke-opacity:1"
       id="rect69066"
       width="39.6875"
       height="39.6875"
       x="28.672626"
       y="29.612318" />
    <path
       style="fill:none;fill-opacity:1;stroke:#ffffff;stroke-width:1.00012;stroke-linejoin:bevel;stroke-miterlimit:4;stroke-dasharray:none;stroke-dashoffset:0;stroke-opacity:1"
       d="M 28.672625,29.612317 55.649981,7.3829795 H 95.337483 L 68.360127,29.612317 V 69.299821 L 95.337483,47.07048 V 7.3829795"
       id="path70004" />
    <path
       style="fill:none;fill-opacity:1;stroke:#ffffff;stroke-width:1.00012;stroke-linejoin:bevel;stroke-miterlimit:4;stroke-dasharray:3.00037, 3.00037;stroke-dashoffset:0;stroke-opacity:1"
       d="M 28.672625,69.299821 55.649981,47.07048 V 7.3829795"
       id="path70300" />
    <path
       style="fill:none;fill-opacity:1;stroke:#ffffff;stroke-width:1.00012;stroke-linejoin:bevel;stroke-miterlimit:4;stroke-dasharray:3.00037, 3.00037;stroke-dashoffset:0;stroke-opacity:1"
       d="M 55.649981,47.07048 H 95.337483"
       id="path70302" />
    <path
       style="fill:#98c379;fill-opacity:1;stroke:none;stroke-width:1.00012;stroke-linejoin:bevel;stroke-miterlimit:4;stroke-dasharray:none;stroke-dashoffset:0;stroke-opacity:1"
       d="M 28.672625,29.612318 68.360127,69.299822 55.649981,47.070481 Z"
       id="path70497" />
    <g
       aria-label="(0,0,0)"
       id="text74384"
       style="font-size:6.35px;font-family:'Fira Code';-inkscape-font-specification:'Fira Code';fill:#98c379;stroke-width:1.00012;stroke-linejoin:bevel">
      <path
         d="m 12.748567,75.765252 q 0,0.680589 0.153051,1.175564 0.156308,0.491718 0.465667,0.898769 0.309359,0.407051 0.775025,0.817359 l -0.286564,0.29959 q -0.527538,-0.429847 -0.905282,-0.882488 -0.374487,-0.452641 -0.576384,-1.009487 -0.198641,-0.556846 -0.198641,-1.299307 0,-0.742462 0.198641,-1.299308 0.201897,-0.556846 0.576384,-1.009487 0.377744,-0.452641 0.905282,-0.882487 l 0.286564,0.299589 q -0.351692,0.312616 -0.615461,0.615462 -0.260513,0.29959 -0.433103,0.631743 -0.172589,0.332154 -0.260512,0.732693 -0.08467,0.400538 -0.08467,0.911795 z"
         style="fill:#abb2bf"
         id="path908" />
      <path
         d="m 17.226122,73.489021 q 0.722923,0 1.094153,0.599179 0.374488,0.59918 0.374488,1.712872 0,1.116949 -0.374488,1.719385 -0.37123,0.599179 -1.094153,0.599179 -0.722923,0 -1.097411,-0.599179 -0.37123,-0.602436 -0.37123,-1.719385 0,-1.113692 0.37123,-1.712872 0.374488,-0.599179 1.097411,-0.599179 z m 0,0.439615 q -0.413565,0 -0.651282,0.439616 -0.237718,0.436359 -0.237718,1.43282 0,0.745718 0.113974,1.172308 l 1.370949,-2.754923 q -0.205154,-0.289821 -0.595923,-0.289821 z m 0.892256,1.872436 q 0,-0.752231 -0.117231,-1.175564 L 16.636711,77.3902 q 0.205154,0.286564 0.589411,0.286564 0.41682,0 0.654538,-0.439615 0.237718,-0.439615 0.237718,-1.436077 z"
         style="fill:#abb2bf"
         id="path910" />
      <path
         d="m 21.133804,76.97338 q 0.224693,0 0.374488,0.153051 0.153051,0.153051 0.153051,0.367974 0,0.117231 -0.02931,0.237718 -0.02605,0.120488 -0.09769,0.273539 L 21.006804,79.21379 H 20.51183 l 0.312615,-1.286282 q -0.211666,-0.153051 -0.211666,-0.433103 0,-0.214923 0.149795,-0.367974 0.149795,-0.153051 0.37123,-0.153051 z"
         style="fill:#abb2bf"
         id="path912" />
      <path
         d="m 25.041488,73.489021 q 0.722923,0 1.094154,0.599179 0.374487,0.59918 0.374487,1.712872 0,1.116949 -0.374487,1.719385 -0.371231,0.599179 -1.094154,0.599179 -0.722923,0 -1.09741,-0.599179 -0.371231,-0.602436 -0.371231,-1.719385 0,-1.113692 0.371231,-1.712872 0.374487,-0.599179 1.09741,-0.599179 z m 0,0.439615 q -0.413564,0 -0.651282,0.439616 -0.237718,0.436359 -0.237718,1.43282 0,0.745718 0.113974,1.172308 l 1.370949,-2.754923 q -0.205154,-0.289821 -0.595923,-0.289821 z m 0.892256,1.872436 q 0,-0.752231 -0.117231,-1.175564 L 24.452078,77.3902 q 0.205153,0.286564 0.58941,0.286564 0.41682,0 0.654538,-0.439615 0.237718,-0.439615 0.237718,-1.436077 z"
         style="fill:#abb2bf"
         id="path914" />
      <path
         d="m 28.94917,76.97338 q 0.224693,0 0.374487,0.153051 0.153052,0.153051 0.153052,0.367974 0,0.117231 -0.02931,0.237718 -0.02605,0.120488 -0.09769,0.273539 L 28.82217,79.21379 h -0.494974 l 0.312615,-1.286282 q -0.211666,-0.153051 -0.211666,-0.433103 0,-0.214923 0.149794,-0.367974 0.149795,-0.153051 0.371231,-0.153051 z"
         style="fill:#abb2bf"
         id="path916" />
      <path
         d="m 32.856853,73.489021 q 0.722923,0 1.094154,0.599179 0.374487,0.59918 0.374487,1.712872 0,1.116949 -0.374487,1.719385 -0.371231,0.599179 -1.094154,0.599179 -0.722923,0 -1.097411,-0.599179 -0.37123,-0.602436 -0.37123,-1.719385 0,-1.113692 0.37123,-1.712872 0.374488,-0.599179 1.097411,-0.599179 z m 0,0.439615 q -0.413564,0 -0.651282,0.439616 -0.237718,0.436359 -0.237718,1.43282 0,0.745718 0.113974,1.172308 l 1.370949,-2.754923 q -0.205154,-0.289821 -0.595923,-0.289821 z m 0.892256,1.872436 q 0,-0.752231 -0.117231,-1.175564 L 32.267442,77.3902 q 0.205154,0.286564 0.589411,0.286564 0.41682,0 0.654538,-0.439615 0.237718,-0.439615 0.237718,-1.436077 z"
         style="fill:#abb2bf"
         id="path918" />
      <path
         d="m 37.334409,75.765252 q 0,-0.511257 -0.08792,-0.911795 -0.08467,-0.400539 -0.257257,-0.732693 -0.172589,-0.332153 -0.436359,-0.631743 -0.260512,-0.302846 -0.612205,-0.615462 l 0.286564,-0.299589 q 0.527539,0.429846 0.902026,0.882487 0.377744,0.452641 0.576385,1.009487 0.201897,0.556846 0.201897,1.299308 0,0.742461 -0.201897,1.299307 -0.198641,0.556846 -0.576385,1.009487 -0.374487,0.452641 -0.902026,0.882488 l -0.286564,-0.29959 q 0.465667,-0.410308 0.775026,-0.817359 0.309359,-0.407051 0.46241,-0.898769 0.156308,-0.494975 0.156308,-1.175564 z"
         style="fill:#abb2bf"
         id="path920" />
    </g>
    <g
       aria-label="(1,0,0)"
       id="text74384-2"
       style="font-size:6.35px;font-family:'Fira Code';-inkscape-font-specification:'Fira Code';fill:#98c379;stroke-width:1.00012;stroke-linejoin:bevel">
      <path
         d="m 58.279326,75.765252 q 0,0.680589 0.153051,1.175564 0.156308,0.491718 0.465667,0.898769 0.309359,0.407051 0.775025,0.817359 l -0.286564,0.29959 q -0.527538,-0.429847 -0.905282,-0.882488 -0.374487,-0.452641 -0.576384,-1.009487 -0.198641,-0.556846 -0.198641,-1.299307 0,-0.742462 0.198641,-1.299308 0.201897,-0.556846 0.576384,-1.009487 0.377744,-0.452641 0.905282,-0.882487 l 0.286564,0.299589 q -0.351692,0.312616 -0.615461,0.615462 -0.260513,0.29959 -0.433103,0.631743 -0.17259,0.332154 -0.260513,0.732693 -0.08467,0.400538 -0.08467,0.911795 z"
         style="fill:#abb2bf"
         id="path953" />
      <path
         d="m 64.173419,77.598611 v 0.446128 h -2.588846 v -0.446128 h 1.103923 v -3.445282 l -1.029026,0.62523 -0.237718,-0.390769 1.335128,-0.827128 h 0.478693 v 4.037949 z"
         style="fill:#abb2bf"
         id="path955" />
      <path
         d="m 66.664563,76.97338 q 0.224693,0 0.374487,0.153051 0.153052,0.153051 0.153052,0.367974 0,0.117231 -0.02931,0.237718 -0.02605,0.120488 -0.09769,0.273539 l -0.527539,1.208128 h -0.494974 l 0.312615,-1.286282 q -0.211666,-0.153051 -0.211666,-0.433103 0,-0.214923 0.149795,-0.367974 0.149794,-0.153051 0.37123,-0.153051 z"
         style="fill:#abb2bf"
         id="path957" />
      <path
         d="m 70.572247,73.489021 q 0.722923,0 1.094154,0.599179 0.374487,0.59918 0.374487,1.712872 0,1.116949 -0.374487,1.719385 -0.371231,0.599179 -1.094154,0.599179 -0.722923,0 -1.097411,-0.599179 -0.37123,-0.602436 -0.37123,-1.719385 0,-1.113692 0.37123,-1.712872 0.374488,-0.599179 1.097411,-0.599179 z m 0,0.439615 q -0.413564,0 -0.651282,0.439616 -0.237718,0.436359 -0.237718,1.43282 0,0.745718 0.113974,1.172308 l 1.370949,-2.754923 q -0.205154,-0.289821 -0.595923,-0.289821 z m 0.892256,1.872436 q 0,-0.752231 -0.117231,-1.175564 L 69.982836,77.3902 q 0.205154,0.286564 0.589411,0.286564 0.41682,0 0.654538,-0.439615 0.237718,-0.439615 0.237718,-1.436077 z"
         style="fill:#abb2bf"
         id="path959" />
      <path
         d="m 74.479929,76.97338 q 0.224692,0 0.374487,0.153051 0.153052,0.153051 0.153052,0.367974 0,0.117231 -0.02931,0.237718 -0.02605,0.120488 -0.09769,0.273539 l -0.527539,1.208128 h -0.494974 l 0.312615,-1.286282 q -0.211667,-0.153051 -0.211667,-0.433103 0,-0.214923 0.149795,-0.367974 0.149795,-0.153051 0.371231,-0.153051 z"
         style="fill:#abb2bf"
         id="path961" />
      <path
         d="m 78.387612,73.489021 q 0.722923,0 1.094153,0.599179 0.374488,0.59918 0.374488,1.712872 0,1.116949 -0.374488,1.719385 -0.37123,0.599179 -1.094153,0.599179 -0.722924,0 -1.097411,-0.599179 -0.37123,-0.602436 -0.37123,-1.719385 0,-1.113692 0.37123,-1.712872 0.374487,-0.599179 1.097411,-0.599179 z m 0,0.439615 q -0.413565,0 -0.651283,0.439616 -0.237717,0.436359 -0.237717,1.43282 0,0.745718 0.113974,1.172308 l 1.370949,-2.754923 q -0.205154,-0.289821 -0.595923,-0.289821 z m 0.892256,1.872436 q 0,-0.752231 -0.117231,-1.175564 L 77.798201,77.3902 q 0.205154,0.286564 0.589411,0.286564 0.41682,0 0.654538,-0.439615 0.237718,-0.439615 0.237718,-1.436077 z"
         style="fill:#abb2bf"
         id="path963" />
      <path
         d="m 82.865168,75.765252 q 0,-0.511257 -0.08792,-0.911795 -0.08467,-0.400539 -0.257257,-0.732693 -0.17259,-0.332153 -0.436359,-0.631743 -0.260513,-0.302846 -0.612205,-0.615462 l 0.286564,-0.299589 q 0.527539,0.429846 0.902026,0.882487 0.377743,0.452641 0.576384,1.009487 0.201898,0.556846 0.201898,1.299308 0,0.742461 -0.201898,1.299307 -0.198641,0.556846 -0.576384,1.009487 -0.374487,0.452641 -0.902026,0.882488 l -0.286564,-0.29959 q 0.465667,-0.410308 0.775026,-0.817359 0.309359,-0.407051 0.46241,-0.898769 0.156308,-0.494975 0.156308,-1.175564 z"
         style="fill:#abb2bf"
         id="path965" />
    </g>
    <g
       aria-label="(0,0,1)"
       id="text74384-1"
       style="font-size:6.35px;font-family:'Fira Code';-inkscape-font-specification:'Fira Code';fill:#98c379;stroke-width:1.00012;stroke-linejoin:bevel">
      <path
         d="m 10.105575,20.701245 q 0,0.68059 0.153051,1.175564 0.156308,0.491718 0.465667,0.898769 0.309359,0.407051 0.775025,0.817359 l -0.286564,0.29959 Q 10.685216,23.462681 10.307472,23.01004 9.9329851,22.557399 9.7310877,22.000552 q -0.198641,-0.556846 -0.198641,-1.299307 0,-0.742462 0.198641,-1.299308 0.2018974,-0.556846 0.5763843,-1.009487 0.377744,-0.452641 0.905282,-0.882487 l 0.286564,0.29959 q -0.351692,0.312615 -0.615461,0.615461 -0.260513,0.29959 -0.433103,0.631744 -0.172589,0.332154 -0.260512,0.732692 -0.08467,0.400538 -0.08467,0.911795 z"
         style="fill:#abb2bf"
         id="path923" />
      <path
         d="m 14.58313,18.425014 q 0.722923,0 1.094153,0.59918 0.374488,0.599179 0.374488,1.712871 0,1.116949 -0.374488,1.719385 -0.37123,0.599179 -1.094153,0.599179 -0.722924,0 -1.097411,-0.599179 -0.37123,-0.602436 -0.37123,-1.719385 0,-1.113692 0.37123,-1.712871 0.374487,-0.59918 1.097411,-0.59918 z m 0,0.439615 q -0.413565,0 -0.651282,0.439616 -0.237718,0.436359 -0.237718,1.43282 0,0.745718 0.113974,1.172308 L 15.179053,19.15445 Q 14.973899,18.864629 14.58313,18.864629 Z m 0.892256,1.872436 q 0,-0.75223 -0.117231,-1.175564 l -1.364436,2.764693 q 0.205154,0.286564 0.589411,0.286564 0.41682,0 0.654538,-0.439616 0.237718,-0.439615 0.237718,-1.436077 z"
         style="fill:#abb2bf"
         id="path925" />
      <path
         d="m 18.490812,21.909373 q 0.224693,0 0.374488,0.153051 0.153051,0.153052 0.153051,0.367975 0,0.11723 -0.02931,0.237718 -0.02605,0.120487 -0.09769,0.273538 l -0.527539,1.208128 h -0.494974 l 0.312615,-1.286282 q -0.211666,-0.153051 -0.211666,-0.433102 0,-0.214923 0.149795,-0.367975 0.149795,-0.153051 0.37123,-0.153051 z"
         style="fill:#abb2bf"
         id="path927" />
      <path
         d="m 22.398496,18.425014 q 0.722923,0 1.094154,0.59918 0.374487,0.599179 0.374487,1.712871 0,1.116949 -0.374487,1.719385 -0.371231,0.599179 -1.094154,0.599179 -0.722923,0 -1.09741,-0.599179 -0.371231,-0.602436 -0.371231,-1.719385 0,-1.113692 0.371231,-1.712871 0.374487,-0.59918 1.09741,-0.59918 z m 0,0.439615 q -0.413564,0 -0.651282,0.439616 -0.237718,0.436359 -0.237718,1.43282 0,0.745718 0.113974,1.172308 l 1.370949,-2.754923 q -0.205154,-0.289821 -0.595923,-0.289821 z m 0.892256,1.872436 q 0,-0.75223 -0.117231,-1.175564 l -1.364435,2.764693 q 0.205153,0.286564 0.58941,0.286564 0.41682,0 0.654538,-0.439616 0.237718,-0.439615 0.237718,-1.436077 z"
         style="fill:#abb2bf"
         id="path929" />
      <path
         d="m 26.306178,21.909373 q 0.224693,0 0.374487,0.153051 0.153052,0.153052 0.153052,0.367975 0,0.11723 -0.02931,0.237718 -0.02605,0.120487 -0.09769,0.273538 l -0.527539,1.208128 h -0.494974 l 0.312615,-1.286282 q -0.211666,-0.153051 -0.211666,-0.433102 0,-0.214923 0.149794,-0.367975 0.149795,-0.153051 0.371231,-0.153051 z"
         style="fill:#abb2bf"
         id="path931" />
      <path
         d="m 31.630399,22.534604 v 0.446128 h -2.588846 v -0.446128 h 1.103923 v -3.445282 l -1.029026,0.625231 -0.237718,-0.39077 1.335129,-0.827128 h 0.478692 v 4.037949 z"
         style="fill:#abb2bf"
         id="path933" />
      <path
         d="m 34.691417,20.701245 q 0,-0.511257 -0.08792,-0.911795 -0.08467,-0.400538 -0.257257,-0.732692 -0.172589,-0.332154 -0.436359,-0.631744 -0.260512,-0.302846 -0.612205,-0.615461 l 0.286564,-0.29959 q 0.527539,0.429846 0.902026,0.882487 0.377744,0.452641 0.576385,1.009487 0.201897,0.556846 0.201897,1.299308 0,0.742461 -0.201897,1.299307 -0.198641,0.556847 -0.576385,1.009488 -0.374487,0.452641 -0.902026,0.882487 l -0.286564,-0.29959 q 0.465667,-0.410308 0.775026,-0.817359 0.309359,-0.407051 0.46241,-0.898769 0.156308,-0.494974 0.156308,-1.175564 z"
         style="fill:#abb2bf"
         id="path935" />
    </g>
    <g
       aria-label="(0,1,0)"
       id="text74384-7"
       style="font-size:4.23333px;font-family:'Fira Code';-inkscape-font-specification:'Fira Code';fill:#98c379;stroke-width:1.00012;stroke-linejoin:bevel">
      <path
         d="m 50.059112,40.084004 q 0,0.453726 0.102034,0.783708 0.104205,0.327812 0.310444,0.599179 0.206239,0.271368 0.516684,0.544906 l -0.191043,0.199726 q -0.351692,-0.286564 -0.603521,-0.588324 -0.249658,-0.30176 -0.384256,-0.672991 -0.132427,-0.37123 -0.132427,-0.866204 0,-0.494974 0.132427,-0.866205 0.134598,-0.37123 0.384256,-0.672991 0.251829,-0.30176 0.603521,-0.588324 l 0.191043,0.199726 q -0.234462,0.208411 -0.410308,0.410308 -0.173675,0.199726 -0.288735,0.421162 -0.115059,0.221436 -0.173675,0.488461 -0.05644,0.267025 -0.05644,0.607863 z"
         style="fill:#abb2bf"
         id="path938" />
      <path
         d="m 53.044146,38.566518 q 0.481948,0 0.729435,0.399452 0.249658,0.399453 0.249658,1.141914 0,0.744632 -0.249658,1.146256 -0.247487,0.399452 -0.729435,0.399452 -0.481948,0 -0.731606,-0.399452 -0.247487,-0.401624 -0.247487,-1.146256 0,-0.742461 0.247487,-1.141914 0.249658,-0.399452 0.731606,-0.399452 z m 0,0.293077 q -0.275709,0 -0.434188,0.293076 -0.158478,0.290906 -0.158478,0.955213 0,0.497145 0.07598,0.781538 l 0.913965,-1.836614 q -0.13677,-0.193213 -0.397282,-0.193213 z m 0.594837,1.248289 q 0,-0.501487 -0.07815,-0.783709 l -0.909623,1.843127 q 0.136769,0.191043 0.39294,0.191043 0.27788,0 0.436358,-0.293077 0.158479,-0.293077 0.158479,-0.957384 z"
         style="fill:#abb2bf"
         id="path940" />
      <path
         d="m 55.649266,40.889422 q 0.149794,0 0.249657,0.102034 0.102035,0.102034 0.102035,0.245316 0,0.07815 -0.01954,0.158479 -0.01737,0.08032 -0.06513,0.182358 l -0.351692,0.805418 h -0.329983 l 0.20841,-0.85752 q -0.141111,-0.102034 -0.141111,-0.288735 0,-0.143282 0.09986,-0.245316 0.09986,-0.102034 0.247487,-0.102034 z"
         style="fill:#abb2bf"
         id="path942" />
      <path
         d="m 59.198743,41.306242 v 0.297419 h -1.725896 v -0.297419 h 0.735949 v -2.296853 l -0.686017,0.41682 -0.158478,-0.260512 0.890084,-0.551419 h 0.319128 v 2.691964 z"
         style="fill:#abb2bf"
         id="path944" />
      <path
         d="m 60.859505,40.889422 q 0.149795,0 0.249658,0.102034 0.102034,0.102034 0.102034,0.245316 0,0.07815 -0.01954,0.158479 -0.01737,0.08032 -0.06513,0.182358 l -0.351692,0.805418 h -0.329982 l 0.20841,-0.85752 q -0.141111,-0.102034 -0.141111,-0.288735 0,-0.143282 0.09986,-0.245316 0.09986,-0.102034 0.247487,-0.102034 z"
         style="fill:#abb2bf"
         id="path946" />
      <path
         d="m 63.464625,38.566518 q 0.481948,0 0.729435,0.399452 0.249658,0.399453 0.249658,1.141914 0,0.744632 -0.249658,1.146256 -0.247487,0.399452 -0.729435,0.399452 -0.481949,0 -0.731607,-0.399452 -0.247486,-0.401624 -0.247486,-1.146256 0,-0.742461 0.247486,-1.141914 0.249658,-0.399452 0.731607,-0.399452 z m 0,0.293077 q -0.275709,0 -0.434188,0.293076 -0.158478,0.290906 -0.158478,0.955213 0,0.497145 0.07598,0.781538 l 0.913965,-1.836614 q -0.136769,-0.193213 -0.397281,-0.193213 z m 0.594837,1.248289 q 0,-0.501487 -0.07815,-0.783709 l -0.909623,1.843127 q 0.136769,0.191043 0.39294,0.191043 0.27788,0 0.436358,-0.293077 0.158479,-0.293077 0.158479,-0.957384 z"
         style="fill:#abb2bf"
         id="path948" />
      <path
         d="m 66.449659,40.084004 q 0,-0.340838 -0.05862,-0.607863 -0.05644,-0.267025 -0.171504,-0.488461 -0.11506,-0.221436 -0.290906,-0.421162 -0.173675,-0.201897 -0.408136,-0.410308 l 0.191043,-0.199726 q 0.351692,0.286564 0.601349,0.588324 0.251829,0.301761 0.384257,0.672991 0.134598,0.371231 0.134598,0.866205 0,0.494974 -0.134598,0.866204 -0.132428,0.371231 -0.384257,0.672991 -0.249657,0.30176 -0.601349,0.588324 l -0.191043,-0.199726 q 0.310444,-0.273538 0.516683,-0.544906 0.206239,-0.271367 0.308274,-0.599179 0.104205,-0.329982 0.104205,-0.783708 z"
         style="fill:#abb2bf"
         id="path950" />
    </g>
    <text
       xml:space="preserve"
       style="font-size:4.23333px;font-family:'Fira Code';-inkscape-font-specification:'Fira Code';fill:#abb2bf;fill-opacity:1;stroke:#abb2bf;stroke-width:1.00012;stroke-linejoin:bevel;stroke-miterlimit:4;stroke-dasharray:3.00038, 3.00038;stroke-dashoffset:0;stroke-opacity:1"
       x="46.092903"
       y="53.977982"
       id="text119297"><tspan
         sodipodi:role="line"
         id="tspan119295"
         style="stroke-width:1.00012"
         x="46.092903"
         y="53.977982" /></text>
  </g>
</svg>
