<?xml version="1.0" encoding="UTF-8" standalone="no"?>
<!-- Created with Inkscape (http://www.inkscape.org/) -->

<svg
   width="500"
   height="500"
   viewBox="0 0 132.29166 132.29167"
   version="1.1"
   id="svg5"
   inkscape:version="1.1.2 (0a00cf5339, 2022-02-04)"
   sodipodi:docname="lm10.svg"
   xmlns:inkscape="http://www.inkscape.org/namespaces/inkscape"
   xmlns:sodipodi="http://sodipodi.sourceforge.net/DTD/sodipodi-0.dtd"
   xmlns:xlink="http://www.w3.org/1999/xlink"
   xmlns="http://www.w3.org/2000/svg"
   xmlns:svg="http://www.w3.org/2000/svg">
  <sodipodi:namedview
     id="namedview7"
     pagecolor="#000000"
     bordercolor="#000000"
     borderopacity="0.25"
     inkscape:pageshadow="2"
     inkscape:pageopacity="0"
     inkscape:pagecheckerboard="0"
     inkscape:document-units="px"
     showgrid="false"
     units="px"
     width="400px"
     showguides="false"
     inkscape:zoom="0.74742565"
     inkscape:cx="112.38576"
     inkscape:cy="122.4202"
     inkscape:window-width="1920"
     inkscape:window-height="1048"
     inkscape:window-x="0"
     inkscape:window-y="32"
     inkscape:window-maximized="1"
     inkscape:current-layer="text33212"
     inkscape:snap-bbox="true" />
  <defs
     id="defs2">
    <pattern
       inkscape:collect="always"
       xlink:href="#Strips1_2white"
       id="pattern51449"
       patternTransform="matrix(-0.88490481,0,0,-58.076996,2.117234,0)" />
    <pattern
       inkscape:collect="always"
       patternUnits="userSpaceOnUse"
       width="3"
       height="1"
       patternTransform="translate(0,0) scale(10,10)"
       id="Strips1_2white"
       inkscape:stockid="Stripes 1:2 white"
       inkscape:isstock="true">
      <rect
         style="fill:white;stroke:none"
         x="0"
         y="-0.5"
         width="1"
         height="2"
         id="rect3221" />
    </pattern>
    <marker
       style="overflow:visible;"
       id="Arrow2Mend"
       refX="0.0"
       refY="0.0"
       orient="auto"
       inkscape:stockid="Arrow2Mend"
       inkscape:isstock="true">
      <path
         transform="scale(0.6) rotate(180) translate(0,0)"
         d="M 8.7185878,4.0337352 L -2.2072895,0.016013256 L 8.7185884,-4.0017078 C 6.9730900,-1.6296469 6.9831476,1.6157441 8.7185878,4.0337352 z "
         style="stroke:context-stroke;fill-rule:evenodd;fill:context-stroke;stroke-width:0.62500000;stroke-linejoin:round;"
         id="path7374" />
    </marker>
    <marker
       style="overflow:visible;"
       id="Arrow1Lend"
       refX="0.0"
       refY="0.0"
       orient="auto"
       inkscape:stockid="Arrow1Lend"
       inkscape:isstock="true">
      <path
         transform="scale(0.8) rotate(180) translate(12.5,0)"
         style="fill-rule:evenodd;fill:context-stroke;stroke:context-stroke;stroke-width:1.0pt;"
         d="M 0.0,0.0 L 5.0,-5.0 L -12.5,0.0 L 5.0,5.0 L 0.0,0.0 z "
         id="path7350" />
    </marker>
    <marker
       style="overflow:visible;"
       id="Arrow1Mend"
       refX="0.0"
       refY="0.0"
       orient="auto"
       inkscape:stockid="Arrow1Mend"
       inkscape:isstock="true">
      <path
         transform="scale(0.4) rotate(180) translate(10,0)"
         style="fill-rule:evenodd;fill:context-stroke;stroke:context-stroke;stroke-width:1.0pt;"
         d="M 0.0,0.0 L 5.0,-5.0 L -12.5,0.0 L 5.0,5.0 L 0.0,0.0 z "
         id="path7356" />
    </marker>
    <marker
       style="overflow:visible"
       id="TriangleOutL"
       refX="0.0"
       refY="0.0"
       orient="auto"
       inkscape:stockid="TriangleOutL"
       inkscape:isstock="true">
      <path
         transform="scale(0.8)"
         style="fill-rule:evenodd;fill:context-stroke;stroke:context-stroke;stroke-width:1.0pt"
         d="M 5.77,0.0 L -2.88,5.0 L -2.88,-5.0 L 5.77,0.0 z "
         id="path7489" />
    </marker>
    <marker
       style="overflow:visible"
       id="TriangleOutM"
       refX="0"
       refY="0"
       orient="auto"
       inkscape:stockid="TriangleOutM"
       inkscape:isstock="true">
      <path
         transform="scale(0.4)"
         style="fill:context-stroke;fill-rule:evenodd;stroke:context-stroke;stroke-width:1pt"
         d="M 5.77,0 -2.88,5 V -5 Z"
         id="path7492" />
    </marker>
    <marker
       style="overflow:visible"
       id="TriangleInM"
       refX="0"
       refY="0"
       orient="auto"
       inkscape:stockid="TriangleInM"
       inkscape:isstock="true">
      <path
         transform="scale(-0.4)"
         style="fill:context-stroke;fill-rule:evenodd;stroke:context-stroke;stroke-width:1pt"
         d="M 5.77,0 -2.88,5 V -5 Z"
         id="path7483" />
    </marker>
    <marker
       style="overflow:visible"
       id="TriangleInL"
       refX="0"
       refY="0"
       orient="auto"
       inkscape:stockid="TriangleInL"
       inkscape:isstock="true">
      <path
         transform="scale(-0.8)"
         style="fill:context-stroke;fill-rule:evenodd;stroke:context-stroke;stroke-width:1pt"
         d="M 5.77,0 -2.88,5 V -5 Z"
         id="path7480" />
    </marker>
    <marker
       style="overflow:visible"
       id="Arrow1Mend-9"
       refX="0"
       refY="0"
       orient="auto"
       inkscape:stockid="Arrow1Mend"
       inkscape:isstock="true">
      <path
         transform="matrix(-0.4,0,0,-0.4,-4,0)"
         style="fill:context-stroke;fill-rule:evenodd;stroke:context-stroke;stroke-width:1pt"
         d="M 0,0 5,-5 -12.5,0 5,5 Z"
         id="path7356-3" />
    </marker>
    <marker
       style="overflow:visible"
       id="Arrow1Mend_Fnone_S-abb2bf"
       refX="0"
       refY="0"
       orient="auto"
       inkscape:stockid="Arrow1Mend"
       inkscape:isstock="true">
      <path
         transform="matrix(-0.4,0,0,-0.4,-4,0)"
         style="fill:#abb2bf;fill-rule:evenodd;stroke:#abb2bf;stroke-width:1pt"
         d="M 0,0 5,-5 -12.5,0 5,5 Z"
         id="path30204" />
    </marker>
  </defs>
  <g
     inkscape:label="Layer 1"
     inkscape:groupmode="layer"
     id="layer1">
    <g
       aria-label="Example"
       id="text33212"
       style="font-size:11.9944px;font-family:'Fira Code';-inkscape-font-specification:'Fira Code';fill:#e06c75;stroke:#ffffff;stroke-width:0.499999;stroke-linejoin:bevel">
      <path
         d="m 42.630724,107.73841 v 2.85405 h 3.136997 v 0.87959 h -3.136997 v 3.00783 h 3.85051 v 0.85498 h -4.92078 v -8.46989 h 4.810062 l -0.123019,0.87344 z"
         style="fill:#ffffff;stroke:none;stroke-width:0.5"
         id="path899" />
      <path
         d="m 49.261457,115.33486 h -1.180988 l 2.392729,-3.41994 -2.097482,-3.05703 h 1.224044 l 1.500838,2.41118 1.519291,-2.41118 h 1.180987 l -2.091332,3.01397 2.386578,3.463 h -1.2671 l -1.771481,-2.78024 z"
         style="fill:#ffffff;stroke:none;stroke-width:0.5"
         id="path901" />
      <path
         d="m 60.653043,113.92014 q 0,0.39366 0.129171,0.57204 0.12917,0.17838 0.399813,0.25834 l -0.25219,0.72581 q -0.418266,-0.0554 -0.731966,-0.26449 -0.313699,-0.21528 -0.455172,-0.64585 -0.350605,0.44902 -0.879589,0.68276 -0.522833,0.22758 -1.150232,0.22758 -0.971854,0 -1.531593,-0.54743 -0.559739,-0.54744 -0.559739,-1.45163 0,-1.00261 0.781174,-1.53775 0.781174,-0.53513 2.257408,-0.53513 h 0.953401 v -0.54129 q 0,-0.70121 -0.412115,-0.9903 -0.405965,-0.29525 -1.13178,-0.29525 -0.31985,0 -0.750419,0.08 -0.430568,0.0738 -0.934948,0.25219 l -0.270643,-0.78117 q 0.590494,-0.22144 1.113327,-0.3137 0.528984,-0.0923 1.002609,-0.0923 1.205591,0 1.814537,0.56589 0.608946,0.56589 0.608946,1.52545 z m -2.675673,0.76887 q 0.479776,0 0.910344,-0.23989 0.436719,-0.24604 0.725815,-0.67661 v -1.66691 h -0.934948 q -1.07027,0 -1.51314,0.36906 -0.436719,0.36906 -0.436719,0.99031 0,1.22404 1.248648,1.22404 z"
         style="fill:#ffffff;stroke:none;stroke-width:0.5"
         id="path903" />
      <path
         d="m 67.665137,108.72256 q 0.307549,0 0.596645,0.13533 0.289095,0.13532 0.473625,0.52283 0.184529,0.38751 0.184529,1.13178 v 4.82236 h -0.959552 v -4.65629 q 0,-0.60894 -0.07381,-0.87959 -0.07381,-0.27064 -0.424417,-0.27064 -0.289096,0 -0.578192,0.18453 -0.289095,0.17838 -0.553587,0.59049 v 5.0315 h -0.965703 v -4.65629 q 0,-0.60894 -0.07381,-0.87959 -0.07381,-0.27064 -0.424417,-0.27064 -0.301398,0 -0.584343,0.18453 -0.282945,0.17838 -0.547436,0.59049 v 5.0315 h -0.953401 v -6.47697 h 0.811928 l 0.06151,0.75041 q 0.264492,-0.3752 0.590493,-0.62739 0.332153,-0.25835 0.81808,-0.25835 0.369058,0 0.69506,0.17838 0.326002,0.17223 0.479776,0.67661 0.264492,-0.38136 0.596645,-0.6151 0.332152,-0.23989 0.830381,-0.23989 z"
         style="fill:#ffffff;stroke:none;stroke-width:0.5"
         id="path905" />
      <path
         d="m 73.674621,108.72256 q 0.861136,0 1.371667,0.41827 0.516682,0.41827 0.744268,1.18099 0.227586,0.75657 0.227586,1.77148 0,0.978 -0.276794,1.74687 -0.270642,0.76273 -0.82423,1.19944 -0.553588,0.43672 -1.396271,0.43672 -1.064119,0 -1.709971,-0.75041 v 3.08778 l -1.033364,0.12917 v -9.08498 h 0.879589 l 0.08611,0.90419 q 0.356757,-0.49823 0.848835,-0.76887 0.492078,-0.27065 1.082571,-0.27065 z m -0.246039,0.83039 q -0.535135,0 -0.94725,0.326 -0.412115,0.31985 -0.670456,0.71351 v 3.21081 q 0.25219,0.37521 0.63355,0.59664 0.387512,0.21529 0.848835,0.21529 0.805777,0 1.211742,-0.6151 0.405964,-0.6151 0.405964,-1.91295 0,-2.5342 -1.482385,-2.5342 z"
         style="fill:#ffffff;stroke:none;stroke-width:0.5"
         id="path907" />
      <path
         d="m 80.680563,106.24987 v 7.48574 q 0,0.47977 0.295247,0.68276 0.301397,0.19683 0.775022,0.19683 0.289096,0 0.553588,-0.0615 0.270643,-0.0615 0.535135,-0.16608 l 0.276794,0.75657 q -0.264492,0.12917 -0.658155,0.22759 -0.387511,0.10456 -0.879589,0.10456 -0.861136,0 -1.396271,-0.47362 -0.535135,-0.47978 -0.535135,-1.32246 v -6.6123 h -1.986765 v -0.81808 z"
         style="fill:#ffffff;stroke:none;stroke-width:0.5"
         id="path909" />
      <path
         d="m 86.351745,112.46236 q 0.04306,1.12563 0.590494,1.64231 0.553587,0.51053 1.304006,0.51053 0.498229,0 0.898042,-0.14763 0.399814,-0.14762 0.830382,-0.43671 l 0.485927,0.68275 q -0.449021,0.35676 -1.033364,0.55974 -0.584342,0.20298 -1.193289,0.20298 -0.94725,0 -1.611555,-0.42441 -0.658154,-0.42442 -1.00876,-1.18099 -0.344454,-0.76272 -0.344454,-1.76533 0,-0.98416 0.344454,-1.74688 0.350606,-0.76272 0.984156,-1.19944 0.639701,-0.43672 1.500838,-0.43672 1.224044,0 1.925255,0.84884 0.707362,0.84883 0.707362,2.32507 0,0.16607 -0.0123,0.3137 -0.0062,0.14762 -0.0123,0.25219 z m 1.759179,-2.89096 q -0.719664,0 -1.205591,0.51053 -0.485927,0.51053 -0.547437,1.5808 h 3.376885 q -0.01845,-1.03951 -0.455172,-1.56235 -0.436719,-0.52898 -1.168685,-0.52898 z"
         style="fill:#ffffff;stroke:none;stroke-width:0.5"
         id="path911" />
    </g>
    <path
       style="fill:url(#pattern51449);fill-opacity:1;stroke:#ffffff;stroke-width:1;stroke-linejoin:bevel;stroke-miterlimit:4;stroke-dasharray:none;stroke-dashoffset:0;stroke-opacity:1"
       d="m 59.301685,19.267299 c -15.233571,1.705697 -29.263422,21.875417 -22.575213,37.131858 2.116336,4.827561 8.256495,6.709338 9.943497,11.818919 5.133263,15.547593 -16.94017,38.954914 24.673845,22.289407 C 81.07966,86.60849 81.584229,68.425739 82.980379,60.447649 84.795643,50.074583 95.670261,49.816686 97.047447,41.49731 99.336167,27.671453 84.107441,11.339507 70.840891,14.656144 c -6.067194,1.516799 -4.080803,5.022284 -11.539206,4.611155 z"
       id="path51313" />
  </g>
</svg>
