<?xml version="1.0" encoding="UTF-8" standalone="no"?>
<!-- Created with Inkscape (http://www.inkscape.org/) -->

<svg
   width="201.7654mm"
   height="225.26018mm"
   viewBox="0 0 201.76539 225.26019"
   version="1.1"
   id="svg5"
   inkscape:version="1.4.2 (ebf0e940, 2025-05-08)"
   sodipodi:docname="comic.svg"
   xmlns:inkscape="http://www.inkscape.org/namespaces/inkscape"
   xmlns:sodipodi="http://sodipodi.sourceforge.net/DTD/sodipodi-0.dtd"
   xmlns="http://www.w3.org/2000/svg"
   xmlns:svg="http://www.w3.org/2000/svg">
  <sodipodi:namedview
     id="namedview7"
     pagecolor="#ffffff"
     bordercolor="#000000"
     borderopacity="0.25"
     inkscape:pageshadow="2"
     inkscape:pageopacity="0.0"
     inkscape:pagecheckerboard="0"
     inkscape:document-units="mm"
     showgrid="false"
     units="mm"
     fit-margin-top="0"
     fit-margin-left="0"
     fit-margin-right="0"
     fit-margin-bottom="0"
     inkscape:zoom="0.91252582"
     inkscape:cx="386.83837"
     inkscape:cy="340.81227"
     inkscape:window-width="1472"
     inkscape:window-height="827"
     inkscape:window-x="0"
     inkscape:window-y="37"
     inkscape:window-maximized="0"
     inkscape:current-layer="layer1"
     inkscape:showpageshadow="2"
     inkscape:deskcolor="#d1d1d1" />
  <defs
     id="defs2" />
  <g
     inkscape:label="Layer 1"
     inkscape:groupmode="layer"
     id="layer1"
     transform="translate(-18.951116,-68.606209)">
    <g
       id="g2183"
       transform="matrix(0.52374608,0,0,0.52374608,58.277794,192.26375)">
      <path
         style="fill:#000000;stroke-width:2.084;stroke-linecap:round;stroke-linejoin:round;stroke-dasharray:4.16801, 4.16801"
         id="path1615"
         d="m 29.13562,22.006216 c -2.597269,1.415978 -4.783426,3.446604 -6.913931,5.470223 -0.572394,0.543679 -1.165723,1.067255 -1.70466,1.644116 -0.588495,0.629904 -1.115625,1.314458 -1.673438,1.971688 -3.461878,4.918419 -4.827712,10.435299 -4.52755,16.431278 0.0679,1.356469 0.307988,2.698816 0.461982,4.048223 0.349319,1.343181 0.578057,2.723653 1.047956,4.029546 1.551865,4.312777 4.290893,8.079523 8.003912,10.794648 3.348622,2.44866 4.422089,2.474396 8.240286,3.7178 5.109096,0.844474 9.501849,0.438875 13.870204,-2.568821 2.19506,-1.511339 4.397135,-3.939423 5.864424,-6.153808 0.744111,-1.12299 1.28384,-2.368751 1.925762,-3.553127 1.875094,-4.364117 2.613014,-8.972799 1.875668,-13.673211 -0.307446,-1.959893 -0.64448,-2.805944 -1.226733,-4.667793 -0.814908,-2.429507 -2.366052,-4.321225 -4.112149,-6.11682 -3.060903,-2.941867 -6.599205,-5.341154 -10.04934,-7.797093 -2.900503,-1.959532 -5.957898,-4.116679 -9.495951,-4.70607 -0.522113,-0.08698 -1.054558,-0.09255 -1.581838,-0.138828 -0.990471,0.09311 -2.000213,0.06376 -2.971414,0.279337 -0.784965,0.17424 -1.518837,0.536571 -2.246408,0.878872 -2.390857,1.12483 -4.431471,2.783007 -5.91522,4.985642 -0.418806,0.621721 -0.700823,1.325362 -1.051234,1.988042 -0.770031,2.558032 -0.547224,1.279144 -0.70762,3.829622 -0.01856,0.328049 4.620733,0.590473 4.639289,0.262427 v 0 c 0.09865,-1.285034 -0.03429,-0.611722 0.476569,-2.003015 1.009361,-1.517513 2.11765,-2.916415 3.61338,-4.000574 0.522501,-0.378727 1.112284,-0.654667 1.668425,-0.982 0.440217,-0.211869 0.919089,-0.357352 1.320652,-0.635606 0.06414,-0.04445 -0.06258,-0.142974 -0.09387,-0.21446 0.281879,-0.01751 0.564547,-0.07996 0.845635,-0.05254 2.725865,0.265869 5.637752,2.829474 7.837503,4.241028 1.427758,1.041969 2.894251,2.136193 4.367528,3.113244 1.69696,1.125394 3.48539,2.089724 5.207381,3.170642 0.266263,0.167137 0.514929,0.360794 0.772392,0.541192 0.271309,0.230225 0.594919,0.407334 0.821376,0.681797 0.853873,1.034881 1.214371,2.759797 1.824032,3.915278 0.472085,1.557628 0.72027,2.114272 0.890487,3.758789 0.388397,3.752424 -0.572847,7.523023 -1.901495,10.998653 -0.528526,0.934595 -0.97985,1.917276 -1.585584,2.803784 -1.160814,1.698887 -2.803731,3.511259 -4.525899,4.671404 -0.86995,0.586049 -1.854946,0.981075 -2.800707,1.434732 -0.50695,0.243171 -0.996783,0.58424 -1.554639,0.654418 -1.059854,0.133334 -2.136095,-0.03717 -3.204141,-0.05575 -2.957367,-0.830099 -3.900704,-0.872194 -6.58428,-2.57097 -3.072912,-1.94524 -5.456515,-4.733494 -6.809522,-8.115313 -0.433478,-1.083471 -0.645722,-2.242833 -0.968583,-3.364251 -0.166926,-1.139693 -0.407067,-2.271046 -0.500779,-3.419081 -0.317379,-3.888142 0.183195,-8.146719 1.921943,-11.678981 0.329586,-0.669554 0.773718,-1.276355 1.160577,-1.914532 0.46628,-0.549334 0.905643,-1.122696 1.398839,-1.647995 2.434132,-2.59257 5.388615,-4.648448 7.821369,-7.244451 0.215053,-0.224195 -2.955534,-3.265528 -3.170587,-3.041334 z" />
      <path
         style="fill:#000000;stroke-width:2.084;stroke-linecap:round;stroke-linejoin:round;stroke-dasharray:4.16801, 4.16801"
         id="path1645"
         d="m 24.670991,68.776889 c -1.991157,11.807171 -1.745001,23.824821 -1.41833,35.746501 0.326377,4.08554 0.438121,8.19368 0.905096,12.26833 0.138362,1.2073 0.379776,2.39632 0.503056,3.6059 -0.0034,1.87502 0.427121,3.67177 0.874582,5.48027 0.08919,0.3407 4.907391,-0.92068 4.8182,-1.26138 v 0 c -0.24433,-0.62513 -0.478494,-1.25433 -0.732986,-1.87539 -0.346027,-0.84443 -0.760865,-1.42995 -0.606634,-2.3435 0.12328,-1.20958 0.364694,-2.3986 0.503055,-3.6059 0.466976,-4.07465 0.578721,-8.18279 0.905095,-12.26833 0.326673,-11.92168 0.572828,-23.93933 -1.418328,-35.746501 0,-0.306374 -4.332806,-0.306374 -4.332806,0 z" />
      <path
         style="fill:#000000;stroke-width:2.084;stroke-linecap:round;stroke-linejoin:round;stroke-dasharray:4.16801, 4.16801"
         id="path1661"
         d="m 24.837227,126.4827 c -2.16671,6.40523 -4.867549,12.60845 -7.071422,19.00105 -0.776754,2.25307 -1.487319,4.52841 -2.230979,6.79262 -2.264538,7.31782 -4.302157,14.72184 -5.844982,22.22901 -0.5439621,2.64685 -0.9684091,5.31686 -1.4526135,7.97528 -0.079712,0.54002 7.5573355,1.66732 7.6370475,1.1273 v 0 c 0.436718,-2.56648 0.815097,-5.14357 1.310155,-7.69943 1.428426,-7.37462 3.428451,-14.61797 5.44609,-21.84746 1.182248,-4.28861 2.340189,-8.58394 3.537408,-12.86839 1.295324,-4.63554 2.907004,-9.30819 2.909078,-14.18004 0.03747,-0.29979 -4.202309,-0.82974 -4.239782,-0.52994 z" />
      <path
         style="fill:#000000;stroke-width:2.084;stroke-linecap:round;stroke-linejoin:round;stroke-dasharray:4.16801, 4.16801"
         id="path1663"
         d="m 28.610343,124.89358 c 0.04264,0.56771 0.05992,1.13789 0.127902,1.70312 0.417989,3.47519 1.232244,6.89995 1.783781,10.35525 0.882187,5.52677 0.928859,6.24466 1.68851,12.08873 1.186151,8.33565 2.250644,16.72149 4.354465,24.88968 0.764468,2.96809 1.087683,3.74599 2.023086,6.4368 1.308423,2.93545 2.479945,5.92666 3.980257,8.77205 0.119142,0.30256 4.398012,-1.38238 4.27887,-1.68494 v 0 c -1.158994,-2.68114 -2.662354,-5.26825 -3.093815,-8.199 -1.710629,-10.37579 -2.388298,-20.90162 -4.465156,-31.22197 -0.466891,-2.23156 -0.889116,-4.47293 -1.40068,-6.69467 -1.343179,-5.83351 -3.078729,-11.584 -4.987528,-17.25453 -0.05724,-0.30332 -4.34693,0.50616 -4.289692,0.80948 z" />
      <path
         style="fill:#000000;stroke-width:2.084;stroke-linecap:round;stroke-linejoin:round;stroke-dasharray:4.16801, 4.16801"
         id="path1673"
         d="m 23.809906,75.996116 c -2.805421,2.723105 -4.980424,6.074508 -6.514186,9.664848 -0.55281,1.294059 -0.986841,2.635695 -1.480261,3.953542 -0.403893,1.47206 -0.874859,2.92734 -1.211678,4.416176 -0.328522,1.452161 -0.554522,2.926197 -0.782246,4.397534 -0.756161,4.885604 -1.148758,9.726374 -0.801623,14.669054 0.08111,1.15491 0.274343,2.2992 0.411515,3.4488 0.638378,4.29751 1.224206,8.60729 1.561662,12.94004 0.02298,0.31928 0.04597,0.63855 0.06895,0.95782 -0.0078,0.31753 4.482674,0.4277 4.490464,0.11018 v 0 c 0.04347,-0.38193 0.08693,-0.76386 0.130397,-1.14578 0.142765,-4.39151 -0.502845,-8.72406 -0.699024,-13.10333 0.0858,-4.08323 0.188077,-8.17078 0.429892,-12.24835 0.0933,-1.57327 0.149206,-3.15187 0.348632,-4.715238 0.262966,-2.061493 1.255101,-6.189858 1.711183,-8.193643 0.574758,-2.105914 1.069246,-4.345286 2.002439,-6.344586 0.333267,-0.714002 0.799239,-1.35822 1.205827,-2.033167 0.896031,-1.487432 1.77172,-2.993462 2.747797,-4.429784 0.165753,-0.255955 -3.453985,-2.600068 -3.61974,-2.344116 z" />
      <path
         style="fill:#000000;stroke-width:2.084;stroke-linecap:round;stroke-linejoin:round;stroke-dasharray:4.16801, 4.16801"
         id="path1675"
         d="m 26.310069,87.487783 c 2.524249,8.086764 6.267153,15.737407 9.604734,23.509067 1.957806,4.56578 3.791101,9.18271 5.577239,13.81775 0.215541,0.55932 1.437855,4.13025 1.962894,4.96633 -0.01582,0.30969 4.36382,0.53356 4.37965,0.22387 v 0 c 0.09722,-0.44704 0.27164,-0.88407 0.291648,-1.34111 0.07495,-1.71221 -0.420534,-3.94205 -0.824196,-5.49987 -1.281152,-4.94427 -3.164435,-9.71831 -4.992925,-14.47591 -0.825005,-1.85138 -1.60805,-3.72205 -2.475021,-5.55416 -2.787026,-5.889634 -6.060173,-11.537763 -9.455282,-17.091587 -0.102222,-0.287705 -4.170962,1.157914 -4.068741,1.44562 z" />
    </g>
    <g
       id="g2193"
       transform="matrix(0.49495947,0,0,0.49495947,71.633791,199.15328)">
      <path
         style="fill:#000000;stroke-width:2.084;stroke-linecap:round;stroke-linejoin:round;stroke-dasharray:4.16801, 4.16801"
         id="path1689"
         d="m 140.07332,26.452599 c 0.84874,0.235175 1.67874,0.553466 2.54624,0.705525 1.94489,0.340905 3.91164,0.545341 5.87333,0.770282 4.81842,0.55251 9.66216,0.871233 14.47783,1.447154 5.2524,0.62815 10.47939,1.453089 15.7202,2.171464 5.16102,0.557544 8.24109,0.999451 13.29631,1.170123 1.3599,0.04591 2.72121,-0.02646 4.08182,-0.03968 0.38909,0.134303 2.28841,-5.368342 1.89931,-5.502645 v 0 c -5.46371,-1.175012 -10.96853,-2.117098 -16.50713,-2.875113 -14.07779,-1.907853 -28.3132,-3.969942 -42.53121,-2.299977 -0.31487,0.08084 0.82843,4.533711 1.1433,4.452867 z" />
      <path
         style="fill:#000000;stroke-width:2.084;stroke-linecap:round;stroke-linejoin:round;stroke-dasharray:4.16801, 4.16801"
         id="path1691"
         d="m 155.67825,18.257116 c 0.81624,-2.639734 1.1245,-5.171094 2.70207,-7.560962 1.36955,-2.0747234 2.33584,-2.7055475 4.20077,-4.3657563 0.88733,-0.5204462 1.71918,-1.1498423 2.66199,-1.5613387 3.19374,-1.3939306 7.71594,-1.4186374 10.91021,0.083292 1.10054,0.5174678 2.02684,1.3445299 3.04026,2.0167949 4.46771,4.1067701 8.22959,9.1003791 9.48606,15.1459201 0.13592,0.653962 0.16774,1.3253 0.25161,1.98795 0.0426,1.938702 -0.7252,3.714075 -1.32418,5.517186 -0.0972,0.31351 4.33645,1.688587 4.43368,1.37508 v 0 c 0.94377,-2.282823 1.79917,-4.623365 2.00389,-7.107593 0.004,-0.929833 0.10923,-1.86475 0.012,-2.789499 -0.56611,-5.38678 -3.44986,-11.048874 -7.02464,-15.0496991 -1.17133,-1.3109213 -2.56509,-2.4046569 -3.84764,-3.6069852 -1.44487,-0.871967 -2.79353,-1.92812727 -4.33462,-2.61590111 -5.11935,-2.28472459 -12.43378,-1.78573539 -17.37309,0.8163403 -1.18777,0.62573361 -2.22291,1.50600981 -3.33438,2.25901451 -0.91677,0.9554819 -1.92347,1.8321639 -2.75032,2.866445 -3.03535,3.7968105 -4.10664,7.8322376 -3.94083,12.5897116 0,0.298902 4.22711,0.298902 4.22711,0 z" />
      <path
         style="fill:#000000;stroke-width:2.084;stroke-linecap:round;stroke-linejoin:round;stroke-dasharray:4.16801, 4.16801"
         id="path1697"
         d="m 153.62933,30.101349 c -3.10444,0.839944 -6.17493,2.258301 -8.71588,4.256858 -0.70683,0.555939 -1.34018,1.199411 -2.01027,1.799116 -2.96444,3.079311 -5.06401,6.90136 -6.03531,11.075037 -0.74482,3.20048 -0.61942,4.17907 -0.73149,7.44351 0.14016,1.215382 0.16056,2.45064 0.42048,3.646149 1.00612,4.627552 3.55661,7.651496 7.74786,9.865759 3.6,1.901899 6.58382,2.179347 10.55371,2.981942 2.09405,0.199395 4.18154,0.487542 6.28216,0.598188 2.0447,0.107699 4.09589,0.12251 6.14235,0.05624 4.90729,-0.158914 10.03983,-0.45874 14.61828,-2.454261 0.76187,-0.332063 1.44284,-0.825246 2.16427,-1.237869 2.67614,-2.111156 3.07125,-4.097401 3.92607,-7.153074 0.26832,-0.959144 0.78666,-2.475177 1.09648,-3.405532 1.18182,-4.10102 2.21021,-8.389802 1.66953,-12.689617 -0.1113,-0.885098 -0.3521,-1.749047 -0.52815,-2.623572 -1.41147,-4.3918 -4.05187,-6.979636 -7.61042,-9.674529 -1.40713,-0.959138 -2.84854,-1.898322 -4.45931,-2.479984 -0.5799,-0.209407 -1.17985,-0.358815 -1.76566,-0.551082 -0.20417,-0.07852 -0.40834,-0.157046 -0.6125,-0.235569 -0.24932,-0.18028 -2.79884,3.345508 -2.54952,3.525787 v 0 c 0.24749,0.137493 0.49498,0.274989 0.74247,0.412483 0.32851,0.153971 0.64709,0.331168 0.98551,0.461909 0.59483,0.229793 1.11269,0.274542 1.70902,0.493832 0.96731,0.355716 1.76387,0.96721 2.54353,1.627539 2.74315,2.215854 4.73771,3.81893 5.99473,7.286733 0.14007,0.657072 0.33598,1.304682 0.42021,1.971218 0.47902,3.790619 -0.56294,7.550319 -1.27306,11.235846 -0.59114,1.98787 -0.53656,1.719831 -1.02646,3.691662 -0.25802,1.038471 -0.4145,2.511166 -1.19629,3.345918 -0.24263,0.25907 -0.57912,0.410578 -0.86868,0.615868 -0.59109,0.155763 -1.17272,0.353383 -1.77328,0.467286 -2.44613,0.463934 -4.47958,0.573006 -7.01302,0.699058 -5.07809,0.252664 -10.16724,0.03645 -15.24389,-0.119493 -4.55834,-0.33336 -8.1967,-0.311828 -12.17167,-2.878863 -0.78286,-0.505566 -1.58332,-1.066485 -2.10751,-1.836997 -0.95288,-1.400648 -1.02127,-3.98862 -1.19126,-5.521991 0.0352,-2.282042 -0.045,-3.990107 0.3987,-6.235176 0.49054,-2.482326 1.71181,-5.275972 3.16515,-7.353112 0.43867,-0.626954 0.99212,-1.16521 1.48818,-1.747814 0.5136,-0.472138 0.99385,-0.983358 1.54081,-1.416413 2.32937,-1.844283 5.16223,-2.883839 7.65998,-4.452352 0.24682,-0.168704 -2.13902,-3.659339 -2.38585,-3.490635 z" />
      <path
         style="fill:#000000;stroke-width:2.084;stroke-linecap:round;stroke-linejoin:round;stroke-dasharray:4.16801, 4.16801"
         id="path1723"
         d="m 165.7186,72.018924 c -1.17997,8.196143 -0.89652,16.535497 -0.58195,24.78714 0.22465,7.556696 -0.11348,15.116686 -0.11569,22.675736 0,0.42269 5.97763,0.42269 5.97763,0 v 0 c -0.002,-7.55905 -0.34033,-15.11904 -0.11568,-22.675736 0.31456,-8.251643 0.59802,-16.590997 -0.58196,-24.78714 0,-0.324022 -4.58235,-0.324022 -4.58235,0 z" />
      <path
         style="fill:#000000;stroke-width:2.084;stroke-linecap:round;stroke-linejoin:round;stroke-dasharray:4.16801, 4.16801"
         id="path1745"
         d="m 165.2572,118.60326 c -2.96593,5.71112 -4.97662,11.83803 -7.37137,17.7916 -0.65188,1.62064 -1.36312,3.21676 -2.04468,4.82515 -3.42366,7.94674 -6.50628,16.03142 -9.73097,24.05859 -1.82169,4.17188 -3.09434,8.52624 -4.13556,12.9473 -0.37578,1.75752 -0.87263,3.4856 -1.34624,5.2183 -0.0771,0.33561 4.66918,1.42664 4.74633,1.09102 v 0 c 0.48452,-1.74428 0.89026,-3.4939 1.19867,-5.27903 1.26703,-4.16597 2.93301,-8.17822 4.75468,-12.13164 3.60725,-7.91746 7.43939,-15.73705 10.66006,-23.82491 2.98887,-7.56398 5.94012,-15.25455 7.34167,-23.29742 0.0989,-0.28798 -3.97367,-1.68694 -4.07259,-1.39896 z" />
      <path
         style="fill:#000000;stroke-width:2.084;stroke-linecap:round;stroke-linejoin:round;stroke-dasharray:4.16801, 4.16801"
         id="path1747"
         d="m 165.62683,119.24521 c -0.67988,6.75076 -1.07522,13.53533 -1.30029,20.31592 -0.20147,7.89717 0.0469,15.80663 1.078,23.64189 0.24698,3.91422 0.35759,7.81252 0.94141,11.69869 0.11774,0.61092 0.21624,1.22585 0.35323,1.83274 0.11703,0.51849 0.24116,1.03688 0.40838,1.54144 0.37295,1.12532 1.04778,2.15076 1.3055,3.31 0.0652,1.74702 0.13358,3.48503 0.43538,5.20919 0.29853,1.40159 0.3649,2.82546 0.35847,4.2529 -0.01,0.30412 4.2913,0.44034 4.30093,0.13622 v 0 c 0.10776,-1.66743 0.0162,-3.33391 -0.29483,-4.9782 -0.26041,-1.80471 -0.29946,-3.6246 -0.52773,-5.43451 -0.49501,-2.14284 -1.40457,-4.16972 -1.36928,-6.42507 -0.25064,-2.17726 -0.47409,-4.35622 -0.75053,-6.53045 -0.0188,-0.14773 -0.39567,-3.00661 -0.43181,-3.43454 -0.0331,-0.39173 -0.0318,-0.78561 -0.0477,-1.17841 1.03112,-7.83526 1.27947,-15.74472 1.078,-23.64189 -0.22508,-6.78059 -0.62041,-13.56516 -1.30029,-20.31592 0,-0.29959 -4.23686,-0.29959 -4.23686,0 z" />
      <path
         style="fill:#000000;stroke-width:2.084;stroke-linecap:round;stroke-linejoin:round;stroke-dasharray:4.16801, 4.16801"
         id="path1771"
         d="m 162.89603,82.844986 c -2.26857,2.485048 -3.94012,5.444934 -5.66227,8.318198 -0.35633,0.610698 -0.7086,1.223788 -1.069,1.832094 -1.31438,2.218531 -1.44531,2.30051 -2.62214,4.623104 -1.04545,2.0633 -1.97202,4.189458 -2.87818,6.316418 -0.85843,2.5967 -2.5225,4.75828 -3.88081,7.09702 -2.27778,3.78462 -3.89423,7.88239 -4.70266,12.22105 -0.28369,1.42209 0.12971,2.78518 0.31628,4.17788 0.0423,0.29828 4.26053,-0.29999 4.21823,-0.59827 v 0 c -0.21004,-1.04758 -0.25625,-1.54198 0.16499,-2.61103 1.22247,-3.84815 2.50194,-7.69366 4.40169,-11.27212 1.20374,-2.49964 2.70743,-4.80416 4.06986,-7.21663 2.1877,-4.13348 4.20324,-8.358314 6.45803,-12.454281 1.54411,-2.757448 3.19345,-5.451231 4.77864,-8.184433 0.15903,-0.254039 -3.43363,-2.50304 -3.59266,-2.249 z" />
      <path
         style="fill:#000000;stroke-width:2.084;stroke-linecap:round;stroke-linejoin:round;stroke-dasharray:4.16801, 4.16801"
         id="path1775"
         d="m 170.47762,91.253933 c 2.93578,2.067394 5.13723,4.899943 7.22158,7.778142 0.96439,1.556705 1.89952,3.196605 2.27173,5.012015 0.13509,0.65894 0.24849,1.84493 0.3184,2.47593 0.23802,4.74575 0.36257,9.49605 0.54568,14.24409 0.007,2.45212 0.23887,4.90678 0.24767,7.35734 -0.0764,0.99371 -0.0993,1.98857 -0.0875,2.98465 0.005,0.31003 4.38902,0.24649 4.38452,-0.0635 v 0 c -0.0203,-0.8868 -0.0851,-1.77161 -0.0851,-2.65857 0.39505,-2.54731 0.7605,-5.0974 0.7224,-7.68986 0.0281,-4.93149 -0.28836,-9.84076 -1.09987,-14.71067 -0.53677,-3.26092 -1.00553,-6.531267 -2.8141,-9.392812 -2.37483,-3.61269 -5.01447,-6.915782 -9.05295,-8.740907 -0.24071,-0.181904 -2.8132,3.222291 -2.57249,3.404192 z" />
    </g>
    <text
       xml:space="preserve"
       style="font-size:7.76111px;font-family:'AR PL UMing CN';-inkscape-font-specification:'AR PL UMing CN, Normal';fill:#000000;stroke-width:2.084;stroke-linecap:round;stroke-linejoin:round;stroke-dasharray:4.16801, 4.16801"
       x="18.604851"
       y="74.759377"
       id="text4331"><tspan
         sodipodi:role="line"
         id="tspan4329"
         style="font-style:normal;font-variant:normal;font-weight:normal;font-stretch:normal;font-size:7.76111px;font-family:'Fira Code';-inkscape-font-specification:'Fira Code, Normal';font-variant-ligatures:normal;font-variant-caps:normal;font-variant-numeric:normal;font-variant-east-asian:normal;stroke-width:2.084"
         x="18.604851"
         y="74.759377">So what IS a convolution?</tspan></text>
    <text
       xml:space="preserve"
       style="font-style:normal;font-variant:normal;font-weight:normal;font-stretch:normal;font-size:7.7611px;font-family:'Fira Code';-inkscape-font-specification:'Fira Code, Normal';font-variant-ligatures:normal;font-variant-caps:normal;font-variant-numeric:normal;font-variant-east-asian:normal;fill:#000000;stroke-width:2.084;stroke-linecap:round;stroke-linejoin:round;stroke-dasharray:4.16801, 4.16801"
       x="87.161835"
       y="93.361839"
       id="text29829"><tspan
         sodipodi:role="line"
         id="tspan29827"
         style="stroke-width:2.084"
         x="87.161835"
         y="93.361839">It's this cool operation where</tspan><tspan
         sodipodi:role="line"
         style="stroke-width:2.084"
         x="87.161835"
         y="103.06322"
         id="tspan33143">you slide one function over another</tspan></text>
    <text
       xml:space="preserve"
       style="font-style:normal;font-variant:normal;font-weight:normal;font-stretch:normal;font-size:7.7611px;font-family:'Fira Code';-inkscape-font-specification:'Fira Code, Normal';font-variant-ligatures:normal;font-variant-caps:normal;font-variant-numeric:normal;font-variant-east-asian:normal;fill:#000000;stroke-width:2.084;stroke-linecap:round;stroke-linejoin:round;stroke-dasharray:4.16801, 4.16801"
       x="29.050726"
       y="122.3363"
       id="text44325"><tspan
         sodipodi:role="line"
         id="tspan44323"
         style="stroke-width:2.084"
         x="29.050726"
         y="122.3363">But why</tspan></text>
    <text
       xml:space="preserve"
       style="font-style:normal;font-variant:normal;font-weight:normal;font-stretch:normal;font-size:7.7611px;font-family:'Fira Code';-inkscape-font-specification:'Fira Code, Normal';font-variant-ligatures:normal;font-variant-caps:normal;font-variant-numeric:normal;font-variant-east-asian:normal;fill:#000000;stroke-width:2.084;stroke-linecap:round;stroke-linejoin:round;stroke-dasharray:4.16801, 4.16801"
       x="85.457756"
       y="136.95941"
       id="text51156"><tspan
         sodipodi:role="line"
         id="tspan51154"
         style="stroke-width:2.084"
         x="85.457756"
         y="136.95941">Well imagine you wanted to blur</tspan><tspan
         sodipodi:role="line"
         style="stroke-width:2.084"
         x="85.457756"
         y="146.66078"
         id="tspan53996">an image... actually, imagine...</tspan><tspan
         sodipodi:role="line"
         style="stroke-width:2.084"
         x="85.457756"
         y="156.36217"
         id="tspan53998">and then... and it's even</tspan><tspan
         sodipodi:role="line"
         style="stroke-width:2.084"
         x="85.457756"
         y="166.06354"
         id="tspan66886">applicable to...</tspan></text>
    <text
       xml:space="preserve"
       style="font-style:normal;font-variant:normal;font-weight:normal;font-stretch:normal;font-size:7.7611px;font-family:'Fira Code';-inkscape-font-specification:'Fira Code, Normal';font-variant-ligatures:normal;font-variant-caps:normal;font-variant-numeric:normal;font-variant-east-asian:normal;fill:#000000;stroke-width:2.084;stroke-linecap:round;stroke-linejoin:round;stroke-dasharray:4.16801, 4.16801"
       x="24.2668"
       y="183.7442"
       id="text63146"><tspan
         sodipodi:role="line"
         id="tspan63144"
         style="stroke-width:2.084"
         x="24.2668"
         y="183.7442">*dies of starvation*</tspan></text>
    <path
       style="fill:#000000;stroke-width:2.084;stroke-linecap:round;stroke-linejoin:round;stroke-dasharray:4.16801, 4.16801"
       id="path74226"
       d="m 29.359267,81.518058 c 0.432951,4.745656 1.264965,9.424286 2.205339,14.091121 0.251354,1.450562 0.703961,2.880402 0.75221,4.362386 0.03661,1.124325 -0.158101,2.260585 -0.294513,3.371935 -0.145473,1.15165 -0.280908,2.30561 -0.347212,3.46502 -0.03071,0.53698 0.02482,1.09185 -0.06515,1.62177 -0.229684,0.58611 -0.60802,1.06059 -0.989697,1.55134 -0.03947,0.0639 0.86366,0.62201 0.903126,0.55815 v 0 c 0.465338,-0.60318 0.904298,-1.20814 1.115957,-1.95371 0.315613,-1.68036 0.164309,-3.44645 0.521882,-5.12823 0.33051,-2.83195 0.382138,-5.241555 -0.321669,-8.057206 -0.882486,-4.659156 -1.666722,-9.330568 -2.417639,-14.011195 -0.0091,-0.07514 -1.071731,0.05348 -1.062635,0.128619 z" />
    <path
       style="fill:#000000;stroke-width:2.084;stroke-linecap:round;stroke-linejoin:round;stroke-dasharray:4.16801, 4.16801"
       id="path74228"
       d="m 30.538634,132.85039 c -0.345654,3.44526 -1.17606,6.82408 -1.874502,10.20878 -0.866851,4.20085 -0.755837,3.75212 -1.472998,7.89021 -0.43778,3.11122 -1.204169,6.24861 -1.038794,9.4149 0.04793,0.91768 0.149374,1.31106 0.313539,2.19221 0.738523,3.62057 1.266372,7.28919 1.619263,10.96781 0.03669,0.66172 0.07338,1.32343 0.110067,1.98515 0.0037,0.0873 1.237565,0.0352 1.233884,-0.052 v 0 c -0.03056,-0.67716 -0.06112,-1.35432 -0.09167,-2.03147 -0.339333,-3.71683 -0.906581,-7.40349 -1.767125,-11.03799 -0.135054,-0.75926 -0.247378,-1.22153 -0.257218,-2.00733 -0.03894,-3.11023 0.883923,-6.16621 1.316816,-9.218 0.970465,-5.37148 0.408741,-2.33079 1.459957,-7.86284 0.573781,-3.01953 1.206111,-6.04844 1.467578,-9.11695 0.03773,-0.44274 0.02696,-0.88829 0.04043,-1.33244 0,-0.0749 -1.059228,-0.0749 -1.059228,0 z" />
    <path
       style="fill:#000000;stroke-width:2.084;stroke-linecap:round;stroke-linejoin:round;stroke-dasharray:4.16801, 4.16801"
       id="path74793"
       d="m 34.430303,189.30812 c 2.049393,2.65047 4.314251,5.13201 6.833788,7.34511 1.826918,1.60472 3.18784,2.56011 5.136321,4.01497 2.876934,1.81052 5.73971,4.75731 9.232411,5.33413 0.632174,0.0738 1.121833,0.40497 1.619033,0.77684 0.51526,0.59617 1.243169,0.8583 1.955625,1.13336 0.06537,0.0395 0.624607,-0.88499 0.559234,-0.92453 v 0 c -0.642519,-0.2175 -1.31327,-0.38137 -1.764403,-0.92562 -0.590695,-0.47537 -1.229177,-0.88303 -1.977771,-1.05143 -0.8764,-0.11332 -1.565344,-0.47197 -2.33163,-0.92939 -2.202603,-1.31479 -4.2253,-2.90521 -6.313545,-4.38696 -2.007876,-1.48473 -3.170643,-2.28485 -5.056524,-3.91431 -2.498151,-2.15847 -4.758192,-4.5603 -6.954451,-7.01858 -0.03864,-0.0663 -0.976725,0.48007 -0.938088,0.54641 z" />
    <circle
       id="path2"
       style="fill:#000000;stroke:#000000;stroke-width:0.264583"
       cx="152.61629"
       cy="182.84499"
       r="0.0096552055" />
    <circle
       id="path3"
       style="fill:#000000;stroke:#000000;stroke-width:0.264583"
       cx="156.67552"
       cy="184.00476"
       r="0.0096552055" />
    <circle
       id="path5"
       style="fill:#000000;stroke:#000000;stroke-width:0.264583"
       cx="153.77606"
       cy="174.43654"
       r="0.0096552055" />
    <path
       style="fill:#000000;stroke-width:0.264583"
       id="path9"
       d="m 143.23305,196.94966 c -1.21024,-1.55305 -1.93659,-3.4113 -2.71729,-5.20104 -1.21238,-2.76698 -2.22471,-5.61279 -3.29108,-8.43703 -0.61644,-1.72563 -1.30677,-3.42233 -1.98983,-5.12203 -0.32802,-0.735 -0.60243,-1.491 -0.88409,-2.24426 -0.17007,-0.65099 -0.39197,-1.28365 -0.6106,-1.91965 -0.32843,-0.82566 -0.59533,-1.66682 -0.73963,-2.54383 -0.0393,-0.3362 -0.0611,-0.66858 -0.15694,-0.99418 0,0 -1.7953,-0.83864 -1.7953,-0.83864 v 0 c 0.13326,0.31307 0.16285,0.63376 0.19193,0.9718 0.14634,0.88769 0.39167,1.74455 0.73763,2.57695 0.20414,0.63721 0.43599,1.26459 0.58864,1.91687 0.28161,0.76518 0.58088,1.52404 0.91857,2.26676 0.70129,1.71113 1.42448,3.41327 2.06093,5.15069 1.08866,2.81462 2.10619,5.65769 3.27701,8.4401 0.77288,1.76695 1.45464,3.62088 2.60282,5.18677 z" />
    <path
       style="fill:#000000;stroke-width:0.264583"
       id="path10"
       d="m 128.85173,126.25627 c -0.0599,-2.09993 -0.0509,-4.20097 -0.0555,-6.30152 -0.0469,-2.13723 0.0805,-4.26962 0.19592,-6.40221 0.0535,-1.10868 0.11025,-2.21744 0.13822,-3.32714 0.0105,-0.44657 0.0125,-0.89323 0.0153,-1.33989 -5.3e-4,-0.20974 -7.9e-4,-0.10799 1.2e-4,-0.30527 0,0 -1.7682,-0.90045 -1.7682,-0.90045 v 0 c 0.002,0.19812 0.001,0.0961 0.001,0.30601 0.005,0.44861 0.007,0.89728 0.005,1.34591 -0.009,1.1162 -0.0322,2.23227 -0.0847,3.34737 -0.0988,2.14387 -0.21062,4.28744 -0.15339,6.43459 -0.005,2.08168 0.005,4.1639 -0.0555,6.24495 z" />
  </g>
</svg>
