<?xml version="1.0" encoding="UTF-8" standalone="no"?>
<!-- Created with Inkscape (http://www.inkscape.org/) -->

<svg
   width="161.11411mm"
   height="73.256004mm"
   viewBox="0 0 161.11411 73.256004"
   version="1.1"
   id="svg1"
   inkscape:version="1.4.2 (ebf0e940, 2025-05-08)"
   sodipodi:docname="conformalmap.svg"
   xmlns:inkscape="http://www.inkscape.org/namespaces/inkscape"
   xmlns:sodipodi="http://sodipodi.sourceforge.net/DTD/sodipodi-0.dtd"
   xmlns="http://www.w3.org/2000/svg"
   xmlns:svg="http://www.w3.org/2000/svg">
  <sodipodi:namedview
     id="namedview1"
     pagecolor="#ffffff"
     bordercolor="#000000"
     borderopacity="0.25"
     inkscape:showpageshadow="2"
     inkscape:pageopacity="0.0"
     inkscape:pagecheckerboard="0"
     inkscape:deskcolor="#d1d1d1"
     inkscape:document-units="mm"
     inkscape:zoom="1.1443047"
     inkscape:cx="339.50748"
     inkscape:cy="70.348397"
     inkscape:window-width="1472"
     inkscape:window-height="920"
     inkscape:window-x="0"
     inkscape:window-y="36"
     inkscape:window-maximized="0"
     inkscape:current-layer="layer1" />
  <defs
     id="defs1" />
  <g
     inkscape:label="Layer 1"
     inkscape:groupmode="layer"
     id="layer1"
     transform="translate(-20.491815,-92.025646)">
    <path
       style="fill:none;stroke:#000000;stroke-width:0.799999;stroke-linejoin:round"
       d="m 20.747888,107.9737 c 0.846852,-0.70571 1.595296,-1.54997 2.540557,-2.11713 2.535252,-1.52115 7.476768,-1.04025 9.738804,0.42343 2.284608,1.47827 4.014878,4.37029 6.351394,5.92796 2.419313,1.61288 4.849099,2.25054 6.774821,4.65769 4.69247,5.86559 4.65769,14.07117 4.65769,21.17132 0,2.30697 0.296857,5.2468 0,7.62167 -0.499631,3.99704 -1.263639,7.10152 1.270278,10.58566 2.285074,3.14197 8.767231,8.03124 12.702789,8.46852 0.98195,0.10911 1.97599,0 2.963984,0 0.846852,0 1.783109,0.37873 2.540558,0 0.357063,-0.17853 0.50024,-0.64878 0.846852,-0.84685"
       id="path1"
       sodipodi:nodetypes="cssssssssssc" />
    <path
       style="fill:none;stroke:#000000;stroke-width:0.799999;stroke-linejoin:round"
       d="m 36.414659,158.36143 c 0.228841,-1.65103 -0.297905,-3.44264 0,-5.08112 0.159684,-0.87826 0.630352,-1.67455 0.846855,-2.54055 0.857419,-3.42968 0.908396,-7.07886 2.963981,-10.16223 0.332164,-0.49825 0.938118,-0.77204 1.270281,-1.27028 0.669165,-1.00375 1.402712,-3.04357 2.117132,-4.23427 0.904248,-1.50708 3.950002,-5.57412 5.50454,-6.35139 0.12624,-0.0631 0.323625,0.0998 0.423426,0 0.0998,-0.0998 -0.0998,-0.32363 0,-0.42343 1.263914,-1.26391 3.377155,-1.26002 4.65769,-2.54055 1.867067,-1.86707 3.728633,-4.72077 4.657688,-7.19825 0.869556,-2.31882 1.707219,-5.1622 2.117133,-7.62168 0.183575,-1.10145 -0.103651,-2.77433 0,-3.81083 0.07161,-0.71612 0.321646,-1.40468 0.423425,-2.11713 0.284398,-1.9908 -0.03533,-5.010453 0.846852,-6.774824"
       id="path2" />
    <path
       style="fill:none;stroke:#000000;stroke-width:0.799999;stroke-linejoin:round"
       d="m 159.63171,94.847486 c -2.85137,2.558674 -4.93814,5.878474 -7.19825,8.891954 -0.23952,0.31937 -0.66832,0.48979 -0.84685,0.84685 -0.18936,0.37872 0.29941,0.97087 0,1.27028 -0.0998,0.0998 -0.32362,-0.0998 -0.42343,0 -0.58648,0.58648 -0.65984,2.63938 -0.84685,3.38741 -0.0484,0.19365 -0.36031,0.23406 -0.42343,0.42343 -0.26783,0.80349 -0.51729,1.97529 -0.84685,2.96398 -0.46975,1.40926 0,5.13445 0,6.77482 0,0.56457 -0.39921,1.2945 0,1.69371 0.0998,0.0998 0.32362,-0.0998 0.42343,0 0.1996,0.1996 -0.15659,0.61197 0,0.84685 0.22144,0.33216 0.62541,0.51469 0.84685,0.84685 0.15658,0.23488 -0.12624,0.59437 0,0.84685 0.33604,0.67209 1.41428,0.99086 1.6937,1.27028 0.22317,0.22317 0.20026,0.62369 0.42343,0.84686 0.0998,0.0998 0.32363,-0.0998 0.42343,0 0.0998,0.0998 -0.0998,0.32362 0,0.42342 0.21171,0.21172 0.63514,0.21172 0.84685,0.42343 0.0998,0.0998 -0.0998,0.32362 0,0.42342 0.1996,0.19961 0.57905,-0.0893 0.84685,0 1.77152,-0.76676 0.48979,0.66832 0.84685,0.84686 0.25249,0.12624 0.57906,-0.0893 0.84686,0 0.95755,0.31918 3.55508,3.63466 3.81083,4.65769 0.18494,0.73973 0,2.15734 0,2.96398 0,4.65893 -1.08554,10.97671 2.11713,14.81992 2.10237,2.52283 4.64983,4.36929 7.19825,6.35139 0.63024,0.49018 0.97958,1.33665 1.69371,1.69371 1.70365,0.85182 3.86633,1.29803 5.50454,2.11713 0.17853,0.0893 0.23406,0.3603 0.42343,0.42343 0.8118,0.2706 1.81731,0.12361 2.54055,0.84685 1.28173,1.28173 1.20924,1.51059 1.69371,2.96398"
       id="path3" />
    <path
       style="fill:none;stroke:#000000;stroke-width:0.799999;stroke-linejoin:round"
       d="m 174.0282,100.35203 c -1.51261,1.05883 -2.74041,2.32037 -4.23426,3.38741 -1.31086,0.93632 -3.48252,2.30735 -4.23427,3.81083 -0.1996,0.39922 -0.22382,0.87107 -0.42342,1.27028 -0.17853,0.35707 -0.62541,0.51469 -0.84685,0.84686 -1.04844,1.57265 -3.02427,3.68881 -3.38741,5.50454 -0.21583,1.07913 0.26653,2.32128 0,3.38741 -0.0766,0.30618 -0.34689,0.54067 -0.42343,0.84685 -0.16605,0.6642 0.16605,1.45293 0,2.11713 -0.46635,1.86542 -1.41492,3.25327 -2.11713,4.65769 -0.0798,0.15962 -0.39452,2.93507 -0.42343,2.96399 -0.0998,0.0998 -0.32362,-0.0998 -0.42342,0 -0.19961,0.1996 0.1996,0.64724 0,0.84685 -0.0998,0.0998 -0.32363,-0.0998 -0.42343,0 -0.13603,0.13602 -0.26767,1.38219 -0.42343,1.6937 -0.97336,1.94673 -2.24895,4.03055 -3.38741,5.92797 -0.77844,1.2974 -1.72776,2.16821 -2.54055,3.38741 -1.49294,2.23941 -1.01278,2.44897 -2.11714,4.65769 -0.22758,0.45517 -0.68592,0.7875 -0.84685,1.27028 -0.1339,0.4017 0,0.84685 0,1.27028 -0.14114,0.56457 -0.19419,1.15881 -0.42342,1.6937 -1.07819,2.51576 -2.61985,4.81627 -3.81084,7.19825 -0.0906,0.18122 -0.52973,1.85286 -0.84685,2.11713 -1.3368,1.11399 -3.79158,1.90301 -5.50454,2.11713 -0.42016,0.0525 -0.8595,-0.10269 -1.27028,0 -0.19365,0.0484 -0.23407,0.36031 -0.42343,0.42343 -0.2678,0.0893 -0.57905,-0.0893 -0.84685,0 -0.77627,0.25875 -1.68376,1.27028 -2.54056,1.27028"
       id="path4" />
    <path
       style="fill:#808080;fill-opacity:1;stroke:#808080;stroke-width:0.799999;stroke-linejoin:round"
       d="M 80.450993,135 H 124.43188 L 116,130 v 10 l 8.43188,-5"
       id="path5"
       sodipodi:nodetypes="ccccc" />
    <text
       xml:space="preserve"
       style="font-style:normal;font-variant:normal;font-weight:500;font-stretch:normal;font-size:8.81944px;font-family:'Fira Code';-inkscape-font-specification:'Fira Code, Medium';font-variant-ligatures:normal;font-variant-caps:normal;font-variant-numeric:normal;font-variant-east-asian:normal;text-align:start;writing-mode:lr-tb;direction:ltr;text-anchor:start;fill:#808080;fill-opacity:1;stroke:none;stroke-width:0.799999;stroke-linejoin:round"
       x="81.765991"
       y="131.4079"
       id="text5"><tspan
         sodipodi:role="line"
         id="tspan5"
         style="font-style:normal;font-variant:normal;font-weight:500;font-stretch:normal;font-size:8.81944px;font-family:'Fira Code';-inkscape-font-specification:'Fira Code, Medium';font-variant-ligatures:normal;font-variant-caps:normal;font-variant-numeric:normal;font-variant-east-asian:normal;stroke:none;stroke-width:0.8"
         x="81.765991"
         y="131.4079">invert</tspan></text>
    <path
       style="fill:none;fill-opacity:1;stroke:#0000ff;stroke-width:0.799999;stroke-linejoin:round;stroke-dasharray:1.6, 1.6;stroke-dashoffset:0;stroke-opacity:1"
       d="m 42.224187,92.114631 8.125978,35.611939 23.165093,-10.35333"
       id="path6"
       sodipodi:nodetypes="ccc" />
    <path
       style="fill:none;fill-opacity:1;stroke:#0000ff;stroke-width:0.799999;stroke-linejoin:round;stroke-dasharray:1.6, 1.6;stroke-dashoffset:0;stroke-opacity:1"
       d="m 130.84069,110.90538 26.67389,18.23964 8.99379,-28.43636"
       id="path7"
       sodipodi:nodetypes="ccc" />
    <path
       style="fill:none;fill-opacity:1;stroke:#0000ff;stroke-width:0.799999;stroke-linejoin:round;stroke-dasharray:none;stroke-dashoffset:0;stroke-opacity:1"
       d="m 47.553721,114.28233 c 0.645273,-0.87157 1.650447,-1.37136 2.684486,-1.62987 0.124015,-0.031 0.258146,0.0251 0.383498,0 0.327781,-0.0656 0.336819,-0.15264 0.766995,-0.19174 1.410607,-0.12824 3.108412,-0.0414 4.410223,0.47937 0.383183,0.15327 0.975659,0.2425 1.342242,0.3835 0.404394,0.15553 0.860128,0.38212 1.246367,0.57524 0.244219,0.12211 0.44381,0.34299 0.671121,0.47937 0.183833,0.1103 0.403741,0.159 0.575247,0.28763 0.360381,0.27029 0.712276,0.58904 0.958744,0.95874 0.21608,0.32412 0.608642,0.56627 0.862872,0.86287 0.42966,0.50127 0.823254,1.02626 1.246368,1.53399 0.164711,0.19766 0.662024,0.7488 0.766995,0.95875 0.039,0.078 0.05687,0.40136 0.09587,0.47937 0.01429,0.0286 0.07328,-0.0226 0.09587,0 0.04794,0.0479 -0.04794,0.23969 0,0.28762 0.02259,0.0226 0.07328,-0.0226 0.09587,0 0.119417,0.11942 0.123674,0.4391 0.191749,0.57525 0.04042,0.0809 0.151323,0.1109 0.191749,0.19175 0.02894,0.0579 -0.04432,0.2433 0,0.28762 0.02259,0.0226 0.07328,-0.0226 0.09587,0 0.0452,0.0452 -0.0452,0.14656 0,0.19175 0.0226,0.0226 0.07328,-0.0226 0.09588,0 0.0452,0.0452 0,0.12783 0,0.19175"
       id="path9" />
    <path
       style="fill:none;fill-opacity:1;stroke:#0000ff;stroke-width:0.799999;stroke-linejoin:round;stroke-dasharray:none;stroke-dashoffset:0;stroke-opacity:1"
       d="m 144.86737,120.05096 c 0.042,-0.41991 0.0376,-0.84708 0.12597,-1.25971 0.24982,-1.16583 2.2474,-2.8057 3.14929,-3.52721 0.1912,-0.15296 0.45673,-0.20479 0.62986,-0.37792 0.258,-0.25799 0.44711,-0.63482 0.75583,-0.8818 0.19119,-0.15295 0.44176,-0.22117 0.62986,-0.37791 0.18248,-0.15207 0.30625,-0.37213 0.50389,-0.50389 0.0699,-0.0466 0.17682,0.0376 0.25194,0 0.10623,-0.0531 0.1501,-0.19084 0.25194,-0.25194 0.49361,-0.29616 1.1114,-0.0207 1.63763,-0.12597 0.53567,-0.10714 2.64333,-0.4206 3.14929,-0.25195 0.0398,0.0133 -0.0297,0.0963 0,0.12597 0.0891,0.0891 0.25571,-0.0305 0.37792,0 0.21756,0.0544 0.41662,0.18087 0.62986,0.25195 0.11318,0.0377 0.26188,-0.029 0.37791,0 0.57656,0.14414 0.97656,0.57746 1.51166,0.75583 0.57862,0.19287 1.12917,0.37562 1.63763,0.62986 0.16872,0.0844 0.17455,0.30052 0.25195,0.37791 0.0297,0.0297 0.0884,-0.0188 0.12597,0 0.19995,0.1 0.29478,0.42076 0.37791,0.50389 0.0117,0.0117 0.21687,0.0909 0.25194,0.12597"
       id="path10" />
    <text
       xml:space="preserve"
       style="font-style:normal;font-variant:normal;font-weight:500;font-stretch:normal;font-size:8.81944px;font-family:'Fira Code';-inkscape-font-specification:'Fira Code, Medium';font-variant-ligatures:normal;font-variant-caps:normal;font-variant-numeric:normal;font-variant-east-asian:normal;text-align:start;writing-mode:lr-tb;direction:ltr;text-anchor:start;fill:#0000ff;fill-opacity:1;stroke:none;stroke-width:0.799999;stroke-linejoin:round;stroke-dasharray:none;stroke-dashoffset:0;stroke-opacity:1"
       x="51.343857"
       y="119.42741"
       id="text11"><tspan
         sodipodi:role="line"
         id="tspan11"
         style="fill:#0000ff;fill-opacity:1;stroke:none;stroke-width:0.8"
         x="51.343857"
         y="119.42741">α</tspan></text>
    <text
       xml:space="preserve"
       style="font-style:normal;font-variant:normal;font-weight:500;font-stretch:normal;font-size:8.81944px;font-family:'Fira Code';-inkscape-font-specification:'Fira Code, Medium';font-variant-ligatures:normal;font-variant-caps:normal;font-variant-numeric:normal;font-variant-east-asian:normal;text-align:start;writing-mode:lr-tb;direction:ltr;text-anchor:start;fill:#0000ff;fill-opacity:1;stroke:none;stroke-width:0.799999;stroke-linejoin:round;stroke-dasharray:none;stroke-dashoffset:0;stroke-opacity:1"
       x="152.41794"
       y="119.68253"
       id="text11-8"><tspan
         sodipodi:role="line"
         id="tspan11-4"
         style="fill:#0000ff;fill-opacity:1;stroke:none;stroke-width:0.8"
         x="152.41794"
         y="119.68253">α</tspan></text>
  </g>
</svg>
