<?xml version="1.0" encoding="UTF-8" standalone="no"?>
<!-- Created with Inkscape (http://www.inkscape.org/) -->

<svg
   width="300"
   height="320"
   viewBox="0 0 79.374998 84.666672"
   version="1.1"
   id="svg5"
   sodipodi:docname="lm1.svg"
   inkscape:version="1.1.2 (0a00cf5339, 2022-02-04)"
   xmlns:inkscape="http://www.inkscape.org/namespaces/inkscape"
   xmlns:sodipodi="http://sodipodi.sourceforge.net/DTD/sodipodi-0.dtd"
   xmlns="http://www.w3.org/2000/svg"
   xmlns:svg="http://www.w3.org/2000/svg">
  <sodipodi:namedview
     id="namedview7"
     pagecolor="#000000"
     bordercolor="#000000"
     borderopacity="0.25"
     inkscape:pageshadow="2"
     inkscape:pageopacity="1"
     inkscape:pagecheckerboard="0"
     inkscape:document-units="mm"
     showgrid="false"
     units="px"
     width="300px"
     inkscape:snap-bbox="true"
     inkscape:snap-global="true"
     inkscape:bbox-paths="false"
     inkscape:zoom="1.0897757"
     inkscape:cx="24.775741"
     inkscape:cy="72.033172"
     inkscape:window-width="1920"
     inkscape:window-height="1048"
     inkscape:window-x="0"
     inkscape:window-y="32"
     inkscape:window-maximized="1"
     inkscape:current-layer="text4187" />
  <defs
     id="defs2" />
  <g
     inkscape:label="Layer 1"
     inkscape:groupmode="layer"
     id="layer1">
    <path
       style="fill:none;stroke:#000000;stroke-width:0.5;stroke-linejoin:bevel;stroke-miterlimit:4;stroke-dasharray:2, 2;stroke-dashoffset:0;stroke-opacity:1"
       d="m 26.343281,20.533555 c -6.137387,1.24219 -11.392534,3.794982 -14.908187,9.068461 -8.3942519,12.591378 8.143358,30.197316 18.715755,34.603745 6.789669,2.829841 22.756876,-1.792827 26.00086,-8.954537 2.13913,-4.722537 -4.238124,-10.508885 -1.731539,-14.686528 3.618963,-6.031603 9.329963,-5.112867 13.647219,-9.369423 C 73.610151,25.730442 72.110778,15.278305 65.69808,11.839838 63.841544,10.84437 60.604134,7.8783172 58.3353,7.8783172 c -12.376071,0 -21.048755,10.1573478 -31.992019,12.6552378 z"
       id="path321" />
    <circle
       style="fill:none;stroke:#000000;stroke-width:0.499999;stroke-linejoin:bevel;stroke-miterlimit:4;stroke-dasharray:2, 2;stroke-dashoffset:0;stroke-opacity:1"
       id="path1613"
       cx="57.012196"
       cy="14.306569"
       r="4.5816846" />
    <g
       id="g2313"
       transform="translate(-0.48329409,-3.4345352)">
      <path
         style="fill:none;stroke:#000000;stroke-width:0.2;stroke-linejoin:bevel;stroke-miterlimit:4;stroke-dasharray:none;stroke-dashoffset:0;stroke-opacity:1"
         d="m 58.551354,16.752556 -2.143915,2.143913"
         id="path1843" />
      <g
         id="g2308">
        <path
           style="fill:none;stroke:#000000;stroke-width:0.2;stroke-linejoin:bevel;stroke-miterlimit:4;stroke-dasharray:none;stroke-dashoffset:0;stroke-opacity:1"
           d="m 56.418145,16.760918 2.143913,2.143915"
           id="path1843-3" />
      </g>
    </g>
    <g
       aria-label="Open set"
       id="text4187"
       style="font-weight:bold;font-size:7.76111px;font-family:'Fira Code';-inkscape-font-specification:'Fira Code Bold';fill:#000000;stroke-width:0.2;stroke-linejoin:bevel">
      <path
         d="m 24.142432,74.179339 q 0,0.875612 -0.250743,1.528341 -0.250744,0.64875 -0.744271,1.010935 -0.489547,0.358205 -1.213917,0.358205 -0.72039,0 -1.213917,-0.350245 -0.493527,-0.354225 -0.744271,-1.002974 -0.250743,-0.64875 -0.250743,-1.544262 0,-0.875613 0.250743,-1.524362 0.250744,-0.648749 0.744271,-1.006954 0.493527,-0.362185 1.213917,-0.362185 0.72437,0 1.213917,0.350245 0.493527,0.350245 0.744271,0.998994 0.250743,0.648749 0.250743,1.544262 z m -1.337298,0 q 0,-1.018895 -0.202983,-1.480581 -0.202983,-0.461687 -0.66865,-0.461687 -0.465666,0 -0.668649,0.465667 -0.202983,0.461686 -0.202983,1.476601 0,1.018894 0.206963,1.480581 0.206963,0.461686 0.664669,0.461686 0.477607,0 0.67263,-0.465666 0.199003,-0.469647 0.199003,-1.476601 z"
         id="path5275" />
      <path
         d="m 27.219005,72.575376 q 0.553227,0 0.891532,0.274624 0.338305,0.274624 0.493527,0.776111 0.159203,0.501487 0.159203,1.190037 0,0.652729 -0.191043,1.166156 -0.191043,0.509447 -0.553228,0.803972 -0.362185,0.290544 -0.879592,0.290544 -0.616909,0 -1.002975,-0.441787 v 1.938288 l -1.257697,0.131342 v -5.989985 h 1.114415 l 0.05572,0.473627 q 0.258704,-0.330345 0.565168,-0.469647 0.306464,-0.143282 0.604969,-0.143282 z m -0.390046,0.927353 q -0.218903,0 -0.386065,0.131342 -0.167163,0.131342 -0.306465,0.358205 v 1.783065 q 0.131342,0.195023 0.274624,0.286564 0.147262,0.09154 0.346265,0.09154 0.334325,0 0.521388,-0.302485 0.187062,-0.306464 0.187062,-1.018894 0,-0.525367 -0.07562,-0.811932 -0.07562,-0.290544 -0.218903,-0.401985 -0.143282,-0.115422 -0.342285,-0.115422 z"
         id="path5277" />
      <path
         d="m 30.745323,75.194253 q 0.06368,0.517407 0.338305,0.744271 0.274624,0.222883 0.67661,0.222883 0.290544,0 0.561188,-0.09552 0.270643,-0.09552 0.521387,-0.254723 l 0.505467,0.684569 q -0.298504,0.254724 -0.72437,0.417906 -0.421886,0.163183 -0.963174,0.163183 -0.72437,0 -1.213917,-0.286564 -0.489547,-0.290544 -0.73631,-0.796012 -0.246764,-0.505467 -0.246764,-1.162176 0,-0.624869 0.238804,-1.134316 0.238803,-0.513427 0.696509,-0.815912 0.461687,-0.306464 1.126356,-0.306464 0.604969,0 1.046755,0.258704 0.445766,0.258703 0.68855,0.74427 0.246763,0.485567 0.246763,1.166157 0,0.107461 -0.008,0.230843 -0.004,0.123382 -0.01592,0.218903 z m 0.780091,-1.775105 q -0.338304,0 -0.545267,0.242783 -0.206963,0.242784 -0.250744,0.776111 h 1.552222 q -0.004,-0.461686 -0.179103,-0.74029 -0.175122,-0.278604 -0.577108,-0.278604 z"
         id="path5279" />
      <path
         d="m 34.430844,76.941498 v -4.22682 h 1.098496 l 0.08756,0.489547 q 0.282584,-0.318405 0.597008,-0.473627 0.314425,-0.155222 0.716411,-0.155222 0.541287,0 0.851732,0.330345 0.310444,0.330344 0.310444,0.931333 v 3.104444 h -1.257698 v -2.742259 q 0,-0.390046 -0.08756,-0.541288 -0.08358,-0.155222 -0.318405,-0.155222 -0.199002,0 -0.382085,0.127362 -0.179103,0.127362 -0.358205,0.354225 v 2.957182 z"
         id="path5281" />
      <path
         d="m 45.678461,76.177327 q 0.314424,0 0.505467,-0.0995 0.195023,-0.0995 0.195023,-0.298505 0,-0.135322 -0.07562,-0.226863 -0.07562,-0.09154 -0.290545,-0.175122 -0.214923,-0.08358 -0.636809,-0.199003 -0.581088,-0.155222 -0.947253,-0.445766 -0.362185,-0.290545 -0.362185,-0.851733 0,-0.565168 0.469647,-0.935313 0.473626,-0.370145 1.365159,-0.370145 0.565168,0 0.983074,0.147262 0.421886,0.143282 0.72835,0.366165 l -0.501487,0.740291 q -0.262684,-0.163183 -0.565168,-0.258704 -0.302484,-0.0995 -0.608949,-0.0995 -0.604968,0 -0.604968,0.326364 0,0.107462 0.07562,0.187063 0.0796,0.07562 0.294524,0.159202 0.214923,0.0796 0.628849,0.199003 0.409946,0.115422 0.71243,0.266664 0.306464,0.151242 0.473627,0.405966 0.167162,0.250743 0.167162,0.664669 0,0.461686 -0.274624,0.776111 -0.274624,0.310444 -0.72835,0.465667 -0.453727,0.155222 -0.995014,0.155222 -0.612929,0 -1.082576,-0.175123 -0.469646,-0.175122 -0.799991,-0.461686 l 0.632829,-0.70845 q 0.246764,0.191042 0.557208,0.318404 0.314424,0.127362 0.68457,0.127362 z"
         id="path5283" />
      <path
         d="m 49.849548,75.194253 q 0.06368,0.517407 0.338305,0.744271 0.274624,0.222883 0.67661,0.222883 0.290544,0 0.561188,-0.09552 0.270644,-0.09552 0.521387,-0.254723 l 0.505467,0.684569 q -0.298504,0.254724 -0.72437,0.417906 -0.421886,0.163183 -0.963174,0.163183 -0.72437,0 -1.213917,-0.286564 -0.489547,-0.290544 -0.73631,-0.796012 -0.246764,-0.505467 -0.246764,-1.162176 0,-0.624869 0.238804,-1.134316 0.238803,-0.513427 0.69651,-0.815912 0.461686,-0.306464 1.126355,-0.306464 0.604969,0 1.046755,0.258704 0.445767,0.258703 0.68855,0.74427 0.246764,0.485567 0.246764,1.166157 0,0.107461 -0.008,0.230843 -0.004,0.123382 -0.01592,0.218903 z m 0.780091,-1.775105 q -0.338304,0 -0.545267,0.242783 -0.206963,0.242784 -0.250744,0.776111 h 1.552222 q -0.004,-0.461686 -0.179102,-0.74029 -0.175123,-0.278604 -0.577109,-0.278604 z"
         id="path5285" />
      <path
         d="m 57.340005,76.694734 q -0.246763,0.159203 -0.597008,0.270644 -0.350245,0.111442 -0.788052,0.111442 -0.827851,0 -1.229837,-0.421886 -0.401986,-0.425866 -0.401986,-1.154217 V 73.58233 H 53.43557 v -0.867652 h 0.887552 v -0.915413 l 1.257698,-0.151242 v 1.066655 h 1.361179 L 56.818618,73.58233 H 55.58082 v 1.918387 q 0,0.314425 0.143282,0.449747 0.143282,0.135322 0.457707,0.135322 0.222883,0 0.405965,-0.05174 0.187063,-0.05572 0.334325,-0.139302 z"
         id="path5287" />
    </g>
  </g>
</svg>
