<?xml version="1.0" encoding="UTF-8" standalone="no"?>
<!-- Created with Inkscape (http://www.inkscape.org/) -->

<svg
   width="300"
   height="320"
   viewBox="0 0 79.374998 84.666672"
   version="1.1"
   id="svg5"
   sodipodi:docname="lm2.svg"
   inkscape:version="1.1.2 (0a00cf5339, 2022-02-04)"
   xmlns:inkscape="http://www.inkscape.org/namespaces/inkscape"
   xmlns:sodipodi="http://sodipodi.sourceforge.net/DTD/sodipodi-0.dtd"
   xmlns="http://www.w3.org/2000/svg"
   xmlns:svg="http://www.w3.org/2000/svg">
  <sodipodi:namedview
     id="namedview7"
     pagecolor="#000000"
     bordercolor="#000000"
     borderopacity="0.25"
     inkscape:pageshadow="2"
     inkscape:pageopacity="1"
     inkscape:pagecheckerboard="0"
     inkscape:document-units="mm"
     showgrid="false"
     units="px"
     width="300px"
     inkscape:snap-bbox="true"
     inkscape:snap-global="true"
     inkscape:bbox-paths="false"
     inkscape:zoom="1.0897757"
     inkscape:cx="24.775741"
     inkscape:cy="72.033172"
     inkscape:window-width="1920"
     inkscape:window-height="1048"
     inkscape:window-x="0"
     inkscape:window-y="32"
     inkscape:window-maximized="1"
     inkscape:current-layer="text66054" />
  <defs
     id="defs2" />
  <g
     inkscape:label="Layer 1"
     inkscape:groupmode="layer"
     id="layer1">
    <circle
       style="fill:none;stroke:#000000;stroke-width:0.499999;stroke-linejoin:bevel;stroke-miterlimit:4;stroke-dasharray:2, 2;stroke-dashoffset:0;stroke-opacity:1"
       id="path1613"
       cx="30.185785"
       cy="6.8068352"
       r="4.5816846" />
    <g
       id="g2313"
       transform="translate(-27.309704,-10.934269)">
      <path
         style="fill:none;stroke:#000000;stroke-width:0.2;stroke-linejoin:bevel;stroke-miterlimit:4;stroke-dasharray:none;stroke-dashoffset:0;stroke-opacity:1"
         d="m 58.551354,16.752556 -2.143915,2.143913"
         id="path1843" />
      <g
         id="g2308">
        <path
           style="fill:none;stroke:#000000;stroke-width:0.2;stroke-linejoin:bevel;stroke-miterlimit:4;stroke-dasharray:none;stroke-dashoffset:0;stroke-opacity:1"
           d="m 56.418145,16.760918 2.143913,2.143915"
           id="path1843-3" />
      </g>
    </g>
    <g
       aria-label="NOT open "
       id="text4187"
       style="font-weight:bold;font-size:7.76111px;font-family:'Fira Code';-inkscape-font-specification:'Fira Code Bold';fill:#000000;stroke-width:0.2;stroke-linejoin:bevel">
      <path
         d="m 23.315803,63.969494 -1.452721,-4.437763 q 0.03582,0.234823 0.08358,0.604969 0.04776,0.366165 0.0796,0.815911 0.03582,0.449747 0.03582,0.935313 v 2.08157 h -1.110436 v -5.516358 h 1.627843 l 1.40894,4.413882 q -0.06368,-0.378105 -0.131341,-0.967153 -0.06766,-0.589049 -0.06766,-1.333319 v -2.11341 h 1.110435 v 5.516358 z"
         id="path832" />
      <path
         d="m 29.910745,61.207335 q 0,0.875612 -0.250744,1.528341 -0.250743,0.64875 -0.74427,1.010935 -0.489547,0.358205 -1.213917,0.358205 -0.720391,0 -1.213918,-0.350245 -0.493527,-0.354225 -0.74427,-1.002974 -0.250744,-0.64875 -0.250744,-1.544262 0,-0.875613 0.250744,-1.524362 0.250743,-0.648749 0.74427,-1.006954 0.493527,-0.362185 1.213918,-0.362185 0.72437,0 1.213917,0.350245 0.493527,0.350245 0.74427,0.998994 0.250744,0.648749 0.250744,1.544262 z m -1.337299,0 q 0,-1.018895 -0.202983,-1.480581 -0.202983,-0.461687 -0.668649,-0.461687 -0.465667,0 -0.66865,0.465667 -0.202983,0.461686 -0.202983,1.476601 0,1.018894 0.206963,1.480581 0.206963,0.461686 0.66467,0.461686 0.477606,0 0.672629,-0.465666 0.199003,-0.469647 0.199003,-1.476601 z"
         id="path834" />
      <path
         d="m 33.122639,59.45213 v 4.517364 H 31.817181 V 59.45213 h -1.548242 v -0.998994 h 4.465623 L 34.59924,59.45213 Z"
         id="path836" />
      <path
         d="m 42.029982,59.603372 q 0.65273,0 1.110436,0.278604 0.457707,0.278604 0.70049,0.784071 0.242784,0.501487 0.242784,1.178097 0,1.058695 -0.541288,1.659683 -0.541288,0.600989 -1.512422,0.600989 -0.971133,0 -1.512421,-0.593029 -0.541288,-0.593028 -0.541288,-1.659683 0,-0.67263 0.242784,-1.178097 0.246763,-0.505467 0.70447,-0.788051 0.461686,-0.282584 1.106455,-0.282584 z m 0,0.927353 q -0.386065,0 -0.573128,0.318405 -0.183082,0.314424 -0.183082,1.002974 0,0.70049 0.183082,1.014914 0.187063,0.314425 0.573128,0.314425 0.386066,0 0.569149,-0.314425 0.187062,-0.314424 0.187062,-1.022874 0,-0.68457 -0.187062,-0.998994 -0.183083,-0.314425 -0.569149,-0.314425 z"
         id="path838" />
      <path
         d="m 47.315486,59.603372 q 0.553228,0 0.891533,0.274624 0.338304,0.274624 0.493527,0.776111 0.159202,0.501487 0.159202,1.190037 0,0.652729 -0.191043,1.166156 -0.191043,0.509448 -0.553228,0.803972 -0.362185,0.290544 -0.879592,0.290544 -0.616909,0 -1.002974,-0.441786 v 1.938287 l -1.257698,0.131342 v -5.989985 h 1.114416 l 0.05572,0.473627 q 0.258704,-0.330345 0.565168,-0.469647 0.306465,-0.143282 0.604969,-0.143282 z m -0.390046,0.927353 q -0.218903,0 -0.386065,0.131342 -0.167162,0.131342 -0.306464,0.358205 v 1.783065 q 0.131342,0.195023 0.274624,0.286564 0.147262,0.09154 0.346264,0.09154 0.334325,0 0.521388,-0.302485 0.187062,-0.306464 0.187062,-1.018894 0,-0.525367 -0.07562,-0.811931 -0.07562,-0.290545 -0.218903,-0.401986 -0.143282,-0.115422 -0.342285,-0.115422 z"
         id="path840" />
      <path
         d="m 50.841805,62.222249 q 0.06368,0.517407 0.338304,0.744271 0.274624,0.222883 0.67661,0.222883 0.290544,0 0.561188,-0.09552 0.270644,-0.09552 0.521387,-0.254723 l 0.505467,0.68457 q -0.298504,0.254723 -0.72437,0.417905 -0.421886,0.163183 -0.963173,0.163183 -0.724371,0 -1.213918,-0.286564 -0.489547,-0.290544 -0.73631,-0.796012 -0.246764,-0.505467 -0.246764,-1.162176 0,-0.624869 0.238804,-1.134316 0.238803,-0.513427 0.69651,-0.815912 0.461686,-0.306464 1.126356,-0.306464 0.604968,0 1.046754,0.258704 0.445767,0.258703 0.68855,0.74427 0.246764,0.485567 0.246764,1.166157 0,0.107461 -0.008,0.230843 -0.004,0.123382 -0.01592,0.218903 z m 0.780091,-1.775105 q -0.338305,0 -0.545268,0.242783 -0.206963,0.242784 -0.250744,0.776111 h 1.552222 q -0.004,-0.461686 -0.179102,-0.74029 -0.175123,-0.278604 -0.577108,-0.278604 z"
         id="path842" />
      <path
         d="m 54.527327,63.969494 v -4.22682 h 1.098496 l 0.08756,0.489547 q 0.282584,-0.318405 0.597009,-0.473627 0.314424,-0.155222 0.71641,-0.155222 0.541287,0 0.851732,0.330345 0.310444,0.330344 0.310444,0.931333 v 3.104444 h -1.257698 v -2.742259 q 0,-0.390045 -0.08756,-0.541288 -0.08358,-0.155222 -0.318404,-0.155222 -0.199003,0 -0.382086,0.127362 -0.179102,0.127362 -0.358205,0.354225 v 2.957182 z"
         id="path844" />
    </g>
    <path
       style="fill:none;fill-opacity:1;stroke:#000000;stroke-width:0.499999;stroke-linejoin:bevel;stroke-miterlimit:4;stroke-dasharray:none;stroke-dashoffset:0;stroke-opacity:1"
       d="M 24.718332,7.6014423 C 16.529206,9.5399333 13.325684,15.049555 9.4649384,21.623385 -4.3109218,45.080036 34.242117,58.49222 52.046885,52.098149 60.131445,49.19481 75.44061,25.637035 69.799246,17.207058 66.326751,12.018056 55.310327,18.557457 50.234267,13.481397 49.049089,12.29622 47.689891,6.8135453 46.425053,6.5525023 37.336615,4.6767883 32.374379,6.9555453 24.718332,7.6014423 Z"
       id="path31536" />
    <g
       aria-label="(consider a point
on the boundary)"
       id="text66054"
       style="font-size:4.93889px;font-family:'Fira Code';-inkscape-font-specification:'Fira Code';fill:#000000;stroke-width:0.499999;stroke-linejoin:bevel">
      <path
         d="m 15.256048,71.051192 q 0,0.529348 0.11904,0.914328 0.121573,0.382448 0.362186,0.699043 0.240612,0.316596 0.602797,0.635724 l -0.222883,0.233014 q -0.410308,-0.334325 -0.704108,-0.686379 -0.291268,-0.352054 -0.4483,-0.785157 -0.154498,-0.433102 -0.154498,-1.010573 0,-0.57747 0.154498,-1.010573 0.157032,-0.433102 0.4483,-0.785156 0.2938,-0.352055 0.704108,-0.686379 l 0.222883,0.233014 q -0.273538,0.243145 -0.478692,0.478692 -0.202621,0.233015 -0.336858,0.491356 -0.134236,0.258342 -0.202621,0.569872 -0.06585,0.31153 -0.06585,0.709174 z"
         style="stroke-width:0.5"
         id="path865" />
      <path
         d="m 18.933615,72.51513 q 0.200088,0 0.372316,-0.06332 0.174761,-0.06585 0.321661,-0.169695 l 0.207687,0.278604 q -0.174761,0.149433 -0.420439,0.235547 -0.245678,0.08611 -0.481225,0.08611 -0.397644,0 -0.678781,-0.169695 -0.278604,-0.172228 -0.425505,-0.481226 -0.1469,-0.31153 -0.1469,-0.729436 0,-0.400176 0.1469,-0.716772 0.146901,-0.316595 0.428038,-0.498954 0.281136,-0.184892 0.681313,-0.184892 0.509086,0 0.891533,0.308997 l -0.207687,0.28367 q -0.346988,-0.23808 -0.688911,-0.23808 -0.344456,0 -0.56734,0.260874 -0.222883,0.258342 -0.222883,0.785157 0,0.534414 0.222883,0.775026 0.222884,0.23808 0.56734,0.23808 z"
         style="stroke-width:0.5"
         id="path867" />
      <path
         d="m 21.782967,70.101406 q 0.564806,0 0.853542,0.377382 0.288735,0.377381 0.288735,1.010573 0,0.407775 -0.131704,0.721837 -0.131704,0.314063 -0.387513,0.493889 -0.255809,0.177294 -0.628125,0.177294 -0.564807,0 -0.856075,-0.379915 -0.291268,-0.379914 -0.291268,-1.00804 0,-0.410308 0.131704,-0.72437 0.131704,-0.316596 0.387513,-0.491357 0.258342,-0.177293 0.633191,-0.177293 z m 0,0.346988 q -0.344456,0 -0.521749,0.25581 -0.174761,0.255809 -0.174761,0.790222 0,0.529348 0.172228,0.785157 0.174761,0.253276 0.519217,0.253276 0.344455,0 0.516683,-0.255809 0.174761,-0.255809 0.174761,-0.787689 0,-0.531881 -0.172228,-0.785157 -0.172228,-0.25581 -0.514151,-0.25581 z"
         style="stroke-width:0.5"
         id="path869" />
      <path
         d="m 23.806639,72.824127 v -2.667 h 0.362185 l 0.03293,0.369783 q 0.162097,-0.205154 0.405242,-0.314063 0.243145,-0.111441 0.47616,-0.111441 0.392578,0 0.569872,0.207686 0.179826,0.207687 0.179826,0.577471 v 1.937564 h -0.425504 v -1.623502 q 0,-0.273538 -0.03039,-0.440701 -0.03039,-0.167162 -0.129171,-0.245678 -0.09624,-0.07851 -0.296333,-0.07851 -0.157031,0 -0.296333,0.06838 -0.13677,0.06839 -0.245679,0.172228 -0.106376,0.101311 -0.177293,0.205154 v 1.94263 z"
         style="stroke-width:0.5"
         id="path871" />
      <path
         d="m 27.752678,72.530327 q 0.308997,0 0.48629,-0.113975 0.177294,-0.113974 0.177294,-0.308997 0,-0.11904 -0.04559,-0.207687 -0.04306,-0.08865 -0.179826,-0.159564 -0.136769,-0.07345 -0.420439,-0.144367 -0.276071,-0.06839 -0.481225,-0.157032 -0.202621,-0.09118 -0.316596,-0.235547 -0.111441,-0.144367 -0.111441,-0.374849 0,-0.336858 0.281137,-0.53188 0.281136,-0.195023 0.731968,-0.195023 0.321661,0 0.559741,0.08611 0.240613,0.08611 0.407775,0.207686 l -0.187424,0.288736 q -0.149433,-0.103844 -0.334325,-0.169696 -0.182359,-0.06838 -0.440701,-0.06838 -0.314063,0 -0.445767,0.09878 -0.131703,0.09624 -0.131703,0.250743 0,0.11904 0.06332,0.197556 0.06585,0.07598 0.22035,0.136769 0.154499,0.06079 0.425505,0.134237 0.260874,0.07092 0.455897,0.167162 0.195023,0.09624 0.301399,0.253276 0.108909,0.154499 0.108909,0.40271 0,0.283669 -0.162097,0.460963 -0.162097,0.174761 -0.420439,0.255809 -0.255809,0.07852 -0.542011,0.07852 -0.362186,0 -0.617995,-0.103844 -0.253276,-0.106376 -0.425504,-0.255809 l 0.243145,-0.281137 q 0.157032,0.129171 0.359653,0.21022 0.205154,0.07852 0.440701,0.07852 z"
         style="stroke-width:0.5"
         id="path873" />
      <path
         d="m 30.895831,68.908474 q 0.141834,0 0.225416,0.08611 0.08611,0.08611 0.08611,0.210219 0,0.129171 -0.08611,0.217818 -0.08358,0.08611 -0.225416,0.08611 -0.134237,0 -0.220351,-0.08611 -0.08611,-0.08865 -0.08611,-0.217818 0,-0.124105 0.08611,-0.210219 0.08611,-0.08611 0.220351,-0.08611 z m 0.33939,1.248653 v 2.330143 h 0.752231 v 0.336857 H 29.986568 V 72.48727 h 0.823149 v -1.993286 h -0.797821 v -0.336857 z"
         style="stroke-width:0.5"
         id="path875" />
      <path
         d="m 34.520209,69.030047 0.425505,0.05319 v 3.740892 h -0.372316 l -0.04052,-0.352054 q -0.149433,0.212752 -0.344456,0.31153 -0.19249,0.09878 -0.41284,0.09878 -0.346989,0 -0.572405,-0.174761 -0.225416,-0.174761 -0.334325,-0.486291 -0.108909,-0.314062 -0.108909,-0.726903 0,-0.400177 0.124106,-0.714239 0.124105,-0.316596 0.35712,-0.496422 0.235547,-0.182359 0.564806,-0.182359 0.443234,0 0.714239,0.314063 z m -0.602797,1.413282 q -0.334325,0 -0.514151,0.260875 -0.179827,0.260874 -0.179827,0.790222 0,1.043499 0.64079,1.043499 0.225416,0 0.387512,-0.126638 0.162097,-0.129171 0.268473,-0.293801 v -1.332234 q -0.108908,-0.162097 -0.263407,-0.250744 -0.154499,-0.09118 -0.33939,-0.09118 z"
         style="stroke-width:0.5"
         id="path877" />
      <path
         d="m 36.298202,71.641326 q 0.01773,0.463496 0.243145,0.676248 0.227949,0.21022 0.536946,0.21022 0.205154,0 0.369783,-0.06079 0.16463,-0.06079 0.341924,-0.179826 l 0.200088,0.281137 q -0.184892,0.1469 -0.425504,0.230482 -0.240613,0.08358 -0.491357,0.08358 -0.390045,0 -0.663584,-0.174761 -0.271006,-0.174761 -0.415373,-0.486291 -0.141835,-0.314062 -0.141835,-0.726903 0,-0.405242 0.141835,-0.719305 0.144367,-0.314063 0.405242,-0.493889 0.263408,-0.179826 0.617995,-0.179826 0.50402,0 0.792755,0.349521 0.291268,0.349522 0.291268,0.957385 0,0.06839 -0.0051,0.129171 -0.0025,0.06079 -0.0051,0.103843 z m 0.72437,-1.190399 q -0.296333,0 -0.496422,0.21022 -0.200088,0.210219 -0.225416,0.65092 h 1.390488 q -0.0076,-0.428037 -0.187425,-0.643322 -0.179826,-0.217818 -0.481225,-0.217818 z"
         style="stroke-width:0.5"
         id="path879" />
      <path
         d="m 39.028515,72.824127 v -0.326726 h 0.415373 v -2.013548 h -0.415373 v -0.326726 h 0.739567 l 0.07852,0.630658 q 0.154498,-0.329259 0.374849,-0.509086 0.22035,-0.179826 0.582535,-0.179826 0.111442,0 0.197556,0.01773 0.08865,0.0152 0.179826,0.04053 l -0.06079,0.901664 h -0.349522 v -0.56734 q -0.01013,0 -0.02279,0 -0.612929,0 -0.87887,0.876337 v 1.129613 h 0.542012 v 0.326726 z"
         style="stroke-width:0.5"
         id="path881" />
      <path
         d="m 46.99151,72.241591 q 0,0.162097 0.05319,0.235548 0.05319,0.07345 0.16463,0.106376 l -0.103843,0.298866 q -0.172228,-0.0228 -0.301399,-0.108909 -0.129171,-0.08865 -0.187425,-0.26594 -0.144367,0.184891 -0.362185,0.281136 -0.215285,0.09371 -0.473627,0.09371 -0.400177,0 -0.630658,-0.225416 -0.230482,-0.225416 -0.230482,-0.597733 0,-0.41284 0.321661,-0.633191 0.321661,-0.22035 0.929525,-0.22035 h 0.392578 v -0.222883 q 0,-0.288735 -0.169695,-0.407775 -0.167163,-0.121573 -0.466029,-0.121573 -0.131703,0 -0.308997,0.03293 -0.177293,0.03039 -0.38498,0.103843 L 45.12233,70.268568 q 0.243146,-0.09118 0.458431,-0.129171 0.217817,-0.03799 0.41284,-0.03799 0.496422,0 0.747166,0.233014 0.250743,0.233014 0.250743,0.628126 z m -1.101752,0.316596 q 0.197555,0 0.374849,-0.09878 0.179826,-0.10131 0.298866,-0.278604 v -0.686379 h -0.38498 q -0.440701,0 -0.62306,0.151966 -0.179826,0.151966 -0.179826,0.407775 0,0.50402 0.514151,0.50402 z"
         style="stroke-width:0.5"
         id="path883" />
      <path
         d="m 52.353359,70.101406 q 0.354587,0 0.564806,0.172228 0.212752,0.172228 0.306465,0.48629 0.09371,0.31153 0.09371,0.729437 0,0.402709 -0.113974,0.719305 -0.111442,0.314062 -0.339391,0.493889 -0.227949,0.179826 -0.574937,0.179826 -0.438168,0 -0.704109,-0.308997 v 1.271447 l -0.425504,0.05319 v -3.740892 h 0.362185 l 0.03546,0.372316 q 0.1469,-0.205154 0.349521,-0.316596 0.202622,-0.111441 0.445767,-0.111441 z m -0.101311,0.341923 q -0.22035,0 -0.390045,0.134236 -0.169696,0.131704 -0.276072,0.293801 v 1.322103 q 0.103844,0.154499 0.260875,0.245678 0.159564,0.08865 0.349522,0.08865 0.331792,0 0.498954,-0.253277 0.167162,-0.253276 0.167162,-0.787689 0,-1.043499 -0.610396,-1.043499 z"
         style="stroke-width:0.5"
         id="path885" />
      <path
         d="m 55.215376,70.101406 q 0.564806,0 0.853541,0.377382 0.288735,0.377381 0.288735,1.010573 0,0.407775 -0.131703,0.721837 -0.131704,0.314063 -0.387513,0.493889 -0.255809,0.177294 -0.628126,0.177294 -0.564806,0 -0.856074,-0.379915 -0.291268,-0.379914 -0.291268,-1.00804 0,-0.410308 0.131704,-0.72437 0.131704,-0.316596 0.387513,-0.491357 0.258342,-0.177293 0.633191,-0.177293 z m 0,0.346988 q -0.344456,0 -0.52175,0.25581 -0.17476,0.255809 -0.17476,0.790222 0,0.529348 0.172228,0.785157 0.17476,0.253276 0.519216,0.253276 0.344456,0 0.516684,-0.255809 0.174761,-0.255809 0.174761,-0.787689 0,-0.531881 -0.172228,-0.785157 -0.172228,-0.25581 -0.514151,-0.25581 z"
         style="stroke-width:0.5"
         id="path887" />
      <path
         d="m 58.249617,68.908474 q 0.141835,0 0.225416,0.08611 0.08611,0.08611 0.08611,0.210219 0,0.129171 -0.08611,0.217818 -0.08358,0.08611 -0.225416,0.08611 -0.134237,0 -0.22035,-0.08611 -0.08611,-0.08865 -0.08611,-0.217818 0,-0.124105 0.08611,-0.210219 0.08611,-0.08611 0.22035,-0.08611 z m 0.33939,1.248653 v 2.330143 h 0.752231 v 0.336857 H 57.340355 V 72.48727 h 0.823148 v -1.993286 h -0.797821 v -0.336857 z"
         style="stroke-width:0.5"
         id="path889" />
      <path
         d="m 60.278355,72.824127 v -2.667 h 0.362185 l 0.03293,0.369783 q 0.162097,-0.205154 0.405242,-0.314063 0.243145,-0.111441 0.47616,-0.111441 0.392578,0 0.569872,0.207686 0.179826,0.207687 0.179826,0.577471 v 1.937564 h -0.425505 v -1.623502 q 0,-0.273538 -0.03039,-0.440701 -0.03039,-0.167162 -0.129171,-0.245678 -0.09624,-0.07851 -0.296333,-0.07851 -0.157031,0 -0.296333,0.06838 -0.13677,0.06839 -0.245679,0.172228 -0.106376,0.101311 -0.177293,0.205154 v 1.94263 z"
         style="stroke-width:0.5"
         id="path891" />
      <path
         d="m 65.435056,72.689891 q -0.136769,0.09118 -0.331792,0.141834 -0.195023,0.05066 -0.382448,0.05066 -0.43057,0 -0.663584,-0.225416 -0.233014,-0.225416 -0.233014,-0.580003 v -1.590576 h -0.612929 v -0.329259 h 0.612929 v -0.605331 l 0.425504,-0.05065 v 0.655986 h 0.921926 l -0.05066,0.329259 h -0.871271 v 1.58551 q 0,0.222884 0.116507,0.339391 0.11904,0.116507 0.392579,0.116507 0.149433,0 0.276071,-0.03546 0.126638,-0.03546 0.235547,-0.09118 z"
         style="stroke-width:0.5"
         id="path893" />
      <path
         d="m 15.704348,76.275018 q 0.564806,0 0.853541,0.377382 0.288735,0.377382 0.288735,1.010573 0,0.407775 -0.131704,0.721838 -0.131703,0.314063 -0.387512,0.493889 -0.25581,0.177293 -0.628126,0.177293 -0.564806,0 -0.856074,-0.379914 -0.291268,-0.379915 -0.291268,-1.00804 0,-0.410308 0.131704,-0.724371 0.131703,-0.316596 0.387513,-0.491356 0.258342,-0.177294 0.633191,-0.177294 z m 0,0.346989 q -0.344456,0 -0.52175,0.255809 -0.174761,0.255809 -0.174761,0.790223 0,0.529347 0.172228,0.785156 0.174761,0.253277 0.519217,0.253277 0.344456,0 0.516684,-0.255809 0.174761,-0.25581 0.174761,-0.78769 0,-0.53188 -0.172228,-0.785157 -0.172228,-0.255809 -0.514151,-0.255809 z"
         style="stroke-width:0.5"
         id="path895" />
      <path
         d="m 17.728019,78.99774 v -2.667001 h 0.362185 l 0.03293,0.369784 q 0.162097,-0.205154 0.405242,-0.314063 0.243146,-0.111442 0.47616,-0.111442 0.392578,0 0.569872,0.207687 0.179826,0.207687 0.179826,0.57747 v 1.937565 h -0.425504 v -1.623502 q 0,-0.273539 -0.03039,-0.440701 -0.03039,-0.167162 -0.129171,-0.245678 -0.09624,-0.07852 -0.296334,-0.07852 -0.157031,0 -0.296333,0.06839 -0.136769,0.06838 -0.245678,0.172228 -0.106376,0.10131 -0.177294,0.205154 v 1.94263 z"
         style="stroke-width:0.5"
         id="path897" />
      <path
         d="m 25.924029,78.863503 q -0.136769,0.09118 -0.331792,0.141835 -0.195023,0.05066 -0.382447,0.05066 -0.43057,0 -0.663584,-0.225416 -0.233015,-0.225416 -0.233015,-0.580003 v -1.590576 h -0.612928 v -0.329259 h 0.612928 v -0.605331 l 0.425505,-0.05066 v 0.655986 h 0.921926 l -0.05065,0.329259 h -0.871271 v 1.585511 q 0,0.222883 0.116507,0.33939 0.11904,0.116507 0.392578,0.116507 0.149433,0 0.276072,-0.03546 0.126638,-0.03546 0.235547,-0.09118 z"
         style="stroke-width:0.5"
         id="path899" />
      <path
         d="m 27.271453,75.216323 v 1.479134 q 0.157031,-0.207687 0.38498,-0.314063 0.230481,-0.106376 0.466028,-0.106376 0.390046,0 0.569872,0.207687 0.179826,0.207687 0.179826,0.57747 v 1.937565 h -0.425504 v -1.927434 q 0,-0.240612 -0.111442,-0.349521 -0.111441,-0.111442 -0.349521,-0.111442 -0.151966,0 -0.288735,0.06839 -0.136769,0.06838 -0.245678,0.169695 -0.108909,0.101311 -0.179826,0.207687 v 1.94263 h -0.425505 v -3.735827 z"
         style="stroke-width:0.5"
         id="path901" />
      <path
         d="m 30.219583,77.814939 q 0.01773,0.463496 0.243145,0.676248 0.227949,0.210219 0.536946,0.210219 0.205154,0 0.369783,-0.06079 0.16463,-0.06079 0.341924,-0.179826 l 0.200088,0.281136 q -0.184892,0.146901 -0.425504,0.230482 -0.240613,0.08358 -0.491357,0.08358 -0.390045,0 -0.663584,-0.17476 -0.271006,-0.174761 -0.415373,-0.486291 -0.141835,-0.314063 -0.141835,-0.726903 0,-0.405243 0.141835,-0.719305 0.144367,-0.314063 0.405242,-0.493889 0.263408,-0.179827 0.617995,-0.179827 0.50402,0 0.792755,0.349522 0.291268,0.349521 0.291268,0.957385 0,0.06838 -0.0051,0.129171 -0.0025,0.06079 -0.0051,0.103843 z m 0.72437,-1.190399 q -0.296333,0 -0.496422,0.210219 -0.200088,0.21022 -0.225416,0.650921 h 1.390488 q -0.0076,-0.428038 -0.187425,-0.643323 -0.179826,-0.217817 -0.481225,-0.217817 z"
         style="stroke-width:0.5"
         id="path903" />
      <path
         d="m 36.389381,76.677728 q 0.144368,-0.19249 0.336858,-0.296334 0.195022,-0.106376 0.422971,-0.106376 0.35712,0 0.57747,0.172228 0.220351,0.172228 0.321661,0.486291 0.101311,0.31153 0.101311,0.729436 0,0.402709 -0.121573,0.719305 -0.11904,0.314063 -0.354587,0.493889 -0.235547,0.179826 -0.580003,0.179826 -0.463495,0 -0.726903,-0.334325 l -0.03039,0.276072 h -0.372316 v -3.740893 l 0.425504,-0.05319 z m 0.602798,2.033809 q 0.334325,0 0.514151,-0.258342 0.179826,-0.258342 0.179826,-0.792755 0,-1.043499 -0.628125,-1.043499 -0.222884,0 -0.392579,0.134237 -0.169695,0.131704 -0.276071,0.293801 v 1.322102 q 0.103843,0.159565 0.260875,0.253277 0.159564,0.09118 0.341923,0.09118 z"
         style="stroke-width:0.5"
         id="path905" />
      <path
         d="m 40.018826,76.275018 q 0.564806,0 0.853541,0.377382 0.288735,0.377382 0.288735,1.010573 0,0.407775 -0.131704,0.721838 -0.131703,0.314063 -0.387513,0.493889 -0.255809,0.177293 -0.628125,0.177293 -0.564806,0 -0.856074,-0.379914 -0.291268,-0.379915 -0.291268,-1.00804 0,-0.410308 0.131704,-0.724371 0.131703,-0.316596 0.387512,-0.491356 0.258342,-0.177294 0.633192,-0.177294 z m 0,0.346989 q -0.344456,0 -0.52175,0.255809 -0.174761,0.255809 -0.174761,0.790223 0,0.529347 0.172228,0.785156 0.174761,0.253277 0.519217,0.253277 0.344456,0 0.516684,-0.255809 0.174761,-0.25581 0.174761,-0.78769 0,-0.53188 -0.172228,-0.785157 -0.172228,-0.255809 -0.514151,-0.255809 z"
         style="stroke-width:0.5"
         id="path907" />
      <path
         d="m 42.468002,76.330739 v 1.889442 q 0,0.263408 0.108909,0.379915 0.108909,0.116507 0.33939,0.116507 0.220351,0 0.415373,-0.124106 0.197556,-0.126638 0.306465,-0.298866 v -1.962892 h 0.425504 v 2.667001 h -0.362185 l -0.03546,-0.359653 q -0.157031,0.202621 -0.390045,0.31153 -0.230482,0.106376 -0.463496,0.106376 -0.387513,0 -0.580003,-0.205154 -0.189957,-0.207686 -0.189957,-0.580003 v -1.940097 z"
         style="stroke-width:0.5"
         id="path909" />
      <path
         d="m 45.081806,78.99774 v -2.667001 h 0.362185 l 0.03293,0.369784 q 0.162097,-0.205154 0.405243,-0.314063 0.243145,-0.111442 0.476159,-0.111442 0.392579,0 0.569872,0.207687 0.179826,0.207687 0.179826,0.57747 v 1.937565 h -0.425504 v -1.623502 q 0,-0.273539 -0.03039,-0.440701 -0.03039,-0.167162 -0.129171,-0.245678 -0.09624,-0.07852 -0.296334,-0.07852 -0.157031,0 -0.296333,0.06839 -0.136769,0.06838 -0.245678,0.172228 -0.106376,0.10131 -0.177294,0.205154 v 1.94263 z"
         style="stroke-width:0.5"
         id="path911" />
      <path
         d="m 49.716758,75.203659 0.425504,0.05319 v 3.740893 h -0.372316 l -0.04052,-0.352055 q -0.149433,0.212753 -0.344456,0.31153 -0.19249,0.09878 -0.412841,0.09878 -0.346988,0 -0.572404,-0.17476 -0.225416,-0.174761 -0.334325,-0.486291 -0.108909,-0.314063 -0.108909,-0.726903 0,-0.400177 0.124105,-0.71424 0.124106,-0.316595 0.35712,-0.496422 0.235547,-0.182359 0.564806,-0.182359 0.443234,0 0.71424,0.314063 z m -0.602798,1.413282 q -0.334325,0 -0.514151,0.260875 -0.179826,0.260875 -0.179826,0.790223 0,1.043498 0.640789,1.043498 0.225416,0 0.387513,-0.126638 0.162097,-0.129171 0.268473,-0.293801 v -1.332233 q -0.108909,-0.162097 -0.263408,-0.250744 -0.154498,-0.09118 -0.33939,-0.09118 z"
         style="stroke-width:0.5"
         id="path913" />
      <path
         d="m 53.070131,78.415204 q 0,0.162097 0.05319,0.235547 0.05319,0.07345 0.16463,0.106376 l -0.103843,0.298866 q -0.172228,-0.0228 -0.301399,-0.108909 -0.129171,-0.08865 -0.187425,-0.26594 -0.144367,0.184892 -0.362185,0.281137 -0.215285,0.09371 -0.473627,0.09371 -0.400177,0 -0.630658,-0.225416 -0.230482,-0.225416 -0.230482,-0.597732 0,-0.412841 0.321661,-0.633191 0.321661,-0.220351 0.929525,-0.220351 h 0.392578 V 77.15642 q 0,-0.288735 -0.169695,-0.407775 -0.167163,-0.121573 -0.466029,-0.121573 -0.131704,0 -0.308997,0.03293 -0.177293,0.03039 -0.38498,0.103844 l -0.111442,-0.321661 q 0.243146,-0.09118 0.458431,-0.129171 0.217817,-0.03799 0.41284,-0.03799 0.496422,0 0.747166,0.233015 0.250743,0.233014 0.250743,0.628125 z m -1.101752,0.316595 q 0.197555,0 0.374849,-0.09878 0.179826,-0.101311 0.298866,-0.278604 v -0.686379 h -0.38498 q -0.440701,0 -0.62306,0.151965 -0.179826,0.151966 -0.179826,0.407775 0,0.50402 0.514151,0.50402 z"
         style="stroke-width:0.5"
         id="path915" />
      <path
         d="m 54.225065,78.99774 v -0.326727 h 0.415373 v -2.013547 h -0.415373 v -0.326727 h 0.739567 l 0.07852,0.630658 q 0.154499,-0.329259 0.374849,-0.509085 0.22035,-0.179826 0.582536,-0.179826 0.111441,0 0.197555,0.01773 0.08865,0.0152 0.179827,0.04052 l -0.06079,0.901664 h -0.349521 v -0.567339 q -0.01013,0 -0.0228,0 -0.612929,0 -0.878869,0.876336 v 1.129613 h 0.542011 v 0.326727 z"
         style="stroke-width:0.5"
         id="path917" />
      <path
         d="m 59.457745,76.330739 -0.937122,2.68473 q -0.09371,0.271006 -0.23808,0.496422 -0.141835,0.225416 -0.372316,0.372316 -0.227949,0.149433 -0.580003,0.184892 l -0.06585,-0.339391 q 0.276071,-0.04559 0.435635,-0.139302 0.159564,-0.09371 0.250744,-0.240612 0.09371,-0.144368 0.164629,-0.352054 h -0.141834 l -0.932057,-2.667001 h 0.455897 l 0.764895,2.342807 0.754764,-2.342807 z"
         style="stroke-width:0.5"
         id="path919" />
      <path
         d="m 61.732161,77.224805 q 0,-0.397644 -0.06838,-0.709174 -0.06585,-0.31153 -0.200089,-0.569872 -0.134236,-0.258342 -0.33939,-0.491356 -0.202621,-0.235547 -0.47616,-0.478693 l 0.222883,-0.233014 q 0.410308,0.334325 0.701576,0.686379 0.293801,0.352054 0.448299,0.785157 0.157032,0.433103 0.157032,1.010573 0,0.57747 -0.157032,1.010573 -0.154498,0.433102 -0.448299,0.785157 -0.291268,0.352054 -0.701576,0.686379 l -0.222883,-0.233015 q 0.362185,-0.319128 0.602798,-0.635723 0.240613,-0.316596 0.359652,-0.699043 0.121573,-0.38498 0.121573,-0.914328 z"
         style="stroke-width:0.5"
         id="path921" />
    </g>
  </g>
</svg>
