<?xml version="1.0" encoding="UTF-8" standalone="no"?>
<!-- Created with Inkscape (http://www.inkscape.org/) -->

<svg
   width="350"
   height="350"
   viewBox="0 0 92.604164 92.604173"
   version="1.1"
   id="svg5"
   inkscape:version="1.1.2 (0a00cf5339, 2022-02-04)"
   sodipodi:docname="6-openIntAndUnion.svg"
   xmlns:inkscape="http://www.inkscape.org/namespaces/inkscape"
   xmlns:sodipodi="http://sodipodi.sourceforge.net/DTD/sodipodi-0.dtd"
   xmlns:xlink="http://www.w3.org/1999/xlink"
   xmlns="http://www.w3.org/2000/svg"
   xmlns:svg="http://www.w3.org/2000/svg">
  <sodipodi:namedview
     id="namedview7"
     pagecolor="#ffffff"
     bordercolor="#000000"
     borderopacity="0.25"
     inkscape:pageshadow="2"
     inkscape:pageopacity="0"
     inkscape:pagecheckerboard="0"
     inkscape:document-units="px"
     showgrid="false"
     units="px"
     width="400px"
     showguides="false"
     inkscape:zoom="1.4948513"
     inkscape:cx="111.04783"
     inkscape:cy="106.69958"
     inkscape:window-width="1896"
     inkscape:window-height="1024"
     inkscape:window-x="12"
     inkscape:window-y="44"
     inkscape:window-maximized="0"
     inkscape:current-layer="layer1" />
  <defs
     id="defs2">
    <pattern
       inkscape:collect="always"
       xlink:href="#Strips1_3white"
       id="pattern4229"
       patternTransform="matrix(0.27126509,0,0,-8.5384879,-5.2332158,0.53365114)" />
    <pattern
       inkscape:collect="always"
       patternUnits="userSpaceOnUse"
       width="4"
       height="1"
       patternTransform="translate(0,0) scale(10,10)"
       id="Strips1_3white"
       inkscape:stockid="Stripes 1:3 white">
      <rect
         style="fill:white;stroke:none"
         x="0"
         y="-0.5"
         width="1"
         height="2"
         id="rect3227" />
    </pattern>
  </defs>
  <g
     inkscape:label="Layer 1"
     inkscape:groupmode="layer"
     id="layer1">
    <path
       style="fill:none;stroke:#000000;stroke-width:1.00013;stroke-linejoin:bevel;stroke-dasharray:2.00025, 2.00025;stroke-opacity:1"
       d="m 63.591519,26.421651 c -7.918095,1.600178 -15.272171,5.119054 -22.333128,8.889367 -3.973168,2.12154 -8.122264,3.077797 -11.657187,6.099543 C 8.5752531,59.384109 47.454819,77.11971 65.092543,70.292983 70.908421,68.041932 82.337003,62.382754 85.322908,56.44608 86.61335,53.880384 85.609586,48.818042 85.150741,46.081354 82.915088,32.747226 75.033087,27.095323 63.591519,26.421651 Z"
       id="path857" />
    <path
       style="fill:none;stroke:#000000;stroke-width:1.00013;stroke-linejoin:bevel;stroke-dasharray:2.00025, 2.00025;stroke-opacity:1"
       d="M 61.954972,9.2508745 C 50.836397,8.7799365 42.073145,17.424812 39.887319,28.106418 c -2.360854,11.536919 3.886793,19.8084 8.645395,29.392249 1.66192,3.347114 10.920715,26.020125 11.6872,26.00175 18.858045,-0.452064 8.265345,-32.42454 8.265345,-43.200149 0,-3.230023 -0.298694,-6.657684 0,-9.874727 0.492821,-5.307851 7.969795,-16.412191 4.598353,-21.4693565 -3.337905,-5.0068567 -8.336326,-0.09265 -11.12864,0.29469 z"
       id="path867" />
    <path
       style="fill:none;stroke:#000000;stroke-width:1;stroke-linejoin:bevel;stroke-miterlimit:4;stroke-dasharray:2, 2;stroke-dashoffset:0;stroke-opacity:1"
       d="m 20.323552,62.688316 c 9.880725,-0.50536 18.80248,0.154741 27.497072,-5.661779 22.548327,-15.08441 6.580863,-46.844666 -8.20484,-41.947171 -14.080501,4.66391 -36.3485471,14.133659 -33.7378259,32.179288 0.844659,5.838391 7.0980609,17.112449 14.4455939,15.429662 z"
       id="path974" />
    <path
       id="path857-7"
       style="fill:#808080;fill-opacity:1;stroke:none;stroke-width:1.00013;stroke-linejoin:bevel;stroke-dasharray:2.00025, 2.00025;stroke-opacity:1"
       d="m 57.57542,28.040937 c -5.659057,1.83915 -11.048244,4.490794 -16.276009,7.282243 -0.561524,0.299834 -1.126598,0.574752 -1.69292,0.837158 0.934232,7.418861 5.094584,13.713913 8.60516,20.639051 11.171201,-7.696676 12.592675,-19.5633 9.363769,-28.758452 z" />
  </g>
</svg>
