<?xml version="1.0" encoding="UTF-8" standalone="no"?>
<!-- Created with Inkscape (http://www.inkscape.org/) -->

<svg
   width="500"
   height="500"
   viewBox="0 0 132.29166 132.29167"
   version="1.1"
   id="svg5"
   inkscape:version="1.1.2 (0a00cf5339, 2022-02-04)"
   sodipodi:docname="lm9.svg"
   xmlns:inkscape="http://www.inkscape.org/namespaces/inkscape"
   xmlns:sodipodi="http://sodipodi.sourceforge.net/DTD/sodipodi-0.dtd"
   xmlns:xlink="http://www.w3.org/1999/xlink"
   xmlns="http://www.w3.org/2000/svg"
   xmlns:svg="http://www.w3.org/2000/svg">
  <sodipodi:namedview
     id="namedview7"
     pagecolor="#000000"
     bordercolor="#000000"
     borderopacity="0.25"
     inkscape:pageshadow="2"
     inkscape:pageopacity="0"
     inkscape:pagecheckerboard="0"
     inkscape:document-units="px"
     showgrid="false"
     units="px"
     width="400px"
     showguides="false"
     inkscape:zoom="0.74742565"
     inkscape:cx="-1.3379257"
     inkscape:cy="71.579026"
     inkscape:window-width="1920"
     inkscape:window-height="1048"
     inkscape:window-x="0"
     inkscape:window-y="32"
     inkscape:window-maximized="1"
     inkscape:current-layer="text33212"
     inkscape:snap-bbox="true" />
  <defs
     id="defs2">
    <pattern
       inkscape:collect="always"
       xlink:href="#Strips1_2white"
       id="pattern31372"
       patternTransform="matrix(0.20499063,0.5608106,12.424086,-4.5413212,-3.653838,7.4501828)" />
    <pattern
       inkscape:collect="always"
       patternUnits="userSpaceOnUse"
       width="3"
       height="1"
       patternTransform="translate(0,0) scale(10,10)"
       id="Strips1_2white"
       inkscape:stockid="Stripes 1:2 white"
       inkscape:isstock="true">
      <rect
         style="fill:white;stroke:none"
         x="0"
         y="-0.5"
         width="1"
         height="2"
         id="rect3221" />
    </pattern>
    <marker
       style="overflow:visible;"
       id="Arrow2Mend"
       refX="0.0"
       refY="0.0"
       orient="auto"
       inkscape:stockid="Arrow2Mend"
       inkscape:isstock="true">
      <path
         transform="scale(0.6) rotate(180) translate(0,0)"
         d="M 8.7185878,4.0337352 L -2.2072895,0.016013256 L 8.7185884,-4.0017078 C 6.9730900,-1.6296469 6.9831476,1.6157441 8.7185878,4.0337352 z "
         style="stroke:context-stroke;fill-rule:evenodd;fill:context-stroke;stroke-width:0.62500000;stroke-linejoin:round;"
         id="path7374" />
    </marker>
    <marker
       style="overflow:visible;"
       id="Arrow1Lend"
       refX="0.0"
       refY="0.0"
       orient="auto"
       inkscape:stockid="Arrow1Lend"
       inkscape:isstock="true">
      <path
         transform="scale(0.8) rotate(180) translate(12.5,0)"
         style="fill-rule:evenodd;fill:context-stroke;stroke:context-stroke;stroke-width:1.0pt;"
         d="M 0.0,0.0 L 5.0,-5.0 L -12.5,0.0 L 5.0,5.0 L 0.0,0.0 z "
         id="path7350" />
    </marker>
    <marker
       style="overflow:visible;"
       id="Arrow1Mend"
       refX="0.0"
       refY="0.0"
       orient="auto"
       inkscape:stockid="Arrow1Mend"
       inkscape:isstock="true">
      <path
         transform="scale(0.4) rotate(180) translate(10,0)"
         style="fill-rule:evenodd;fill:context-stroke;stroke:context-stroke;stroke-width:1.0pt;"
         d="M 0.0,0.0 L 5.0,-5.0 L -12.5,0.0 L 5.0,5.0 L 0.0,0.0 z "
         id="path7356" />
    </marker>
    <marker
       style="overflow:visible"
       id="TriangleOutL"
       refX="0.0"
       refY="0.0"
       orient="auto"
       inkscape:stockid="TriangleOutL"
       inkscape:isstock="true">
      <path
         transform="scale(0.8)"
         style="fill-rule:evenodd;fill:context-stroke;stroke:context-stroke;stroke-width:1.0pt"
         d="M 5.77,0.0 L -2.88,5.0 L -2.88,-5.0 L 5.77,0.0 z "
         id="path7489" />
    </marker>
    <marker
       style="overflow:visible"
       id="TriangleOutM"
       refX="0"
       refY="0"
       orient="auto"
       inkscape:stockid="TriangleOutM"
       inkscape:isstock="true">
      <path
         transform="scale(0.4)"
         style="fill:context-stroke;fill-rule:evenodd;stroke:context-stroke;stroke-width:1pt"
         d="M 5.77,0 -2.88,5 V -5 Z"
         id="path7492" />
    </marker>
    <marker
       style="overflow:visible"
       id="TriangleInM"
       refX="0"
       refY="0"
       orient="auto"
       inkscape:stockid="TriangleInM"
       inkscape:isstock="true">
      <path
         transform="scale(-0.4)"
         style="fill:context-stroke;fill-rule:evenodd;stroke:context-stroke;stroke-width:1pt"
         d="M 5.77,0 -2.88,5 V -5 Z"
         id="path7483" />
    </marker>
    <marker
       style="overflow:visible"
       id="TriangleInL"
       refX="0"
       refY="0"
       orient="auto"
       inkscape:stockid="TriangleInL"
       inkscape:isstock="true">
      <path
         transform="scale(-0.8)"
         style="fill:context-stroke;fill-rule:evenodd;stroke:context-stroke;stroke-width:1pt"
         d="M 5.77,0 -2.88,5 V -5 Z"
         id="path7480" />
    </marker>
    <marker
       style="overflow:visible"
       id="Arrow1Mend-9"
       refX="0"
       refY="0"
       orient="auto"
       inkscape:stockid="Arrow1Mend"
       inkscape:isstock="true">
      <path
         transform="matrix(-0.4,0,0,-0.4,-4,0)"
         style="fill:context-stroke;fill-rule:evenodd;stroke:context-stroke;stroke-width:1pt"
         d="M 0,0 5,-5 -12.5,0 5,5 Z"
         id="path7356-3" />
    </marker>
    <marker
       style="overflow:visible"
       id="Arrow1Mend_Fnone_S-abb2bf"
       refX="0"
       refY="0"
       orient="auto"
       inkscape:stockid="Arrow1Mend"
       inkscape:isstock="true">
      <path
         transform="matrix(-0.4,0,0,-0.4,-4,0)"
         style="fill:#abb2bf;fill-rule:evenodd;stroke:#abb2bf;stroke-width:1pt"
         d="M 0,0 5,-5 -12.5,0 5,5 Z"
         id="path30204" />
    </marker>
  </defs>
  <g
     inkscape:label="Layer 1"
     inkscape:groupmode="layer"
     id="layer1">
    <path
       style="fill:none;fill-opacity:1;stroke:#abb2bf;stroke-width:0.5;stroke-linejoin:bevel;stroke-miterlimit:4;stroke-dasharray:none;stroke-dashoffset:0;stroke-opacity:1;marker-end:url(#Arrow1Mend_Fnone_S-abb2bf)"
       d="m 25.51893,79.375089 h 80.26854"
       id="path29829" />
    <path
       style="fill:none;fill-opacity:1;stroke:#abb2bf;stroke-width:0.5;stroke-linejoin:bevel;stroke-miterlimit:4;stroke-dasharray:none;stroke-dashoffset:0;stroke-opacity:1;marker-end:url(#Arrow1Mend_Fnone_S-abb2bf)"
       d="M 39.687325,93.543643 V 13.275104"
       id="path29829-6" />
    <path
       style="fill:none;fill-opacity:1;stroke:#ffffff;stroke-width:0.499999;stroke-linejoin:bevel;stroke-miterlimit:4;stroke-dasharray:none;stroke-dashoffset:0;stroke-opacity:1"
       d="M 44.163803,13.204299 C 47.102565,51.649683 66.336851,72.189835 106.04814,74.31449"
       id="path30268"
       sodipodi:nodetypes="cc" />
    <path
       id="path30268-0"
       style="fill:url(#pattern31372);fill-opacity:1;stroke:none;stroke-width:0.499999;stroke-linejoin:bevel;stroke-miterlimit:4;stroke-dasharray:none;stroke-dashoffset:0;stroke-opacity:1"
       d="M 44.163539,13.204525 C 47.102301,51.649909 66.336845,72.189833 106.04814,74.31449 V 13.204525 Z" />
    <g
       aria-label="Non-example"
       id="text33212"
       style="font-size:11.9944px;font-family:'Fira Code';-inkscape-font-specification:'Fira Code';fill:#e06c75;stroke:#ffffff;stroke-width:0.499999;stroke-linejoin:bevel">
      <path
         d="m 30.371851,115.33486 -2.983223,-7.44883 q 0.0062,0.18453 0.04306,0.70121 0.03691,0.51053 0.06766,1.18099 0.03075,0.66431 0.03075,1.32246 v 4.24417 h -0.990306 v -8.46989 h 1.445479 l 3.03243,7.47958 q -0.0062,-0.17837 -0.04306,-0.652 -0.03691,-0.47977 -0.06766,-1.15023 -0.03075,-0.67661 -0.03075,-1.43933 v -4.23802 h 0.990306 v 8.46989 z"
         style="fill:#ffffff;stroke:none;stroke-width:0.5"
         id="path902" />
      <path
         d="m 36.596619,108.72256 q 1.371667,0 2.072878,0.9165 0.701212,0.91649 0.701212,2.45424 0,0.99031 -0.319851,1.75303 -0.319851,0.76272 -0.941099,1.19944 -0.621249,0.43056 -1.525442,0.43056 -1.371667,0 -2.079029,-0.92264 -0.707362,-0.92265 -0.707362,-2.44809 0,-0.99646 0.31985,-1.75918 0.319851,-0.76887 0.9411,-1.19329 0.627399,-0.43057 1.537743,-0.43057 z m 0,0.84269 q -0.836532,0 -1.267101,0.62125 -0.424417,0.62124 -0.424417,1.9191 0,1.28555 0.418266,1.9068 0.424418,0.6151 1.26095,0.6151 0.836533,0 1.254799,-0.62125 0.424417,-0.62125 0.424417,-1.91295 0,-1.29171 -0.418266,-1.9068 -0.418266,-0.62125 -1.248648,-0.62125 z"
         style="fill:#ffffff;stroke:none;stroke-width:0.5"
         id="path904" />
      <path
         d="m 41.51123,115.33486 v -6.47697 h 0.879589 l 0.07996,0.89804 q 0.393662,-0.49823 0.984156,-0.76272 0.590494,-0.27065 1.156383,-0.27065 0.953401,0 1.383969,0.50438 0.43672,0.50438 0.43672,1.40243 v 4.70549 h -1.033364 v -3.94277 q 0,-0.66431 -0.07381,-1.07027 -0.07381,-0.40597 -0.3137,-0.59665 -0.233737,-0.19068 -0.719664,-0.19068 -0.38136,0 -0.719664,0.16608 -0.332152,0.16608 -0.596644,0.41827 -0.258341,0.24603 -0.430568,0.49822 v 4.7178 z"
         style="fill:#ffffff;stroke:none;stroke-width:0.5"
         id="path906" />
      <path
         d="m 48.88008,112.42545 v -0.89804 h 4.933082 v 0.89804 z"
         style="fill:#ffffff;stroke:none;stroke-width:0.5"
         id="path908" />
      <path
         d="m 57.085462,112.46236 q 0.04306,1.12563 0.590494,1.64231 0.553587,0.51053 1.304006,0.51053 0.498229,0 0.898042,-0.14763 0.399814,-0.14762 0.830382,-0.43671 l 0.485927,0.68275 q -0.449021,0.35676 -1.033364,0.55974 -0.584342,0.20298 -1.193289,0.20298 -0.94725,0 -1.611555,-0.42441 -0.658154,-0.42442 -1.00876,-1.18099 -0.344454,-0.76272 -0.344454,-1.76533 0,-0.98416 0.344454,-1.74688 0.350606,-0.76272 0.984156,-1.19944 0.639701,-0.43672 1.500838,-0.43672 1.224044,0 1.925255,0.84884 0.707362,0.84883 0.707362,2.32507 0,0.16607 -0.0123,0.3137 -0.0062,0.14762 -0.0123,0.25219 z m 1.759179,-2.89096 q -0.719664,0 -1.205591,0.51053 -0.485927,0.51053 -0.547437,1.5808 h 3.376885 q -0.01845,-1.03951 -0.455172,-1.56235 -0.436719,-0.52898 -1.168685,-0.52898 z"
         style="fill:#ffffff;stroke:none;stroke-width:0.5"
         id="path910" />
      <path
         d="m 64.282084,115.33486 h -1.180987 l 2.392729,-3.41994 -2.097482,-3.05703 h 1.224044 l 1.500837,2.41118 1.519291,-2.41118 h 1.180987 l -2.091331,3.01397 2.386578,3.463 h -1.267101 l -1.77148,-2.78024 z"
         style="fill:#ffffff;stroke:none;stroke-width:0.5"
         id="path912" />
      <path
         d="m 75.673672,113.92014 q 0,0.39366 0.129171,0.57204 0.12917,0.17838 0.399813,0.25834 l -0.25219,0.72581 q -0.418266,-0.0554 -0.731966,-0.26449 -0.313699,-0.21528 -0.455172,-0.64585 -0.350605,0.44902 -0.879589,0.68276 -0.522833,0.22758 -1.150232,0.22758 -0.971854,0 -1.531593,-0.54743 -0.559739,-0.54744 -0.559739,-1.45163 0,-1.00261 0.781174,-1.53775 0.781174,-0.53513 2.257408,-0.53513 h 0.953401 v -0.54129 q 0,-0.70121 -0.412116,-0.9903 -0.405964,-0.29525 -1.131779,-0.29525 -0.31985,0 -0.750419,0.08 -0.430568,0.0738 -0.934948,0.25219 l -0.270643,-0.78117 q 0.590494,-0.22144 1.113327,-0.3137 0.528983,-0.0923 1.002609,-0.0923 1.20559,0 1.814537,0.56589 0.608946,0.56589 0.608946,1.52545 z m -2.675673,0.76887 q 0.479776,0 0.910344,-0.23989 0.436719,-0.24604 0.725815,-0.67661 V 112.1056 H 73.69921 q -1.07027,0 -1.51314,0.36906 -0.436719,0.36906 -0.436719,0.99031 0,1.22404 1.248648,1.22404 z"
         style="fill:#ffffff;stroke:none;stroke-width:0.5"
         id="path914" />
      <path
         d="m 82.685763,108.72256 q 0.307549,0 0.596645,0.13533 0.289096,0.13532 0.473625,0.52283 0.184529,0.38751 0.184529,1.13178 v 4.82236 H 82.98101 v -4.65629 q 0,-0.60894 -0.07381,-0.87959 -0.07381,-0.27064 -0.424417,-0.27064 -0.289096,0 -0.578192,0.18453 -0.289095,0.17838 -0.553587,0.59049 v 5.0315 h -0.965703 v -4.65629 q 0,-0.60894 -0.07381,-0.87959 -0.07381,-0.27064 -0.424417,-0.27064 -0.301398,0 -0.584343,0.18453 -0.282944,0.17838 -0.547436,0.59049 v 5.0315 H 77.80189 v -6.47697 h 0.811928 l 0.06151,0.75041 q 0.264492,-0.3752 0.590493,-0.62739 0.332153,-0.25835 0.81808,-0.25835 0.369059,0 0.69506,0.17838 0.326002,0.17223 0.479776,0.67661 0.264492,-0.38136 0.596645,-0.6151 0.332152,-0.23989 0.830381,-0.23989 z"
         style="fill:#ffffff;stroke:none;stroke-width:0.5"
         id="path916" />
      <path
         d="m 88.695249,108.72256 q 0.861136,0 1.371667,0.41827 0.516682,0.41827 0.744268,1.18099 0.227586,0.75657 0.227586,1.77148 0,0.978 -0.276794,1.74687 -0.270642,0.76273 -0.82423,1.19944 -0.553588,0.43672 -1.396271,0.43672 -1.064119,0 -1.709971,-0.75041 v 3.08778 l -1.033364,0.12917 v -9.08498 h 0.879589 l 0.08611,0.90419 q 0.356757,-0.49823 0.848835,-0.76887 0.492078,-0.27065 1.082571,-0.27065 z m -0.246039,0.83039 q -0.535135,0 -0.94725,0.326 -0.412115,0.31985 -0.670456,0.71351 v 3.21081 q 0.25219,0.37521 0.63355,0.59664 0.387512,0.21529 0.848835,0.21529 0.805777,0 1.211742,-0.6151 0.405964,-0.6151 0.405964,-1.91295 0,-2.5342 -1.482385,-2.5342 z"
         style="fill:#ffffff;stroke:none;stroke-width:0.5"
         id="path918" />
      <path
         d="m 95.701193,106.24987 v 7.48574 q 0,0.47977 0.295246,0.68276 0.301398,0.19683 0.775023,0.19683 0.289096,0 0.553588,-0.0615 0.270643,-0.0615 0.535135,-0.16608 l 0.276794,0.75657 q -0.264492,0.12917 -0.658155,0.22759 -0.387511,0.10456 -0.879589,0.10456 -0.861136,0 -1.396271,-0.47362 -0.535135,-0.47978 -0.535135,-1.32246 v -6.6123 h -1.986765 v -0.81808 z"
         style="fill:#ffffff;stroke:none;stroke-width:0.5"
         id="path920" />
      <path
         d="m 101.37237,112.46236 q 0.0431,1.12563 0.59049,1.64231 0.55359,0.51053 1.30401,0.51053 0.49823,0 0.89804,-0.14763 0.39982,-0.14762 0.83039,-0.43671 l 0.48592,0.68275 q -0.44902,0.35676 -1.03336,0.55974 -0.58434,0.20298 -1.19329,0.20298 -0.94725,0 -1.61156,-0.42441 -0.65815,-0.42442 -1.00876,-1.18099 -0.34445,-0.76272 -0.34445,-1.76533 0,-0.98416 0.34445,-1.74688 0.35061,-0.76272 0.98416,-1.19944 0.6397,-0.43672 1.50084,-0.43672 1.22404,0 1.92525,0.84884 0.70736,0.84883 0.70736,2.32507 0,0.16607 -0.0123,0.3137 -0.006,0.14762 -0.0123,0.25219 z m 1.75918,-2.89096 q -0.71966,0 -1.20559,0.51053 -0.48593,0.51053 -0.54744,1.5808 h 3.37689 q -0.0185,-1.03951 -0.45518,-1.56235 -0.43671,-0.52898 -1.16868,-0.52898 z"
         style="fill:#ffffff;stroke:none;stroke-width:0.5"
         id="path922" />
    </g>
  </g>
</svg>
